<svg id="Layer_1" data-name="Layer 1" xmlns="http://www.w3.org/2000/svg" xmlns:xlink="http://www.w3.org/1999/xlink" viewBox="0 0 220 48"><defs><style>.cls-1{fill:#17608e;}.cls-2{fill:url(#linear-gradient);}.cls-3{fill:#5fddec;}.cls-4{fill:#fff;}.cls-5{fill:#33b5d4;}</style><linearGradient id="linear-gradient" x1="110" y1="46" x2="110" y2="2" gradientUnits="userSpaceOnUse"><stop offset="0" stop-color="#046bae"/><stop offset="1" stop-color="#0fe1ee"/></linearGradient></defs><title>topicsArtboard 23</title><path class="cls-1" d="M24,48A24,24,0,0,1,24,0H196a24,24,0,0,1,0,48Z"/><rect class="cls-2" x="2" y="2" width="216" height="44" rx="22"/><path class="cls-3" d="M24,40A16,16,0,0,1,24,8H196a16,16,0,0,1,0,32Z"/><ellipse class="cls-4" cx="13.18" cy="12.54" rx="6" ry="2.3" transform="translate(-5.01 12.99) rotate(-45)"/><path class="cls-5" d="M146.45,24.75a2.68,2.68,0,0,0-2.14-1.07h0v-.1a2.74,2.74,0,0,0,1.54-1,3.25,3.25,0,0,0,.6-2,4.76,4.76,0,0,0-.89-2.88,2.83,2.83,0,0,0-2.34-1.28,2.9,2.9,0,0,0-.83.13,3.21,3.21,0,0,1-.7.13c-.22,0-.66,0-1.6,0h-4a7.22,7.22,0,0,0-1.68.14,2.49,2.49,0,0,0-.87.41,2.77,2.77,0,0,0-1.57-.51,2.52,2.52,0,0,0-.79.12,8.7,8.7,0,0,0-2.3-.37,6.74,6.74,0,0,0-4.47,1.55,5.29,5.29,0,0,0-.94,1,7,7,0,0,0-1-1,7.56,7.56,0,0,0-4.73-1.56,8.66,8.66,0,0,0-3.06.53,7.46,7.46,0,0,0-3.31,2.4,7.67,7.67,0,0,0-1.36-1.37,7.55,7.55,0,0,0-4.72-1.56,8.62,8.62,0,0,0-3.06.53,7.93,7.93,0,0,0-2,1,3.16,3.16,0,0,0-1.49-1.14,8.17,8.17,0,0,0-2.83-.39,10.68,10.68,0,0,0-2.51.25,3.39,3.39,0,0,0-.77.29,6.31,6.31,0,0,0-2.86-.55,11.69,11.69,0,0,0-2.22.22,5.2,5.2,0,0,0-1.82.7,2.78,2.78,0,0,0-1.3-.32,2.93,2.93,0,0,0-.53,0,7.25,7.25,0,0,0-3.05-.68,8.1,8.1,0,0,0-6.41,3.19,7.12,7.12,0,0,0-1.48,4.37,7.58,7.58,0,0,0,4.42,6.77,8.36,8.36,0,0,0,3.42.76A7.49,7.49,0,0,0,84,30.84a2.11,2.11,0,0,1,.31-.13,4.7,4.7,0,0,0,.86-.25,3.41,3.41,0,0,0,1.2.71,8.6,8.6,0,0,0,2.72.37A8.17,8.17,0,0,0,92,31.12l.4-.18.35.17a7.42,7.42,0,0,0,2.82.43,8.45,8.45,0,0,0,3-.41,3.12,3.12,0,0,0,1.54-1.2,7.67,7.67,0,0,0,1.48.92,8.22,8.22,0,0,0,3.42.74,8.57,8.57,0,0,0,2.67-.43,7.67,7.67,0,0,0,3.61-2.39.21.21,0,0,1,0-.06,7.22,7.22,0,0,0,2.71,2.14,8.22,8.22,0,0,0,3.42.74,8.52,8.52,0,0,0,2.67-.43,7.55,7.55,0,0,0,2.93-1.69,3.36,3.36,0,0,0,.94,1,7,7,0,0,0,2.27.84,12.72,12.72,0,0,0,2.53.28,7.88,7.88,0,0,0,4.27-1.13,2.83,2.83,0,0,0,.3.3,2.93,2.93,0,0,0,1.87.62h6.57a5.87,5.87,0,0,1,1.06.09,5.39,5.39,0,0,0,.76.07,2.5,2.5,0,0,0,1.52-.5,3.74,3.74,0,0,0,.76-.86,7.67,7.67,0,0,0,.8-1.68,5.57,5.57,0,0,0,.35-1.82A3.16,3.16,0,0,0,146.45,24.75Zm-64.24,0a.94.94,0,0,1-.93-.54,2.66,2.66,0,0,1-.39-1.42v-.08a.62.62,0,0,1,.17.1l.11.09s.11.15.36.6a3.61,3.61,0,0,0,1,1.22A1.53,1.53,0,0,1,82.21,24.79Z"/><path class="cls-1" d="M80.64,21.69a2.78,2.78,0,0,1,1.59.53,2.65,2.65,0,0,1,.51.49,6.71,6.71,0,0,1,.55.89,1.9,1.9,0,0,0,.48.61,1.18,1.18,0,0,0,.65.17,1.36,1.36,0,0,0,.79-.24,1.55,1.55,0,0,0,.65-1.38,3.43,3.43,0,0,0-.75-2.25.89.89,0,0,0-.71-.37.86.86,0,0,0-.23,0,2.14,2.14,0,0,1-.45.07A2.22,2.22,0,0,1,83,20a5,5,0,0,0-2.2-.5,5.8,5.8,0,0,0-2.37.5A6,6,0,0,0,76,21.89a5.15,5.15,0,0,0-1.08,3.17A5.56,5.56,0,0,0,78.17,30a6.3,6.3,0,0,0,2.6.59A5.63,5.63,0,0,0,83.18,30a3,3,0,0,1,.79-.29,1.75,1.75,0,0,0,.68-.24,2.65,2.65,0,0,0,.65-.88,2.28,2.28,0,0,0,.28-1,1,1,0,0,0-.2-.61.56.56,0,0,0-.47-.25.82.82,0,0,0-.48.28,2.54,2.54,0,0,1-1,.54,3.87,3.87,0,0,1-1.25.22,2.93,2.93,0,0,1-2.64-1.5,4.65,4.65,0,0,1-.68-2.46,2.44,2.44,0,0,1,.47-1.56A1.59,1.59,0,0,1,80.64,21.69Z"/><path class="cls-1" d="M97.65,22.08a1,1,0,0,1,.15-.48,1.12,1.12,0,0,1,.4-.27.74.74,0,0,0,.48-.7c0-.37-.23-.64-.68-.82a6.53,6.53,0,0,0-2.12-.26,8.88,8.88,0,0,0-2,.2,1.25,1.25,0,0,0-.64.35.85.85,0,0,0-.24.58.6.6,0,0,0,.11.37,1.61,1.61,0,0,0,.45.33.76.76,0,0,1,.37.55A7.7,7.7,0,0,1,94,23.37c0,.23-.06.37-.19.43a3.19,3.19,0,0,1-1,.09c-.59,0-1,0-1.12,0a.79.79,0,0,1-.36-.09c-.13-.09-.2-.31-.2-.67a6.28,6.28,0,0,1,.08-1.24.85.85,0,0,1,.39-.49,1.68,1.68,0,0,0,.47-.38.73.73,0,0,0,.13-.45c0-.67-.81-1-2.44-1a9.31,9.31,0,0,0-1.83.18c-1,.21-1.53.57-1.53,1.1a.53.53,0,0,0,.35.49,1.52,1.52,0,0,1,.63.47,2.12,2.12,0,0,1,.12.89c0,.18,0,.89,0,2.14,0,.25,0,.46,0,.65a19.15,19.15,0,0,1-.12,2.39,1.8,1.8,0,0,1-.14.58.72.72,0,0,1-.31.28,1.74,1.74,0,0,0-.54.36.53.53,0,0,0-.13.39.71.71,0,0,0,.2.48,1.35,1.35,0,0,0,.55.33,6.78,6.78,0,0,0,2.1.27,6.41,6.41,0,0,0,2.16-.29c.5-.2.76-.48.76-.84a.66.66,0,0,0-.33-.62,1.3,1.3,0,0,1-.41-.32,2.52,2.52,0,0,1-.25-1.28,7.82,7.82,0,0,1,0-.92c0-.2.09-.33.19-.37a6.37,6.37,0,0,1,1.79-.15,1.59,1.59,0,0,1,.75.11c.1.08.14.28.14.61a7.41,7.41,0,0,1-.14,1.61,1.3,1.3,0,0,1-.16.46.71.71,0,0,1-.3.25.78.78,0,0,0-.47.7.81.81,0,0,0,.61.77,5.72,5.72,0,0,0,2,.28,7,7,0,0,0,2.29-.27.92.92,0,0,0,.71-.87.54.54,0,0,0-.3-.5,3.07,3.07,0,0,1-.49-.31.75.75,0,0,1-.14-.31,10,10,0,0,1-.12-2c0-.6,0-1.42,0-2.44S97.63,22.21,97.65,22.08Z"/><path class="cls-1" d="M108.72,20.64a5.64,5.64,0,0,0-3.51-1.14,6.6,6.6,0,0,0-2.36.4A5.37,5.37,0,0,0,99.27,25a5.51,5.51,0,0,0,.82,2.93A5.27,5.27,0,0,0,102.43,30a6.22,6.22,0,0,0,2.59.56,6.66,6.66,0,0,0,2-.33,5.76,5.76,0,0,0,2.7-1.77,5,5,0,0,0,1.21-3.3,5.61,5.61,0,0,0-.61-2.5A5.89,5.89,0,0,0,108.72,20.64Zm-2,7.22a1.21,1.21,0,0,1-1,.44,1.23,1.23,0,0,1-.72-.23,1.84,1.84,0,0,1-.6-.61,8.76,8.76,0,0,1-.91-2.05,7.09,7.09,0,0,1-.36-2.05,1.82,1.82,0,0,1,.3-1,1.17,1.17,0,0,1,1-.58,1.51,1.51,0,0,1,.79.29,2.51,2.51,0,0,1,.69.75,7.08,7.08,0,0,1,.78,1.86,7.39,7.39,0,0,1,.31,2A1.83,1.83,0,0,1,106.68,27.86Z"/><path class="cls-1" d="M121.17,20.64a5.64,5.64,0,0,0-3.51-1.14,6.6,6.6,0,0,0-2.36.4,5.53,5.53,0,0,0-2.52,1.86,5.65,5.65,0,0,0-.23,6.21A5.24,5.24,0,0,0,114.88,30a6.29,6.29,0,0,0,2.59.56,6.61,6.61,0,0,0,2-.33,5.76,5.76,0,0,0,2.7-1.77,5,5,0,0,0,1.22-3.3,5.63,5.63,0,0,0-.62-2.5A5.89,5.89,0,0,0,121.17,20.64Zm-2,7.22a1.19,1.19,0,0,1-1,.44,1.28,1.28,0,0,1-.72-.23,1.84,1.84,0,0,1-.6-.61,8.75,8.75,0,0,1-.9-2.05,7.09,7.09,0,0,1-.36-2.05,1.81,1.81,0,0,1,.29-1,1.18,1.18,0,0,1,1-.58,1.48,1.48,0,0,1,.79.29,2.51,2.51,0,0,1,.69.75,7.44,7.44,0,0,1,.79,1.86,7.75,7.75,0,0,1,.3,2A1.83,1.83,0,0,1,119.13,27.86Z"/><path class="cls-1" d="M131.81,23.94a17.22,17.22,0,0,0-2.07-.69c-.79-.23-1.19-.57-1.19-1a.65.65,0,0,1,.26-.55,1.08,1.08,0,0,1,.7-.21,2.75,2.75,0,0,1,1.84.87,8.17,8.17,0,0,0,.86.74.88.88,0,0,0,.51.13.83.83,0,0,0,.64-.3,1.11,1.11,0,0,0,.26-.74,2.83,2.83,0,0,0-.58-1.58c-.39-.55-.76-.83-1.11-.83a.86.86,0,0,0-.27.05,2.71,2.71,0,0,1-.46.14.65.65,0,0,1-.25-.05,7.81,7.81,0,0,0-2.11-.39,4.81,4.81,0,0,0-3.21,1.1,3.27,3.27,0,0,0-.9,1.13,2.9,2.9,0,0,0-.32,1.34,3.26,3.26,0,0,0,1.23,2.48,5.24,5.24,0,0,0,1.09.74,12.8,12.8,0,0,0,1.71.64,2.66,2.66,0,0,1,.91.43.66.66,0,0,1,.28.53.65.65,0,0,1-.36.56,1.83,1.83,0,0,1-.93.21,3.08,3.08,0,0,1-1.3-.29,2,2,0,0,1-.92-.73,12.21,12.21,0,0,0-.78-1.1.77.77,0,0,0-.57-.3.6.6,0,0,0-.49.25.94.94,0,0,0-.15.58,4.82,4.82,0,0,0,.3,1.63,2.14,2.14,0,0,0,.67,1.09,4.89,4.89,0,0,0,1.6.56,10,10,0,0,0,2.11.24,5.77,5.77,0,0,0,3.64-1.08,3.29,3.29,0,0,0,1.35-2.72A3.07,3.07,0,0,0,131.81,23.94Z"/><path class="cls-1" d="M144.86,27a.67.67,0,0,0-.55-.28.66.66,0,0,0-.45.15,2.19,2.19,0,0,0-.4.61,2.19,2.19,0,0,1-1,1.09,4,4,0,0,1-1.76.3,4.6,4.6,0,0,1-1.09-.09.49.49,0,0,1-.38-.32,5.15,5.15,0,0,1-.11-.77c0-.39-.05-.71-.05-.95a1.71,1.71,0,0,1,.13-.82.52.52,0,0,1,.48-.23.93.93,0,0,1,1,.89,1.34,1.34,0,0,0,.16.56.44.44,0,0,0,.37.14.68.68,0,0,0,.64-.43,4.73,4.73,0,0,0,.38-2,6.61,6.61,0,0,0-.11-1.2,2.17,2.17,0,0,0-.28-.8.65.65,0,0,0-.55-.31.59.59,0,0,0-.38.14.61.61,0,0,0-.22.29,4,4,0,0,0-.11.63.77.77,0,0,1-.19.48.68.68,0,0,1-.47.14,1.81,1.81,0,0,1-.82-.11c-.11-.08-.16-.27-.16-.59,0-.79,0-1.28,0-1.47a1,1,0,0,1,.12-.46c.13-.22.5-.32,1.09-.32a6.31,6.31,0,0,1,1.73.17,1.66,1.66,0,0,1,.88.7,2,2,0,0,0,.38.47.63.63,0,0,0,.41.11.68.68,0,0,0,.58-.29,1.29,1.29,0,0,0,.22-.8,2.79,2.79,0,0,0-.52-1.72.87.87,0,0,0-.71-.44,1.05,1.05,0,0,0-.26.05,5.81,5.81,0,0,1-1.09.2c-.37,0-1,.05-1.78.05h-4a5.71,5.71,0,0,0-1.17.08.67.67,0,0,0-.4.25.77.77,0,0,0-.14.45.56.56,0,0,0,.44.59,1.74,1.74,0,0,1,.39.15.58.58,0,0,1,.17.22,11.37,11.37,0,0,1,.38,3.8,15.56,15.56,0,0,1-.26,3.18,1.15,1.15,0,0,1-.17.44,1,1,0,0,1-.35.25,1.48,1.48,0,0,0-.43.26.5.5,0,0,0-.1.33.6.6,0,0,0,.22.49,1,1,0,0,0,.62.18h6.63a7.38,7.38,0,0,1,1.33.12,2.82,2.82,0,0,0,.43,0,.49.49,0,0,0,.3-.09,1.7,1.7,0,0,0,.29-.35,5.57,5.57,0,0,0,.6-1.25,3.79,3.79,0,0,0,.24-1.17A1.18,1.18,0,0,0,144.86,27Z"/><path class="cls-4" d="M80.64,20.69a2.78,2.78,0,0,1,1.59.53,2.65,2.65,0,0,1,.51.49,6.71,6.71,0,0,1,.55.89,1.9,1.9,0,0,0,.48.61,1.18,1.18,0,0,0,.65.17,1.36,1.36,0,0,0,.79-.24,1.55,1.55,0,0,0,.65-1.38,3.43,3.43,0,0,0-.75-2.25.89.89,0,0,0-.71-.37.86.86,0,0,0-.23,0,2.14,2.14,0,0,1-.45.07A2.22,2.22,0,0,1,83,19a5,5,0,0,0-2.2-.5,5.8,5.8,0,0,0-2.37.5A6,6,0,0,0,76,20.89a5.15,5.15,0,0,0-1.08,3.17A5.56,5.56,0,0,0,78.17,29a6.3,6.3,0,0,0,2.6.59A5.63,5.63,0,0,0,83.18,29a3,3,0,0,1,.79-.29,1.75,1.75,0,0,0,.68-.24,2.65,2.65,0,0,0,.65-.88,2.28,2.28,0,0,0,.28-1,1,1,0,0,0-.2-.61.56.56,0,0,0-.47-.25.82.82,0,0,0-.48.28,2.54,2.54,0,0,1-1,.54,3.87,3.87,0,0,1-1.25.22,2.93,2.93,0,0,1-2.64-1.5,4.65,4.65,0,0,1-.68-2.46,2.44,2.44,0,0,1,.47-1.56A1.59,1.59,0,0,1,80.64,20.69Z"/><path class="cls-4" d="M97.65,21.08a1,1,0,0,1,.15-.48,1.12,1.12,0,0,1,.4-.27.74.74,0,0,0,.48-.7c0-.37-.23-.64-.68-.82a6.53,6.53,0,0,0-2.12-.26,8.88,8.88,0,0,0-2,.2,1.25,1.25,0,0,0-.64.35.85.85,0,0,0-.24.58.6.6,0,0,0,.11.37,1.61,1.61,0,0,0,.45.33.76.76,0,0,1,.37.55A7.7,7.7,0,0,1,94,22.37c0,.23-.06.37-.19.43a3.19,3.19,0,0,1-1,.09c-.59,0-1,0-1.12,0a.79.79,0,0,1-.36-.09c-.13-.09-.2-.31-.2-.67a6.28,6.28,0,0,1,.08-1.24.85.85,0,0,1,.39-.49,1.68,1.68,0,0,0,.47-.38.73.73,0,0,0,.13-.45c0-.67-.81-1-2.44-1a9.31,9.31,0,0,0-1.83.18c-1,.21-1.53.57-1.53,1.1a.53.53,0,0,0,.35.49,1.52,1.52,0,0,1,.63.47,2.12,2.12,0,0,1,.12.89c0,.18,0,.89,0,2.14,0,.25,0,.46,0,.65a19.15,19.15,0,0,1-.12,2.39,1.8,1.8,0,0,1-.14.58.72.72,0,0,1-.31.28,1.74,1.74,0,0,0-.54.36.53.53,0,0,0-.13.39.71.71,0,0,0,.2.48,1.35,1.35,0,0,0,.55.33,6.78,6.78,0,0,0,2.1.27,6.41,6.41,0,0,0,2.16-.29c.5-.2.76-.48.76-.84a.66.66,0,0,0-.33-.62,1.3,1.3,0,0,1-.41-.32,2.52,2.52,0,0,1-.25-1.28,7.82,7.82,0,0,1,0-.92c0-.2.09-.33.19-.37a6.37,6.37,0,0,1,1.79-.15,1.59,1.59,0,0,1,.75.11c.1.08.14.28.14.61a7.41,7.41,0,0,1-.14,1.61,1.3,1.3,0,0,1-.16.46.71.71,0,0,1-.3.25.78.78,0,0,0-.47.7.81.81,0,0,0,.61.77,5.72,5.72,0,0,0,2,.28,7,7,0,0,0,2.29-.27.92.92,0,0,0,.71-.87.54.54,0,0,0-.3-.5,3.07,3.07,0,0,1-.49-.31.75.75,0,0,1-.14-.31,10,10,0,0,1-.12-2c0-.6,0-1.42,0-2.44S97.63,21.21,97.65,21.08Z"/><path class="cls-4" d="M108.72,19.64a5.64,5.64,0,0,0-3.51-1.14,6.6,6.6,0,0,0-2.36.4A5.37,5.37,0,0,0,99.27,24a5.51,5.51,0,0,0,.82,2.93A5.27,5.27,0,0,0,102.43,29a6.22,6.22,0,0,0,2.59.56,6.66,6.66,0,0,0,2-.33,5.76,5.76,0,0,0,2.7-1.77,5,5,0,0,0,1.21-3.3,5.61,5.61,0,0,0-.61-2.5A5.89,5.89,0,0,0,108.72,19.64Zm-2,7.22a1.21,1.21,0,0,1-1,.44,1.23,1.23,0,0,1-.72-.23,1.84,1.84,0,0,1-.6-.61,8.76,8.76,0,0,1-.91-2.05,7.09,7.09,0,0,1-.36-2.05,1.82,1.82,0,0,1,.3-1,1.17,1.17,0,0,1,1-.58,1.51,1.51,0,0,1,.79.29,2.51,2.51,0,0,1,.69.75,7.08,7.08,0,0,1,.78,1.86,7.39,7.39,0,0,1,.31,2A1.83,1.83,0,0,1,106.68,26.86Z"/><path class="cls-4" d="M121.17,19.64a5.64,5.64,0,0,0-3.51-1.14,6.6,6.6,0,0,0-2.36.4,5.53,5.53,0,0,0-2.52,1.86,5.65,5.65,0,0,0-.23,6.21A5.24,5.24,0,0,0,114.88,29a6.29,6.29,0,0,0,2.59.56,6.61,6.61,0,0,0,2-.33,5.76,5.76,0,0,0,2.7-1.77,5,5,0,0,0,1.22-3.3,5.63,5.63,0,0,0-.62-2.5A5.89,5.89,0,0,0,121.17,19.64Zm-2,7.22a1.19,1.19,0,0,1-1,.44,1.28,1.28,0,0,1-.72-.23,1.84,1.84,0,0,1-.6-.61,8.75,8.75,0,0,1-.9-2.05,7.09,7.09,0,0,1-.36-2.05,1.81,1.81,0,0,1,.29-1,1.18,1.18,0,0,1,1-.58,1.48,1.48,0,0,1,.79.29,2.51,2.51,0,0,1,.69.75,7.44,7.44,0,0,1,.79,1.86,7.75,7.75,0,0,1,.3,2A1.83,1.83,0,0,1,119.13,26.86Z"/><path class="cls-4" d="M131.81,22.94a17.22,17.22,0,0,0-2.07-.69c-.79-.23-1.19-.57-1.19-1a.65.65,0,0,1,.26-.55,1.08,1.08,0,0,1,.7-.21,2.75,2.75,0,0,1,1.84.87,8.17,8.17,0,0,0,.86.74.88.88,0,0,0,.51.13.83.83,0,0,0,.64-.3,1.11,1.11,0,0,0,.26-.74,2.83,2.83,0,0,0-.58-1.58c-.39-.55-.76-.83-1.11-.83a.86.86,0,0,0-.27.05,2.71,2.71,0,0,1-.46.14.65.65,0,0,1-.25-.05,7.81,7.81,0,0,0-2.11-.39,4.81,4.81,0,0,0-3.21,1.1,3.27,3.27,0,0,0-.9,1.13,2.9,2.9,0,0,0-.32,1.34,3.26,3.26,0,0,0,1.23,2.48,5.24,5.24,0,0,0,1.09.74,12.8,12.8,0,0,0,1.71.64,2.66,2.66,0,0,1,.91.43.66.66,0,0,1,.28.53.65.65,0,0,1-.36.56,1.83,1.83,0,0,1-.93.21,3.08,3.08,0,0,1-1.3-.29,2,2,0,0,1-.92-.73,12.21,12.21,0,0,0-.78-1.1.77.77,0,0,0-.57-.3.6.6,0,0,0-.49.25.94.94,0,0,0-.15.58,4.82,4.82,0,0,0,.3,1.63,2.14,2.14,0,0,0,.67,1.09,4.89,4.89,0,0,0,1.6.56,10,10,0,0,0,2.11.24,5.77,5.77,0,0,0,3.64-1.08,3.29,3.29,0,0,0,1.35-2.72A3.07,3.07,0,0,0,131.81,22.94Z"/><path class="cls-4" d="M144.86,26a.67.67,0,0,0-.55-.28.66.66,0,0,0-.45.15,2.19,2.19,0,0,0-.4.61,2.19,2.19,0,0,1-1,1.09,4,4,0,0,1-1.76.3,4.6,4.6,0,0,1-1.09-.09.49.49,0,0,1-.38-.32,5.15,5.15,0,0,1-.11-.77c0-.39-.05-.71-.05-.95a1.71,1.71,0,0,1,.13-.82.52.52,0,0,1,.48-.23.93.93,0,0,1,1,.89,1.34,1.34,0,0,0,.16.56.44.44,0,0,0,.37.14.68.68,0,0,0,.64-.43,4.73,4.73,0,0,0,.38-2,6.61,6.61,0,0,0-.11-1.2,2.17,2.17,0,0,0-.28-.8.65.65,0,0,0-.55-.31.59.59,0,0,0-.38.14.61.61,0,0,0-.22.29,4,4,0,0,0-.11.63.77.77,0,0,1-.19.48.68.68,0,0,1-.47.14,1.81,1.81,0,0,1-.82-.11c-.11-.08-.16-.27-.16-.59,0-.79,0-1.28,0-1.47a1,1,0,0,1,.12-.46c.13-.22.5-.32,1.09-.32a6.31,6.31,0,0,1,1.73.17,1.66,1.66,0,0,1,.88.7,2,2,0,0,0,.38.47.63.63,0,0,0,.41.11.68.68,0,0,0,.58-.29,1.29,1.29,0,0,0,.22-.8,2.79,2.79,0,0,0-.52-1.72.87.87,0,0,0-.71-.44,1.05,1.05,0,0,0-.26.05,5.81,5.81,0,0,1-1.09.2c-.37,0-1,.05-1.78.05h-4a5.71,5.71,0,0,0-1.17.08.67.67,0,0,0-.4.25.77.77,0,0,0-.14.45.56.56,0,0,0,.44.59,1.74,1.74,0,0,1,.39.15.58.58,0,0,1,.17.22,11.37,11.37,0,0,1,.38,3.8,15.56,15.56,0,0,1-.26,3.18,1.15,1.15,0,0,1-.17.44,1,1,0,0,1-.35.25,1.48,1.48,0,0,0-.43.26.5.5,0,0,0-.1.33.6.6,0,0,0,.22.49,1,1,0,0,0,.62.18h6.63a7.38,7.38,0,0,1,1.33.12,2.82,2.82,0,0,0,.43,0,.49.49,0,0,0,.3-.09,1.7,1.7,0,0,0,.29-.35,5.57,5.57,0,0,0,.6-1.25,3.79,3.79,0,0,0,.24-1.17A1.18,1.18,0,0,0,144.86,26Z"/></svg>