<svg id="Layer_1" data-name="Layer 1" xmlns="http://www.w3.org/2000/svg" xmlns:xlink="http://www.w3.org/1999/xlink" viewBox="0 0 220 48"><defs><style>.cls-1{fill:#17608e;}.cls-2{fill:url(#linear-gradient);}.cls-3{fill:#5fddec;}.cls-4{fill:#fff;}.cls-5{fill:#33b5d4;}</style><linearGradient id="linear-gradient" x1="110" y1="46" x2="110" y2="2" gradientUnits="userSpaceOnUse"><stop offset="0" stop-color="#046bae"/><stop offset="1" stop-color="#0fe1ee"/></linearGradient></defs><title>buynow buttonArtboard 75</title><path class="cls-1" d="M24,48A24,24,0,0,1,24,0H196a24,24,0,0,1,0,48Z"/><rect class="cls-2" x="2" y="2" width="216" height="44" rx="22"/><path class="cls-3" d="M24,40A16,16,0,0,1,24,8H196a16,16,0,0,1,0,32Z"/><ellipse class="cls-4" cx="13.18" cy="12.54" rx="6" ry="2.3" transform="translate(-5.01 12.99) rotate(-45)"/><path class="cls-5" d="M104.67,16.73a8.44,8.44,0,0,0-2.35-.21,6.43,6.43,0,0,0-2.95.56,3.39,3.39,0,0,0-1-.37,14,14,0,0,0-2.73-.2,12.05,12.05,0,0,0-3.2.31,1.19,1.19,0,0,0-.2.08l-.07,0a7.1,7.1,0,0,0-2.48-.34,7.28,7.28,0,0,0-2.51.34,3.35,3.35,0,0,0-.92.55,3.33,3.33,0,0,0-1.39-.65,12.08,12.08,0,0,0-2.59-.24,12.64,12.64,0,0,0-2.43.21,3.46,3.46,0,0,0-1.63.79l-.07.08a4.85,4.85,0,0,0-1.55-.75,8.55,8.55,0,0,0-2.19-.23h-1l-2.25.05c-.5,0-1,0-1.37,0s-.59,0-.79,0a3.28,3.28,0,0,0-1.95.58,2.68,2.68,0,0,0-1.15,2.2,2.61,2.61,0,0,0,1.2,2.2v.15c0,1.59,0,2.94-.14,4,0,.35-.06.6-.08.77a2.58,2.58,0,0,0-.47.46,2.48,2.48,0,0,0-.55,1.6,2.74,2.74,0,0,0,1,2.1,3.07,3.07,0,0,0,2.06.72c.16,0,.44,0,.77,0s.82,0,1.5,0h1l1.26,0,1.49,0a6,6,0,0,0,4.71-1.9l.14-.18a6,6,0,0,0,.63.59,8.23,8.23,0,0,0,5.25,1.63A9.52,9.52,0,0,0,88.83,31a5.69,5.69,0,0,0,3.64-3.41,9.4,9.4,0,0,0,.38-3.12v-1.8c.41.44.82.91,1.22,1.42.16.22.23.34.24.34a1.7,1.7,0,0,1,0,.33c0,.62,0,1,0,1.32a2.66,2.66,0,0,0-1.36,2.32,2.89,2.89,0,0,0,2.55,2.79,13.87,13.87,0,0,0,2.86.29c3.41,0,5.14-1,5.14-3.06a2.75,2.75,0,0,0-1.2-2.24c0-.38,0-.78,0-1.21a3,3,0,0,1,.06-.74h0a7.34,7.34,0,0,1,1-1.2c.57-.62.83-.86.92-.94a3.3,3.3,0,0,0,1.56-.68,2.6,2.6,0,0,0,.91-2,2.76,2.76,0,0,0-.59-1.69A2.82,2.82,0,0,0,104.67,16.73Zm-18,8a4.93,4.93,0,0,1,0,.53.9.9,0,0,1-.25,0s-.21,0-.26,0a1,1,0,0,1-.08-.52c0-1.45.06-2.42.07-2.91l.15-.12.17-.14.18.12c0,.3,0,.72,0,1.34Z"/><path class="cls-5" d="M152.35,16.83a5,5,0,0,0-1.93-.32,6.73,6.73,0,0,0-2.42.34l-.33.16a2.78,2.78,0,0,0-.4-.16,9.72,9.72,0,0,0-2.88-.33,8.79,8.79,0,0,0-3.14.46,3,3,0,0,0-.45-.18,9.24,9.24,0,0,0-2.62-.28c-2.42,0-3.62.67-4.21,1.45a7.61,7.61,0,0,0-4.66-1.52,8.37,8.37,0,0,0-3.06.54,8,8,0,0,0-1.9,1,3,3,0,0,0-1.7-1.26,7.67,7.67,0,0,0-2.22-.23,7.94,7.94,0,0,0-1.69.12,3,3,0,0,0-2.25,1.65l-.84-.73a4.3,4.3,0,0,0-1.35-.84,4.85,4.85,0,0,0-1.56-.2,13.6,13.6,0,0,0-1.83.08c-2.78.42-3,2.35-3,2.93a2.59,2.59,0,0,0,.6,1.67,3,3,0,0,0,.8.67,14.51,14.51,0,0,1,.11,2.14c0,.95,0,1.71-.07,2.26a2.64,2.64,0,0,0-.54.5,2.56,2.56,0,0,0-.57,1.67A2.86,2.86,0,0,0,110,31a5.67,5.67,0,0,0,2.49.47c3.15,0,4-1.39,4.27-2.42l1.5,1.34a4.79,4.79,0,0,0,.93.72,2.73,2.73,0,0,0,1.41.37,2.78,2.78,0,0,0,2.69-2.22,1.29,1.29,0,0,0,0-.21,7.26,7.26,0,0,0,2.38,1.73,8.07,8.07,0,0,0,3.41.75,8.82,8.82,0,0,0,2.67-.43,7.7,7.7,0,0,0,3.62-2.39,7.22,7.22,0,0,0,1.17-2l1,2.44a3.8,3.8,0,0,0,1.11,1.63,3.44,3.44,0,0,0,4.16,0,4,4,0,0,0,1-1.56l.07.15a3.38,3.38,0,0,0,1.16,1.53,3.26,3.26,0,0,0,1.92.58,3.16,3.16,0,0,0,1.5-.35A3,3,0,0,0,149.66,30a9.22,9.22,0,0,0,.55-1.09c.15-.33.56-1.35,1.28-3.12l1.37-3.64c.07-.2.13-.36.17-.46a3.5,3.5,0,0,0,.73-.81,2.68,2.68,0,0,0,.42-1.47A2.75,2.75,0,0,0,152.35,16.83Z"/><path class="cls-1" d="M77.17,24.68q-.33-.13-.33-.33c0-.12.09-.25.27-.4a2,2,0,0,0,.61-.81A2.58,2.58,0,0,0,78,22.09a2.16,2.16,0,0,0-.77-1.74,3,3,0,0,0-1.1-.57,7,7,0,0,0-1.68-.16h-1l-2.31.05c-.53,0-1,0-1.48,0l-.68,0a1.4,1.4,0,0,0-.8.22.69.69,0,0,0-.3.57c0,.28.17.49.51.64a1,1,0,0,1,.57.49,4,4,0,0,1,.12,1.22c0,1.66,0,3.06-.15,4.19a11.29,11.29,0,0,1-.19,1.43.81.81,0,0,1-.31.49,2.23,2.23,0,0,0-.49.39.51.51,0,0,0-.1.34.76.76,0,0,0,.27.58,1.14,1.14,0,0,0,.76.24c.13,0,.34,0,.65,0s.87,0,1.61,0h1l1.27,0,1.42,0a4.07,4.07,0,0,0,3.21-1.22,3,3,0,0,0,.82-2.06,2.35,2.35,0,0,0-.54-1.58A3,3,0,0,0,77.17,24.68Zm-4.48-2.83a1,1,0,0,1,.11-.55.42.42,0,0,1,.38-.15.89.89,0,0,1,.79.4,2,2,0,0,1,.28,1.14A1.85,1.85,0,0,1,74,23.8a1,1,0,0,1-.85.36.38.38,0,0,1-.34-.16,1,1,0,0,1-.1-.54Zm.75,6.94a.58.58,0,0,1-.6-.34,3.91,3.91,0,0,1-.15-1.36v-.74a.89.89,0,0,1,.13-.54.63.63,0,0,1,.48-.15c.89,0,1.33.58,1.33,1.74C74.63,28.32,74.23,28.79,73.44,28.79Z"/><path class="cls-1" d="M91.44,19.73a5.3,5.3,0,0,0-1.76-.21,5.51,5.51,0,0,0-1.79.21.73.73,0,0,0-.56.68.5.5,0,0,0,.15.37,1.85,1.85,0,0,0,.56.33.81.81,0,0,1,.5.53A19.34,19.34,0,0,1,88.65,24v1.72a4.66,4.66,0,0,1-.08,1,1.78,1.78,0,0,1-.28.68,1.76,1.76,0,0,1-.78.63,2.75,2.75,0,0,1-1.13.23,2.26,2.26,0,0,1-1.61-.58,2.54,2.54,0,0,1-.73-2c0-1.51.07-2.49.07-2.94a3.53,3.53,0,0,1,.09-.95.56.56,0,0,1,.34-.4,3.46,3.46,0,0,0,.46-.24.63.63,0,0,0,.25-.53c0-.44-.28-.72-.84-.85a9.85,9.85,0,0,0-2.14-.19,10.06,10.06,0,0,0-2,.17,1.31,1.31,0,0,0-.69.32.67.67,0,0,0-.26.54,1,1,0,0,0,.51.75,1,1,0,0,1,.43.47,2.94,2.94,0,0,1,.09.89c0,.2,0,.61,0,1.22,0,.87,0,1.5,0,1.88A7,7,0,0,0,80.54,28a3.09,3.09,0,0,0,1,1.36,6.24,6.24,0,0,0,4,1.2,7.2,7.2,0,0,0,2.58-.43,3.72,3.72,0,0,0,2.44-2.19,8.11,8.11,0,0,0,.26-2.45v-1.9a18.25,18.25,0,0,1,.07-2c0-.18.2-.34.47-.5a2.1,2.1,0,0,0,.5-.34A.5.5,0,0,0,92,20.4.71.71,0,0,0,91.44,19.73Z"/><path class="cls-1" d="M104.08,19.64a7.83,7.83,0,0,0-1.76-.12c-1.59,0-2.39.29-2.39.88a.73.73,0,0,0,.16.48,1.92,1.92,0,0,1,.25.34.41.41,0,0,1,0,.21,1.11,1.11,0,0,1-.31.61,2.51,2.51,0,0,1-.4.43.53.53,0,0,1-.32.12c-.17,0-.36-.13-.55-.39a1.94,1.94,0,0,1-.44-.9.9.9,0,0,1,.25-.46.69.69,0,0,0,.17-.42.63.63,0,0,0-.23-.47,1.13,1.13,0,0,0-.59-.28,12.41,12.41,0,0,0-2.33-.16,10.18,10.18,0,0,0-2.64.23c-.53.15-.79.4-.79.75a.61.61,0,0,0,.22.5,2.67,2.67,0,0,0,.64.29,2.2,2.2,0,0,1,.78.54,19.77,19.77,0,0,1,1.82,2.07,4.08,4.08,0,0,1,.55.9,3.13,3.13,0,0,1,.12,1,7.64,7.64,0,0,1-.25,2.54.88.88,0,0,1-.55.4c-.4.14-.6.37-.6.7s.33.69,1,.83a11.28,11.28,0,0,0,2.44.25c2.09,0,3.14-.35,3.14-1.06,0-.3-.19-.54-.57-.74a1,1,0,0,1-.45-.37,1.45,1.45,0,0,1-.15-.66c0-.51-.07-1.07-.07-1.68a4,4,0,0,1,.26-1.62,8.83,8.83,0,0,1,1.32-1.69A14.62,14.62,0,0,1,103,21.48a1.8,1.8,0,0,1,.77-.34,1.53,1.53,0,0,0,.68-.25.6.6,0,0,0,.2-.48.75.75,0,0,0-.17-.47A.81.81,0,0,0,104.08,19.64Z"/><path class="cls-1" d="M122.06,19.65a6.08,6.08,0,0,0-1.63-.14,6.51,6.51,0,0,0-1.29.08c-.59.12-.89.4-.89.84a.71.71,0,0,0,.12.43,1.09,1.09,0,0,0,.43.32.9.9,0,0,1,.49.54,5,5,0,0,1,.12,1.34c0,.58-.14.87-.41.87s-.42-.16-.79-.48l-3.89-3.4a2,2,0,0,0-.67-.44,2.87,2.87,0,0,0-.91-.1,13,13,0,0,0-1.53.06c-.86.13-1.29.45-1.29.95a.59.59,0,0,0,.13.39,1.59,1.59,0,0,0,.49.34,1.24,1.24,0,0,1,.44.31,1.38,1.38,0,0,1,.22.5,13.05,13.05,0,0,1,.23,2.94,23.62,23.62,0,0,1-.13,2.9,1,1,0,0,1-.44.77,2.14,2.14,0,0,0-.5.36.64.64,0,0,0-.11.4.85.85,0,0,0,.59.78,3.76,3.76,0,0,0,1.63.28q2.34,0,2.34-1.08c0-.28-.18-.5-.52-.68a.93.93,0,0,1-.5-.58,6.08,6.08,0,0,1-.12-1.49c0-.88.16-1.32.47-1.32a1.36,1.36,0,0,1,.81.44l4.63,4.15a5.61,5.61,0,0,0,.58.47.82.82,0,0,0,.42.1c.37,0,.63-.25.77-.76a7.93,7.93,0,0,0,.16-2c0-.68,0-1.21,0-1.6V23.61a6.16,6.16,0,0,1,.22-1.95.55.55,0,0,1,.15-.24,1.63,1.63,0,0,1,.32-.18.82.82,0,0,0,.59-.76A.84.84,0,0,0,122.06,19.65Z"/><path class="cls-1" d="M132.82,20.6a5.65,5.65,0,0,0-3.51-1.15,6.57,6.57,0,0,0-2.36.41A5.37,5.37,0,0,0,123.37,25a5.45,5.45,0,0,0,.82,2.93A5.13,5.13,0,0,0,126.53,30a6.07,6.07,0,0,0,2.58.57,6.67,6.67,0,0,0,2.06-.33,5.68,5.68,0,0,0,2.69-1.77,5,5,0,0,0,1.22-3.3,5.5,5.5,0,0,0-.62-2.5A6,6,0,0,0,132.82,20.6Zm-2,7.21a1.16,1.16,0,0,1-1,.45,1.36,1.36,0,0,1-.73-.23,1.92,1.92,0,0,1-.59-.61,8.84,8.84,0,0,1-.91-2.06,7,7,0,0,1-.36-2,1.79,1.79,0,0,1,.3-1,1.17,1.17,0,0,1,1-.58,1.52,1.52,0,0,1,.79.28,2.75,2.75,0,0,1,.68.75,6.84,6.84,0,0,1,.79,1.87,7.39,7.39,0,0,1,.31,2A1.75,1.75,0,0,1,130.77,27.81Z"/><path class="cls-1" d="M151.6,19.68a3.35,3.35,0,0,0-1.18-.17,4.76,4.76,0,0,0-1.67.2.7.7,0,0,0-.51.67c0,.36.22.61.65.75a.41.41,0,0,1,.33.42,2.58,2.58,0,0,1-.15.7l-.38,1.09a3.83,3.83,0,0,1-.33.8.34.34,0,0,1-.6,0,6.23,6.23,0,0,1-.44-.83l-.44-.95a2.49,2.49,0,0,1-.3-.91.46.46,0,0,1,.2-.34,3.94,3.94,0,0,0,.41-.4.5.5,0,0,0,.07-.29.61.61,0,0,0-.16-.42,1,1,0,0,0-.42-.27,8.3,8.3,0,0,0-2.29-.24c-2,0-3,.33-3,1a.87.87,0,0,0,.57.75,1.17,1.17,0,0,1,.52.63l.23.55a.62.62,0,0,1,0,.16.56.56,0,0,1,0,.15l-.32.89q-.33.87-.63.87a.23.23,0,0,1-.19-.1q-.06-.11-.27-.57L141,23.1a5.51,5.51,0,0,1-.52-1.62.7.7,0,0,1,.09-.37,3.18,3.18,0,0,0,.23-.36.91.91,0,0,0,0-.27.76.76,0,0,0-.6-.77,7.56,7.56,0,0,0-2-.19c-1.82,0-2.73.36-2.73,1.1a.69.69,0,0,0,.4.68,2.54,2.54,0,0,1,.42.27,4.29,4.29,0,0,1,.24.54l2.88,7.35a2,2,0,0,0,.52.83,1.16,1.16,0,0,0,.77.23,1.2,1.2,0,0,0,.82-.23,2.61,2.61,0,0,0,.57-.95l1.06-2.64c.22-.54.37-.88.44-1a.35.35,0,0,1,.29-.2.21.21,0,0,1,.17.08,2,2,0,0,1,.18.38l1.55,3.67a1.43,1.43,0,0,0,.48.67,1.25,1.25,0,0,0,.76.21,1.13,1.13,0,0,0,.56-.12,1,1,0,0,0,.38-.39,7.81,7.81,0,0,0,.44-.87c.14-.32.55-1.33,1.23-3L151,22.48a6.89,6.89,0,0,1,.35-.84,1.25,1.25,0,0,1,.32-.38,2.37,2.37,0,0,0,.43-.44.71.71,0,0,0,.1-.39A.79.79,0,0,0,151.6,19.68Z"/><path class="cls-4" d="M77.17,23.68q-.33-.13-.33-.33c0-.12.09-.25.27-.4a2,2,0,0,0,.61-.81A2.58,2.58,0,0,0,78,21.09a2.16,2.16,0,0,0-.77-1.74,3,3,0,0,0-1.1-.57,7,7,0,0,0-1.68-.16h-1l-2.31.05c-.53,0-1,0-1.48,0l-.68,0a1.4,1.4,0,0,0-.8.22.69.69,0,0,0-.3.57c0,.28.17.49.51.64a1,1,0,0,1,.57.49,4,4,0,0,1,.12,1.22c0,1.66,0,3.06-.15,4.19a11.29,11.29,0,0,1-.19,1.43.81.81,0,0,1-.31.49,2.23,2.23,0,0,0-.49.39.51.51,0,0,0-.1.34.76.76,0,0,0,.27.58,1.14,1.14,0,0,0,.76.24c.13,0,.34,0,.65,0s.87,0,1.61,0h1l1.27,0,1.42,0a4.07,4.07,0,0,0,3.21-1.22,3,3,0,0,0,.82-2.06,2.35,2.35,0,0,0-.54-1.58A3,3,0,0,0,77.17,23.68Zm-4.48-2.83a1,1,0,0,1,.11-.55.42.42,0,0,1,.38-.15.89.89,0,0,1,.79.4,2,2,0,0,1,.28,1.14A1.85,1.85,0,0,1,74,22.8a1,1,0,0,1-.85.36.38.38,0,0,1-.34-.16,1,1,0,0,1-.1-.54Zm.75,6.94a.58.58,0,0,1-.6-.34,3.91,3.91,0,0,1-.15-1.36v-.74a.89.89,0,0,1,.13-.54.63.63,0,0,1,.48-.15c.89,0,1.33.58,1.33,1.74C74.63,27.32,74.23,27.79,73.44,27.79Z"/><path class="cls-4" d="M91.44,18.73a5.3,5.3,0,0,0-1.76-.21,5.51,5.51,0,0,0-1.79.21.73.73,0,0,0-.56.68.5.5,0,0,0,.15.37,1.85,1.85,0,0,0,.56.33.81.81,0,0,1,.5.53A19.34,19.34,0,0,1,88.65,23v1.72a4.66,4.66,0,0,1-.08,1,1.78,1.78,0,0,1-.28.68,1.76,1.76,0,0,1-.78.63,2.75,2.75,0,0,1-1.13.23,2.26,2.26,0,0,1-1.61-.58,2.54,2.54,0,0,1-.73-2c0-1.51.07-2.49.07-2.94a3.53,3.53,0,0,1,.09-.95.56.56,0,0,1,.34-.4,3.46,3.46,0,0,0,.46-.24.63.63,0,0,0,.25-.53c0-.44-.28-.72-.84-.85a9.85,9.85,0,0,0-2.14-.19,10.06,10.06,0,0,0-2,.17,1.31,1.31,0,0,0-.69.32.67.67,0,0,0-.26.54,1,1,0,0,0,.51.75,1,1,0,0,1,.43.47,2.94,2.94,0,0,1,.09.89c0,.2,0,.61,0,1.22,0,.87,0,1.5,0,1.88A7,7,0,0,0,80.54,27a3.09,3.09,0,0,0,1,1.36,6.24,6.24,0,0,0,4,1.2,7.2,7.2,0,0,0,2.58-.43,3.72,3.72,0,0,0,2.44-2.19,8.11,8.11,0,0,0,.26-2.45v-1.9a18.25,18.25,0,0,1,.07-2c0-.18.2-.34.47-.5a2.1,2.1,0,0,0,.5-.34A.5.5,0,0,0,92,19.4.71.71,0,0,0,91.44,18.73Z"/><path class="cls-4" d="M104.08,18.64a7.83,7.83,0,0,0-1.76-.12c-1.59,0-2.39.29-2.39.88a.73.73,0,0,0,.16.48,1.92,1.92,0,0,1,.25.34.41.41,0,0,1,0,.21,1.11,1.11,0,0,1-.31.61,2.51,2.51,0,0,1-.4.43.53.53,0,0,1-.32.12c-.17,0-.36-.13-.55-.39a1.94,1.94,0,0,1-.44-.9.9.9,0,0,1,.25-.46.69.69,0,0,0,.17-.42.63.63,0,0,0-.23-.47,1.13,1.13,0,0,0-.59-.28,12.41,12.41,0,0,0-2.33-.16,10.18,10.18,0,0,0-2.64.23c-.53.15-.79.4-.79.75a.61.61,0,0,0,.22.5,2.67,2.67,0,0,0,.64.29,2.2,2.2,0,0,1,.78.54,19.77,19.77,0,0,1,1.82,2.07,4.08,4.08,0,0,1,.55.9,3.13,3.13,0,0,1,.12,1,7.64,7.64,0,0,1-.25,2.54.88.88,0,0,1-.55.4c-.4.14-.6.37-.6.7s.33.69,1,.83a11.28,11.28,0,0,0,2.44.25c2.09,0,3.14-.35,3.14-1.06,0-.3-.19-.54-.57-.74a1,1,0,0,1-.45-.37,1.45,1.45,0,0,1-.15-.66c0-.51-.07-1.07-.07-1.68a4,4,0,0,1,.26-1.62,8.83,8.83,0,0,1,1.32-1.69A14.62,14.62,0,0,1,103,20.48a1.8,1.8,0,0,1,.77-.34,1.53,1.53,0,0,0,.68-.25.6.6,0,0,0,.2-.48.75.75,0,0,0-.17-.47A.81.81,0,0,0,104.08,18.64Z"/><path class="cls-4" d="M122.06,18.65a6.08,6.08,0,0,0-1.63-.14,6.51,6.51,0,0,0-1.29.08c-.59.12-.89.4-.89.84a.71.71,0,0,0,.12.43,1.09,1.09,0,0,0,.43.32.9.9,0,0,1,.49.54,5,5,0,0,1,.12,1.34c0,.58-.14.87-.41.87s-.42-.16-.79-.48l-3.89-3.4a2,2,0,0,0-.67-.44,2.87,2.87,0,0,0-.91-.1,13,13,0,0,0-1.53.06c-.86.13-1.29.45-1.29.95a.59.59,0,0,0,.13.39,1.59,1.59,0,0,0,.49.34,1.24,1.24,0,0,1,.44.31,1.38,1.38,0,0,1,.22.5,13.05,13.05,0,0,1,.23,2.94,23.62,23.62,0,0,1-.13,2.9,1,1,0,0,1-.44.77,2.14,2.14,0,0,0-.5.36.64.64,0,0,0-.11.4.85.85,0,0,0,.59.78,3.76,3.76,0,0,0,1.63.28q2.34,0,2.34-1.08c0-.28-.18-.5-.52-.68a.93.93,0,0,1-.5-.58,6.08,6.08,0,0,1-.12-1.49c0-.88.16-1.32.47-1.32a1.36,1.36,0,0,1,.81.44l4.63,4.15a5.61,5.61,0,0,0,.58.47.82.82,0,0,0,.42.1c.37,0,.63-.25.77-.76a7.93,7.93,0,0,0,.16-2c0-.68,0-1.21,0-1.6V22.61a6.16,6.16,0,0,1,.22-1.95.55.55,0,0,1,.15-.24,1.63,1.63,0,0,1,.32-.18.82.82,0,0,0,.59-.76A.84.84,0,0,0,122.06,18.65Z"/><path class="cls-4" d="M132.82,19.6a5.65,5.65,0,0,0-3.51-1.15,6.57,6.57,0,0,0-2.36.41A5.37,5.37,0,0,0,123.37,24a5.45,5.45,0,0,0,.82,2.93A5.13,5.13,0,0,0,126.53,29a6.07,6.07,0,0,0,2.58.57,6.67,6.67,0,0,0,2.06-.33,5.68,5.68,0,0,0,2.69-1.77,5,5,0,0,0,1.22-3.3,5.5,5.5,0,0,0-.62-2.5A6,6,0,0,0,132.82,19.6Zm-2,7.21a1.16,1.16,0,0,1-1,.45,1.36,1.36,0,0,1-.73-.23,1.92,1.92,0,0,1-.59-.61,8.84,8.84,0,0,1-.91-2.06,7,7,0,0,1-.36-2,1.79,1.79,0,0,1,.3-1,1.17,1.17,0,0,1,1-.58,1.52,1.52,0,0,1,.79.28,2.75,2.75,0,0,1,.68.75,6.84,6.84,0,0,1,.79,1.87,7.39,7.39,0,0,1,.31,2A1.75,1.75,0,0,1,130.77,26.81Z"/><path class="cls-4" d="M151.6,18.68a3.35,3.35,0,0,0-1.18-.17,4.76,4.76,0,0,0-1.67.2.7.7,0,0,0-.51.67c0,.36.22.61.65.75a.41.41,0,0,1,.33.42,2.58,2.58,0,0,1-.15.7l-.38,1.09a3.83,3.83,0,0,1-.33.8.34.34,0,0,1-.6,0,6.23,6.23,0,0,1-.44-.83l-.44-.95a2.49,2.49,0,0,1-.3-.91.46.46,0,0,1,.2-.34,3.94,3.94,0,0,0,.41-.4.5.5,0,0,0,.07-.29.61.61,0,0,0-.16-.42,1,1,0,0,0-.42-.27,8.3,8.3,0,0,0-2.29-.24c-2,0-3,.33-3,1a.87.87,0,0,0,.57.75,1.17,1.17,0,0,1,.52.63l.23.55a.62.62,0,0,1,0,.16.56.56,0,0,1,0,.15l-.32.89q-.33.87-.63.87a.23.23,0,0,1-.19-.1q-.06-.11-.27-.57L141,22.1a5.51,5.51,0,0,1-.52-1.62.7.7,0,0,1,.09-.37,3.18,3.18,0,0,0,.23-.36.91.91,0,0,0,0-.27.76.76,0,0,0-.6-.77,7.56,7.56,0,0,0-2-.19c-1.82,0-2.73.36-2.73,1.1a.69.69,0,0,0,.4.68,2.54,2.54,0,0,1,.42.27,4.29,4.29,0,0,1,.24.54l2.88,7.35a2,2,0,0,0,.52.83,1.16,1.16,0,0,0,.77.23,1.2,1.2,0,0,0,.82-.23,2.61,2.61,0,0,0,.57-.95l1.06-2.64c.22-.54.37-.88.44-1a.35.35,0,0,1,.29-.2.21.21,0,0,1,.17.08,2,2,0,0,1,.18.38l1.55,3.67a1.43,1.43,0,0,0,.48.67,1.25,1.25,0,0,0,.76.21,1.13,1.13,0,0,0,.56-.12,1,1,0,0,0,.38-.39,7.81,7.81,0,0,0,.44-.87c.14-.32.55-1.33,1.23-3L151,21.48a6.89,6.89,0,0,1,.35-.84,1.25,1.25,0,0,1,.32-.38,2.37,2.37,0,0,0,.43-.44.71.71,0,0,0,.1-.39A.79.79,0,0,0,151.6,18.68Z"/></svg>