<svg xmlns="http://www.w3.org/2000/svg" xmlns:xlink="http://www.w3.org/1999/xlink" viewBox="0 0 72 74"><defs><style>.cls-1{isolation:isolate;}.cls-2{fill:#b1482a;opacity:0.24;mix-blend-mode:multiply;}.cls-3{fill:#17608e;}.cls-4{fill:url(#linear-gradient);}.cls-5{fill:#041f47;}.cls-6{fill:#fff;}.cls-7{fill:#1b74b5;}</style><linearGradient id="linear-gradient" x1="36" y1="71.04" x2="36" y2="0.96" gradientUnits="userSpaceOnUse"><stop offset="0" stop-color="#046bae"/><stop offset="1" stop-color="#0fe1ee"/></linearGradient></defs><title>socialArtboard 86</title><g class="cls-1"><g id="Layer_1" data-name="Layer 1"><path class="cls-2" d="M43.71,2H28.29A28.28,28.28,0,0,0,0,30.29V45.71A28.28,28.28,0,0,0,28.29,74H43.71A28.28,28.28,0,0,0,72,45.71V30.29A28.28,28.28,0,0,0,43.71,2ZM71,45.71c0,15.07-12.26,24.35-27.33,24.35H28.29C13.22,70.06,1,60.78,1,45.71V30.29A27.36,27.36,0,0,1,28.29,3H43.71A27.36,27.36,0,0,1,71,30.29Z"/><path class="cls-3" d="M43.71,0H28.29A28.28,28.28,0,0,0,0,28.29V43.71A28.28,28.28,0,0,0,28.29,72H43.71A28.28,28.28,0,0,0,72,43.71V28.29A28.28,28.28,0,0,0,43.71,0ZM71,43.71A27.36,27.36,0,0,1,43.71,71H28.29A27.36,27.36,0,0,1,1,43.71V28.29A27.36,27.36,0,0,1,28.29,1H43.71A27.36,27.36,0,0,1,71,28.29Z"/><path class="cls-4" d="M43.71,1H28.29A27.36,27.36,0,0,0,1,28.29V43.71A27.36,27.36,0,0,0,28.29,71H43.71A27.36,27.36,0,0,0,71,43.71V28.29A27.36,27.36,0,0,0,43.71,1ZM66.86,43.71A23.17,23.17,0,0,1,43.71,66.86H28.29A23.17,23.17,0,0,1,5.14,43.71V28.29A23.17,23.17,0,0,1,28.29,5.14H43.71A23.17,23.17,0,0,1,66.86,28.29Z"/><path class="cls-5" d="M64.29,28.28V43.71A20.53,20.53,0,0,1,54,61.51a2,2,0,0,1-.19.12A20.24,20.24,0,0,1,46,64.16c-.46,0-.93.09-1.4.11H27.41c-.48,0-.95-.06-1.41-.11a20.33,20.33,0,0,1-4.07-.88h0l-.45-.16A20.6,20.6,0,0,1,7.71,43.71V28.28A20.6,20.6,0,0,1,28.29,7.71H43.71A20.6,20.6,0,0,1,64.29,28.28Z"/><path class="cls-6" d="M44.82,18.28H40c-5.39,0-8.87,3.48-8.87,8.86v4.09H26.32a.74.74,0,0,0-.75.73v5.92a.74.74,0,0,0,.75.73h4.83V53.54a.74.74,0,0,0,.75.73h6.29a.75.75,0,0,0,.76-.73V38.6h5.64a.74.74,0,0,0,.75-.73V32a.73.73,0,0,0-.75-.73H39V27.75c0-1.66.41-2.5,2.63-2.5h3.23a.74.74,0,0,0,.76-.73V19A.74.74,0,0,0,44.82,18.28Z"/><path class="cls-7" d="M43.71,5.14H28.29A23.17,23.17,0,0,0,5.14,28.29V43.71A23.17,23.17,0,0,0,28.29,66.86H43.71A23.17,23.17,0,0,0,66.86,43.71V28.29A23.17,23.17,0,0,0,43.71,5.14ZM64.29,43.71A20.53,20.53,0,0,1,54,61.51a2,2,0,0,1-.19.12A20.24,20.24,0,0,1,46,64.16c-.46,0-.93.09-1.4.11H27.4c-.47,0-.94-.06-1.4-.11a20.33,20.33,0,0,1-4.07-.88h0l-.45-.16A20.6,20.6,0,0,1,7.71,43.71V28.28A20.6,20.6,0,0,1,28.29,7.71H43.71A20.6,20.6,0,0,1,64.29,28.28Z"/></g></g></svg>