<svg xmlns="http://www.w3.org/2000/svg" xmlns:xlink="http://www.w3.org/1999/xlink" viewBox="0 0 72 74"><defs><style>.cls-1{isolation:isolate;}.cls-2{fill:#b1482a;opacity:0.24;mix-blend-mode:multiply;}.cls-3{fill:#8c1818;}.cls-4{fill:url(#linear-gradient);}.cls-5{fill:#440404;}.cls-6{fill:#fff;}.cls-7{fill:#b21d1d;}</style><linearGradient id="linear-gradient" x1="36" y1="71.04" x2="36" y2="0.96" gradientUnits="userSpaceOnUse"><stop offset="0" stop-color="#f34a38"/><stop offset="1" stop-color="#f47373"/></linearGradient></defs><title>socialArtboard 85</title><g class="cls-1"><g id="Layer_1" data-name="Layer 1"><path class="cls-2" d="M43.71,2H28.29A28.28,28.28,0,0,0,0,30.29V45.71A28.28,28.28,0,0,0,28.29,74H43.71A28.28,28.28,0,0,0,72,45.71V30.29A28.28,28.28,0,0,0,43.71,2ZM71,45.71c0,15.07-12.26,22.35-27.33,22.35H28.29C13.22,68.06,1,60.78,1,45.71V30.29A27.36,27.36,0,0,1,28.29,3H43.71A27.36,27.36,0,0,1,71,30.29Z"/><path class="cls-3" d="M43.71,0H28.29A28.28,28.28,0,0,0,0,28.29V43.71A28.28,28.28,0,0,0,28.29,72H43.71A28.28,28.28,0,0,0,72,43.71V28.29A28.28,28.28,0,0,0,43.71,0ZM71,43.71A27.36,27.36,0,0,1,43.71,71H28.29A27.36,27.36,0,0,1,1,43.71V28.29A27.36,27.36,0,0,1,28.29,1H43.71A27.36,27.36,0,0,1,71,28.29Z"/><path class="cls-4" d="M43.71,1H28.29A27.36,27.36,0,0,0,1,28.29V43.71A27.36,27.36,0,0,0,28.29,71H43.71A27.36,27.36,0,0,0,71,43.71V28.29A27.36,27.36,0,0,0,43.71,1ZM66.86,43.71A23.17,23.17,0,0,1,43.71,66.86H28.29A23.17,23.17,0,0,1,5.14,43.71V28.29A23.17,23.17,0,0,1,28.29,5.14H43.71A23.17,23.17,0,0,1,66.86,28.29Z"/><path class="cls-5" d="M64.29,28.28V43.71A20.53,20.53,0,0,1,54,61.51a2,2,0,0,1-.19.12A20.24,20.24,0,0,1,46,64.16c-.46,0-.93.09-1.4.11H27.41c-.48,0-.95-.06-1.41-.11a20.33,20.33,0,0,1-4.07-.88h0l-.45-.16A20.6,20.6,0,0,1,7.71,43.71V28.28A20.6,20.6,0,0,1,28.29,7.71H43.71A20.6,20.6,0,0,1,64.29,28.28Z"/><path class="cls-6" d="M32.26,38.81h5.63a7.2,7.2,0,0,1-6.8,5,7.45,7.45,0,0,1,.06-14.89,6.93,6.93,0,0,1,4.79,1.93.75.75,0,0,0,1.06,0l2.06-2a.82.82,0,0,0,0-1.17,11.29,11.29,0,0,0-7.69-3.28C25,24.21,19.67,29.63,19.63,36.25A11.77,11.77,0,0,0,31.15,48.33,11.74,11.74,0,0,0,42.65,37c0-.08,0-2.75,0-2.75H32.26a.78.78,0,0,0-.77.8V38A.78.78,0,0,0,32.26,38.81Z"/><path class="cls-6" d="M52.19,34.52V31.64a.69.69,0,0,0-.68-.7H49.19a.69.69,0,0,0-.68.7v2.88H45.75a.7.7,0,0,0-.68.71v2.42a.7.7,0,0,0,.68.71h2.76v2.87a.7.7,0,0,0,.68.71h2.32a.69.69,0,0,0,.68-.71V38.36H55a.69.69,0,0,0,.68-.71V35.23a.69.69,0,0,0-.68-.71Z"/><path class="cls-7" d="M43.71,5.14H28.29A23.17,23.17,0,0,0,5.14,28.29V43.71A23.17,23.17,0,0,0,28.29,66.86H43.71A23.17,23.17,0,0,0,66.86,43.71V28.29A23.17,23.17,0,0,0,43.71,5.14ZM64.29,43.71A20.53,20.53,0,0,1,54,61.51a2,2,0,0,1-.19.12A20.24,20.24,0,0,1,46,64.16c-.46,0-.93.09-1.4.11H27.4c-.47,0-.94-.06-1.4-.11a20.33,20.33,0,0,1-4.07-.88h0l-.45-.16A20.6,20.6,0,0,1,7.71,43.71V28.28A20.6,20.6,0,0,1,28.29,7.71H43.71A20.6,20.6,0,0,1,64.29,28.28Z"/></g></g></svg>