<svg id="Layer_1" data-name="Layer 1" xmlns="http://www.w3.org/2000/svg" xmlns:xlink="http://www.w3.org/1999/xlink" viewBox="0 0 220 48"><defs><style>.cls-1{fill:#17608e;}.cls-2{fill:url(#linear-gradient);}.cls-3{fill:#5fddec;}.cls-4{fill:#fff;}.cls-5{fill:#33b5d4;}</style><linearGradient id="linear-gradient" x1="110" y1="46" x2="110" y2="2" gradientUnits="userSpaceOnUse"><stop offset="0" stop-color="#046bae"/><stop offset="1" stop-color="#0fe1ee"/></linearGradient></defs><title>buttonArtboard 66</title><path class="cls-1" d="M24,48A24,24,0,0,1,24,0H196a24,24,0,0,1,0,48Z"/><rect class="cls-2" x="2" y="2" width="216" height="44" rx="22"/><path class="cls-3" d="M24,40A16,16,0,0,1,24,8H196a16,16,0,0,1,0,32Z"/><ellipse class="cls-4" cx="13.18" cy="12.54" rx="6" ry="2.3" transform="translate(-5.01 12.99) rotate(-45)"/><path class="cls-5" d="M137.25,16.74a7.7,7.7,0,0,0-2.23-.23,8.06,8.06,0,0,0-1.69.12,3,3,0,0,0-2.24,1.65l-.85-.73a4.16,4.16,0,0,0-1.34-.84,4.85,4.85,0,0,0-1.56-.2,13.6,13.6,0,0,0-1.83.08,5.1,5.1,0,0,0-1.27.36,4.4,4.4,0,0,0-.82-.25,10.62,10.62,0,0,0-2.07-.19,12.24,12.24,0,0,0-2.35.23,5,5,0,0,0-1.82.62,1.93,1.93,0,0,0-.28.22,2.86,2.86,0,0,0-2.11-.94,3.1,3.1,0,0,0-1,.17,8.38,8.38,0,0,0-2.47-.36,8.23,8.23,0,0,0-3.81.88A7.54,7.54,0,0,0,105,19.42,8,8,0,0,0,103.58,18a7.66,7.66,0,0,0-4.73-1.56,8.41,8.41,0,0,0-3.06.54,7.39,7.39,0,0,0-3.43,2.54,7.29,7.29,0,0,0-1.42,4.13,2.5,2.5,0,0,0-1.19.8V21.69a2.21,2.21,0,0,0,.47-.35A2.49,2.49,0,0,0,91,19.52a2.91,2.91,0,0,0-2.56-2.81,14.08,14.08,0,0,0-2.67-.19,9,9,0,0,0-2.76.35,2.87,2.87,0,0,0-2.34,2.77,2.54,2.54,0,0,0,1,2,3.07,3.07,0,0,0,.4.26c0,.42,0,1,0,1.65,0,.88,0,1.55,0,2s0,.69,0,.9a3.65,3.65,0,0,0-.58.44,2.43,2.43,0,0,0-.69,1.74A2.59,2.59,0,0,0,82.17,31a3.42,3.42,0,0,0,1.74.39h5.34l1.74.21h.12A2.73,2.73,0,0,0,92.73,31a3.75,3.75,0,0,0,.87-1c0-.06.06-.12.1-.18a7.33,7.33,0,0,0,1.54.95,8.08,8.08,0,0,0,3.42.75,8.87,8.87,0,0,0,2.67-.43,7.67,7.67,0,0,0,3.61-2.39l.08-.12a7.44,7.44,0,0,0,2.26,1.9,8.49,8.49,0,0,0,6.74.61,7,7,0,0,0,2.28-1.26l.07-.07c.47.88,1.61,1.7,4.25,1.7a12.63,12.63,0,0,0,3-.31,4.62,4.62,0,0,0,.77-.26l.18.1a5.75,5.75,0,0,0,2.5.47c3.15,0,4-1.39,4.26-2.42l1.51,1.34a5.12,5.12,0,0,0,.92.72,2.78,2.78,0,0,0,4.11-1.85,9.26,9.26,0,0,0,.24-2.54c0-.67,0-1.2,0-1.58V22.62c0-.38,0-.65,0-.84a2.75,2.75,0,0,0,1.25-2.3A2.83,2.83,0,0,0,137.25,16.74Z"/><path class="cls-1" d="M91.7,26.53c-.27,0-.45.17-.53.51a2,2,0,0,1-.72,1.22,2.26,2.26,0,0,1-1.4.39A1.19,1.19,0,0,1,88,28.23a3.6,3.6,0,0,1-.21-1.56V23.09a7.7,7.7,0,0,1,.08-1.4.62.62,0,0,1,.37-.46,2.33,2.33,0,0,0,.63-.33.49.49,0,0,0,.13-.38c0-.43-.32-.71-1-.85a12.48,12.48,0,0,0-2.26-.15,7.43,7.43,0,0,0-2.16.25c-.63.2-.94.49-.94.87a.55.55,0,0,0,.25.45,3.34,3.34,0,0,0,.65.29.57.57,0,0,1,.41.33,2.35,2.35,0,0,1,.1.85c0,.44,0,1.09,0,2s0,1.59,0,2.07A8.76,8.76,0,0,1,84,28.45a1,1,0,0,1-.57.6,2.2,2.2,0,0,0-.51.3.44.44,0,0,0-.1.32.57.57,0,0,0,.32.54,1.62,1.62,0,0,0,.75.13h5.47l1.73.21a.69.69,0,0,0,.41-.13,1.92,1.92,0,0,0,.4-.48,3.86,3.86,0,0,0,.72-2.07,1.68,1.68,0,0,0-.26-1A.82.82,0,0,0,91.7,26.53Z"/><path class="cls-1" d="M102.36,20.6a5.65,5.65,0,0,0-3.51-1.15,6.61,6.61,0,0,0-2.36.41A5.37,5.37,0,0,0,92.91,25a5.53,5.53,0,0,0,.82,2.93A5.24,5.24,0,0,0,96.07,30a6.08,6.08,0,0,0,2.59.57,6.66,6.66,0,0,0,2-.33,5.76,5.76,0,0,0,2.7-1.77,5,5,0,0,0,1.22-3.3,5.63,5.63,0,0,0-.62-2.5A5.89,5.89,0,0,0,102.36,20.6Zm-2,7.21a1.19,1.19,0,0,1-1,.45,1.31,1.31,0,0,1-.72-.23,1.84,1.84,0,0,1-.6-.61,8.84,8.84,0,0,1-.91-2.06,7,7,0,0,1-.36-2,1.79,1.79,0,0,1,.3-1,1.18,1.18,0,0,1,1-.58,1.46,1.46,0,0,1,.79.28,2.78,2.78,0,0,1,.69.75,7.52,7.52,0,0,1,.79,1.87,7.75,7.75,0,0,1,.3,2A1.78,1.78,0,0,1,100.32,27.81Z"/><path class="cls-1" d="M116.69,25a7.83,7.83,0,0,0-2.22-.27,7.24,7.24,0,0,0-2.18.29c-.57.19-.86.49-.86.92a.74.74,0,0,0,.22.55.79.79,0,0,0,.56.21h.45a.48.48,0,0,1,.16.08.59.59,0,0,1,.22.53,1,1,0,0,1-.26.69.9.9,0,0,1-.67.27,2,2,0,0,1-1-.28,2.87,2.87,0,0,1-.86-.77,5.22,5.22,0,0,1-1-3.18,3.1,3.1,0,0,1,.6-2,2,2,0,0,1,1.62-.74,2.49,2.49,0,0,1,2,1.06,7.35,7.35,0,0,0,.65.73,1.47,1.47,0,0,0,.89.33,1.11,1.11,0,0,0,.9-.42,1.66,1.66,0,0,0,.34-1.08,2.92,2.92,0,0,0-.64-1.81,1.1,1.1,0,0,0-.84-.52,1,1,0,0,0-.34.06,2.58,2.58,0,0,1-.65.18,2.28,2.28,0,0,1-.56-.14,6.34,6.34,0,0,0-1.93-.29,6.17,6.17,0,0,0-2.9.66,5.41,5.41,0,0,0-2.28,2.11,5.12,5.12,0,0,0-.76,2.69,5.48,5.48,0,0,0,2.87,4.85,6.48,6.48,0,0,0,3.14.79,6.3,6.3,0,0,0,2-.32,5.06,5.06,0,0,0,1.62-.89,4.06,4.06,0,0,0,1.31-2.08,1,1,0,0,1,.17-.4.66.66,0,0,1,.36-.13.77.77,0,0,0,.5-.24.7.7,0,0,0,.2-.49C117.54,25.54,117.25,25.22,116.69,25Z"/><path class="cls-1" d="M123.45,21.23a2,2,0,0,0,.54-.33.48.48,0,0,0,.1-.34c0-.46-.35-.76-1.06-.9a9,9,0,0,0-1.68-.15,10,10,0,0,0-2,.19,4,4,0,0,0-1.15.36.59.59,0,0,0-.32.53A.52.52,0,0,0,118,21a1.56,1.56,0,0,0,.43.35,1.22,1.22,0,0,1,.52.58,10.07,10.07,0,0,1,.2,2.57,29.23,29.23,0,0,1-.15,3.78.88.88,0,0,1-.45.64c-.33.2-.5.42-.5.65,0,.65.85,1,2.55,1a10.72,10.72,0,0,0,2.52-.25c.64-.15,1-.44,1-.86a.75.75,0,0,0-.51-.68,1.45,1.45,0,0,1-.4-.26.71.71,0,0,1-.16-.35,25.5,25.5,0,0,1-.15-3.69A16.92,16.92,0,0,1,123,22,1,1,0,0,1,123.45,21.23Z"/><path class="cls-1" d="M136.66,19.65a6.16,6.16,0,0,0-1.64-.14,6.39,6.39,0,0,0-1.28.08q-.9.18-.9.84a.71.71,0,0,0,.13.43,1.09,1.09,0,0,0,.43.32.9.9,0,0,1,.49.54,5,5,0,0,1,.12,1.34c0,.58-.14.87-.41.87s-.42-.16-.79-.48l-3.89-3.4a2,2,0,0,0-.67-.44,2.91,2.91,0,0,0-.91-.1,13.37,13.37,0,0,0-1.54.06c-.85.13-1.28.45-1.28.95a.59.59,0,0,0,.13.39,1.47,1.47,0,0,0,.49.34,1.35,1.35,0,0,1,.44.31,1.38,1.38,0,0,1,.22.5A13.68,13.68,0,0,1,126,25a23.62,23.62,0,0,1-.13,2.9,1,1,0,0,1-.45.77A2,2,0,0,0,125,29a.64.64,0,0,0-.11.4.86.86,0,0,0,.58.78,3.84,3.84,0,0,0,1.64.28q2.34,0,2.34-1.08c0-.28-.18-.5-.53-.68a.91.91,0,0,1-.49-.58,6.08,6.08,0,0,1-.12-1.49c0-.88.15-1.32.47-1.32a1.39,1.39,0,0,1,.81.44l4.63,4.15a4.69,4.69,0,0,0,.58.47.82.82,0,0,0,.42.1c.37,0,.62-.25.77-.76a8.45,8.45,0,0,0,.16-2c0-.68,0-1.21,0-1.6V23.61a6.16,6.16,0,0,1,.22-1.95.55.55,0,0,1,.15-.24,1.37,1.37,0,0,1,.32-.18.82.82,0,0,0,.59-.76A.84.84,0,0,0,136.66,19.65Z"/><path class="cls-4" d="M91.7,25.53c-.27,0-.45.17-.53.51a2,2,0,0,1-.72,1.22,2.26,2.26,0,0,1-1.4.39A1.19,1.19,0,0,1,88,27.23a3.6,3.6,0,0,1-.21-1.56V22.09a7.7,7.7,0,0,1,.08-1.4.62.62,0,0,1,.37-.46,2.33,2.33,0,0,0,.63-.33.49.49,0,0,0,.13-.38c0-.43-.32-.71-1-.85a12.48,12.48,0,0,0-2.26-.15,7.43,7.43,0,0,0-2.16.25c-.63.2-.94.49-.94.87a.55.55,0,0,0,.25.45,3.34,3.34,0,0,0,.65.29.57.57,0,0,1,.41.33,2.35,2.35,0,0,1,.1.85c0,.44,0,1.09,0,2s0,1.59,0,2.07A8.76,8.76,0,0,1,84,27.45a1,1,0,0,1-.57.6,2.2,2.2,0,0,0-.51.3.44.44,0,0,0-.1.32.57.57,0,0,0,.32.54,1.62,1.62,0,0,0,.75.13h5.47l1.73.21a.69.69,0,0,0,.41-.13,1.92,1.92,0,0,0,.4-.48,3.86,3.86,0,0,0,.72-2.07,1.68,1.68,0,0,0-.26-1A.82.82,0,0,0,91.7,25.53Z"/><path class="cls-4" d="M102.36,19.6a5.65,5.65,0,0,0-3.51-1.15,6.61,6.61,0,0,0-2.36.41A5.37,5.37,0,0,0,92.91,24a5.53,5.53,0,0,0,.82,2.93A5.24,5.24,0,0,0,96.07,29a6.08,6.08,0,0,0,2.59.57,6.66,6.66,0,0,0,2-.33,5.76,5.76,0,0,0,2.7-1.77,5,5,0,0,0,1.22-3.3,5.63,5.63,0,0,0-.62-2.5A5.89,5.89,0,0,0,102.36,19.6Zm-2,7.21a1.19,1.19,0,0,1-1,.45,1.31,1.31,0,0,1-.72-.23,1.84,1.84,0,0,1-.6-.61,8.84,8.84,0,0,1-.91-2.06,7,7,0,0,1-.36-2,1.79,1.79,0,0,1,.3-1,1.18,1.18,0,0,1,1-.58,1.46,1.46,0,0,1,.79.28,2.78,2.78,0,0,1,.69.75,7.52,7.52,0,0,1,.79,1.87,7.75,7.75,0,0,1,.3,2A1.78,1.78,0,0,1,100.32,26.81Z"/><path class="cls-4" d="M116.69,24a7.83,7.83,0,0,0-2.22-.27,7.24,7.24,0,0,0-2.18.29c-.57.19-.86.49-.86.92a.74.74,0,0,0,.22.55.79.79,0,0,0,.56.21h.45a.48.48,0,0,1,.16.08.59.59,0,0,1,.22.53,1,1,0,0,1-.26.69.9.9,0,0,1-.67.27,2,2,0,0,1-1-.28,2.87,2.87,0,0,1-.86-.77,5.22,5.22,0,0,1-1-3.18,3.1,3.1,0,0,1,.6-2,2,2,0,0,1,1.62-.74,2.49,2.49,0,0,1,2,1.06,7.35,7.35,0,0,0,.65.73,1.47,1.47,0,0,0,.89.33,1.11,1.11,0,0,0,.9-.42,1.66,1.66,0,0,0,.34-1.08,2.92,2.92,0,0,0-.64-1.81,1.1,1.1,0,0,0-.84-.52,1,1,0,0,0-.34.06,2.58,2.58,0,0,1-.65.18,2.28,2.28,0,0,1-.56-.14,6.34,6.34,0,0,0-1.93-.29,6.17,6.17,0,0,0-2.9.66,5.41,5.41,0,0,0-2.28,2.11,5.12,5.12,0,0,0-.76,2.69,5.48,5.48,0,0,0,2.87,4.85,6.48,6.48,0,0,0,3.14.79,6.3,6.3,0,0,0,2-.32,5.06,5.06,0,0,0,1.62-.89,4.06,4.06,0,0,0,1.31-2.08,1,1,0,0,1,.17-.4.66.66,0,0,1,.36-.13.77.77,0,0,0,.5-.24.7.7,0,0,0,.2-.49C117.54,24.54,117.25,24.22,116.69,24Z"/><path class="cls-4" d="M123.45,20.23a2,2,0,0,0,.54-.33.48.48,0,0,0,.1-.34c0-.46-.35-.76-1.06-.9a9,9,0,0,0-1.68-.15,10,10,0,0,0-2,.19,4,4,0,0,0-1.15.36.59.59,0,0,0-.32.53A.52.52,0,0,0,118,20a1.56,1.56,0,0,0,.43.35,1.22,1.22,0,0,1,.52.58,10.07,10.07,0,0,1,.2,2.57,29.23,29.23,0,0,1-.15,3.78.88.88,0,0,1-.45.64c-.33.2-.5.42-.5.65,0,.65.85,1,2.55,1a10.72,10.72,0,0,0,2.52-.25c.64-.15,1-.44,1-.86a.75.75,0,0,0-.51-.68,1.45,1.45,0,0,1-.4-.26.71.71,0,0,1-.16-.35,25.5,25.5,0,0,1-.15-3.69A16.92,16.92,0,0,1,123,21,1,1,0,0,1,123.45,20.23Z"/><path class="cls-4" d="M136.66,18.65a6.16,6.16,0,0,0-1.64-.14,6.39,6.39,0,0,0-1.28.08q-.9.18-.9.84a.71.71,0,0,0,.13.43,1.09,1.09,0,0,0,.43.32.9.9,0,0,1,.49.54,5,5,0,0,1,.12,1.34c0,.58-.14.87-.41.87s-.42-.16-.79-.48l-3.89-3.4a2,2,0,0,0-.67-.44,2.91,2.91,0,0,0-.91-.1,13.37,13.37,0,0,0-1.54.06c-.85.13-1.28.45-1.28.95a.59.59,0,0,0,.13.39,1.47,1.47,0,0,0,.49.34,1.35,1.35,0,0,1,.44.31,1.38,1.38,0,0,1,.22.5A13.68,13.68,0,0,1,126,24a23.62,23.62,0,0,1-.13,2.9,1,1,0,0,1-.45.77A2,2,0,0,0,125,28a.64.64,0,0,0-.11.4.86.86,0,0,0,.58.78,3.84,3.84,0,0,0,1.64.28q2.34,0,2.34-1.08c0-.28-.18-.5-.53-.68a.91.91,0,0,1-.49-.58,6.08,6.08,0,0,1-.12-1.49c0-.88.15-1.32.47-1.32a1.39,1.39,0,0,1,.81.44l4.63,4.15a4.69,4.69,0,0,0,.58.47.82.82,0,0,0,.42.1c.37,0,.62-.25.77-.76a8.45,8.45,0,0,0,.16-2c0-.68,0-1.21,0-1.6V22.61a6.16,6.16,0,0,1,.22-1.95.55.55,0,0,1,.15-.24,1.37,1.37,0,0,1,.32-.18.82.82,0,0,0,.59-.76A.84.84,0,0,0,136.66,18.65Z"/></svg>