<svg id="Layer_1" data-name="Layer 1" xmlns="http://www.w3.org/2000/svg" xmlns:xlink="http://www.w3.org/1999/xlink" viewBox="0 0 220 48"><defs><style>.cls-1{fill:#17608e;}.cls-2{fill:url(#linear-gradient);}.cls-3{fill:#5fddec;}.cls-4{fill:#fff;}.cls-5{fill:#33b5d4;}</style><linearGradient id="linear-gradient" x1="110" y1="46" x2="110" y2="2" gradientUnits="userSpaceOnUse"><stop offset="0" stop-color="#046bae"/><stop offset="1" stop-color="#0fe1ee"/></linearGradient></defs><title>buttonArtboard 68</title><path class="cls-1" d="M24,48A24,24,0,0,1,24,0H196a24,24,0,0,1,0,48Z"/><rect class="cls-2" x="2" y="2" width="216" height="44" rx="22"/><path class="cls-3" d="M24,40A16,16,0,0,1,24,8H196a16,16,0,0,1,0,32Z"/><ellipse class="cls-4" cx="13.18" cy="12.54" rx="6" ry="2.3" transform="translate(-5.01 12.99) rotate(-45)"/><path class="cls-5" d="M145.58,15.07a9.58,9.58,0,0,0-2.74-.28,10.49,10.49,0,0,0-2.09.15A3.15,3.15,0,0,0,138,17.62L136.16,16a4.69,4.69,0,0,0-1.57-1,5.69,5.69,0,0,0-1.84-.24,16.21,16.21,0,0,0-2.31.11,5.13,5.13,0,0,0-1.72.54,4.92,4.92,0,0,0-1.23-.41,13.48,13.48,0,0,0-2.59-.24,15.42,15.42,0,0,0-3,.29,6.63,6.63,0,0,0-2.18.73,3,3,0,0,0-.74.68l0-.07A3.33,3.33,0,0,0,116.29,15a3.41,3.41,0,0,0-1.12.18l-.21.08-.1,0a10.42,10.42,0,0,0-3.14-.47A10.16,10.16,0,0,0,107,15.8a9.15,9.15,0,0,0-3.62,3.27,9.19,9.19,0,0,0-8-4.35,10.53,10.53,0,0,0-3.8.66,9.13,9.13,0,0,0-4.22,3.12A9,9,0,0,0,85.57,24s0,0,0,0a2.73,2.73,0,0,0-2.24,2.16,1,1,0,0,1-.2.48.93.93,0,0,1-.33.09c0-.15,0-.35,0-.58v-4.7c0-.39,0-.68,0-.89a3.28,3.28,0,0,0,.8-.55,2.63,2.63,0,0,0,.78-1.94c0-.57-.21-2.48-2.87-3.06a17.09,17.09,0,0,0-3.38-.25,11.34,11.34,0,0,0-3.43.43c-2.38.75-2.64,2.38-2.64,3.05a2.7,2.7,0,0,0,1.1,2.16,3.48,3.48,0,0,0,.76.43q0,.87.06,2.55c0,1.16.05,2,.05,2.66,0,.8,0,1.28,0,1.57a3.69,3.69,0,0,0-.93.63,2.56,2.56,0,0,0-.73,1.85,2.72,2.72,0,0,0,1.42,2.44,3.82,3.82,0,0,0,2,.43h7l2.27.28h.13A2.88,2.88,0,0,0,87,32.71a4.26,4.26,0,0,0,1-1.14c.18-.29.34-.57.49-.86a8.87,8.87,0,0,0,2.45,1.65,10.09,10.09,0,0,0,4.22.92,10.85,10.85,0,0,0,3.31-.53A9.17,9.17,0,0,0,103.48,29a9.11,9.11,0,0,0,3.25,3,10.39,10.39,0,0,0,5.08,1.28,10.13,10.13,0,0,0,3.26-.53,8.3,8.3,0,0,0,2.79-1.54,7,7,0,0,0,.77-.77c.21,1.36,1.38,2.77,5.3,2.77a16.06,16.06,0,0,0,3.79-.39,4.39,4.39,0,0,0,1.17-.46c.16.1.32.2.5.29a6.91,6.91,0,0,0,3,.56c4.58,0,5.07-2.4,5.07-3.43a3.39,3.39,0,0,0,0-.49l3,2.66a7.24,7.24,0,0,0,1.11.87,3.11,3.11,0,0,0,1.55.4A3,3,0,0,0,146,30.77a12.16,12.16,0,0,0,.29-3.17c0-.88,0-1.57,0-2.08V22.19a13.4,13.4,0,0,1,.07-1.48,3,3,0,0,0,1.6-2.65A3.06,3.06,0,0,0,145.58,15.07ZM95,23.88a8.13,8.13,0,0,1-.37-1.77,7.65,7.65,0,0,1,.79,1.9,9.21,9.21,0,0,1,.31,1.66A10.94,10.94,0,0,1,95,23.88Zm17.38-1.7a4.15,4.15,0,0,0-1.31.67v0a2.17,2.17,0,0,1,.34-1.37.58.58,0,0,1,.56-.23c.15,0,.51,0,1,.65l.1.12C112.88,22,112.63,22.1,112.4,22.18Zm7.26.06a4,4,0,0,0,.33-.76c0,.25,0,.55,0,.93Zm9.3,4.54c0-.64-.07-1.73-.07-3.57,0-.82,0-1.4,0-1.82A21.79,21.79,0,0,1,129,24C129,25.12,129,26.05,129,26.78Z"/><path class="cls-1" d="M86,27c-.36,0-.59.22-.69.67a2.81,2.81,0,0,1-1,1.6,3,3,0,0,1-1.84.51,1.58,1.58,0,0,1-1.43-.54,4.92,4.92,0,0,1-.27-2.06v-4.7a9.89,9.89,0,0,1,.1-1.84.82.82,0,0,1,.49-.59,3.49,3.49,0,0,0,.83-.44.7.7,0,0,0,.17-.51c0-.55-.43-.92-1.28-1.1a15.34,15.34,0,0,0-3-.21,9.4,9.4,0,0,0-2.83.34c-.83.26-1.24.64-1.24,1.14a.72.72,0,0,0,.33.58,3.52,3.52,0,0,0,.86.38.85.85,0,0,1,.54.44,3.38,3.38,0,0,1,.13,1.12c0,.57,0,1.43.06,2.56s.05,2.09.05,2.72a13.17,13.17,0,0,1-.13,2.45,1.3,1.3,0,0,1-.75.78,2.44,2.44,0,0,0-.67.4.53.53,0,0,0-.14.42.76.76,0,0,0,.42.71,2.14,2.14,0,0,0,1,.16h7.17l2.28.28a.89.89,0,0,0,.54-.17,2.45,2.45,0,0,0,.52-.63,5,5,0,0,0,.94-2.72,2.11,2.11,0,0,0-.34-1.26A1,1,0,0,0,86,27Z"/><path class="cls-1" d="M100,19.23a7.33,7.33,0,0,0-4.6-1.51,8.73,8.73,0,0,0-3.1.53,7.25,7.25,0,0,0-3.62,10.59,6.77,6.77,0,0,0,3.07,2.7,8.12,8.12,0,0,0,3.39.74,8.75,8.75,0,0,0,2.7-.43,7.57,7.57,0,0,0,3.54-2.33,6.58,6.58,0,0,0,1.6-4.33,7.4,7.4,0,0,0-.82-3.28A7.66,7.66,0,0,0,100,19.23Zm-2.68,9.46a1.56,1.56,0,0,1-1.26.59,1.77,1.77,0,0,1-1-.3,2.59,2.59,0,0,1-.78-.8,12.37,12.37,0,0,1-1.19-2.7,9.4,9.4,0,0,1-.47-2.69A2.36,2.36,0,0,1,93,21.43a1.55,1.55,0,0,1,1.36-.77,2,2,0,0,1,1,.38,3.34,3.34,0,0,1,.9,1,9.41,9.41,0,0,1,1,2.45,10.24,10.24,0,0,1,.4,2.67A2.34,2.34,0,0,1,97.29,28.69Z"/><path class="cls-1" d="M118.78,25.05a10.16,10.16,0,0,0-2.92-.36,9.56,9.56,0,0,0-2.86.39c-.75.24-1.12.64-1.12,1.21a.91.91,0,0,0,.29.71,1,1,0,0,0,.73.29h.59a.41.41,0,0,1,.21.1.81.81,0,0,1,.29.7,1.22,1.22,0,0,1-.35.9,1.14,1.14,0,0,1-.87.36,2.59,2.59,0,0,1-1.3-.38,3.6,3.6,0,0,1-1.13-1,6.87,6.87,0,0,1-1.25-4.17,4.1,4.1,0,0,1,.78-2.63,2.6,2.6,0,0,1,2.12-1,3.28,3.28,0,0,1,2.59,1.38,9.12,9.12,0,0,0,.85,1,2,2,0,0,0,1.17.43,1.46,1.46,0,0,0,1.18-.54,2.24,2.24,0,0,0,.44-1.43,3.82,3.82,0,0,0-.84-2.38,1.42,1.42,0,0,0-1.09-.67,1.37,1.37,0,0,0-.45.07,3.52,3.52,0,0,1-.86.23,3.21,3.21,0,0,1-.73-.17,8.32,8.32,0,0,0-2.53-.38,8.22,8.22,0,0,0-3.81.86,7.15,7.15,0,0,0-3,2.77,6.72,6.72,0,0,0-1,3.53,7.14,7.14,0,0,0,.84,3.41,7.06,7.06,0,0,0,2.93,2.95,8.41,8.41,0,0,0,4.12,1,8.13,8.13,0,0,0,2.62-.42,6.44,6.44,0,0,0,2.13-1.17A5.27,5.27,0,0,0,118.28,28a1.54,1.54,0,0,1,.22-.53.91.91,0,0,1,.47-.15,1.1,1.1,0,0,0,.67-.33.89.89,0,0,0,.25-.64Q119.89,25.4,118.78,25.05Z"/><path class="cls-1" d="M127.66,20.06a2.94,2.94,0,0,0,.7-.44.65.65,0,0,0,.14-.45c0-.6-.47-1-1.4-1.17a11,11,0,0,0-2.2-.21,13.33,13.33,0,0,0-2.6.26,4.94,4.94,0,0,0-1.5.46.81.81,0,0,0-.42.71.71.71,0,0,0,.14.47,2.82,2.82,0,0,0,.56.46,1.53,1.53,0,0,1,.69.76,12.54,12.54,0,0,1,.27,3.36,38.08,38.08,0,0,1-.2,5,1.22,1.22,0,0,1-.59.85c-.44.26-.66.55-.66.86,0,.84,1.12,1.27,3.34,1.27a14.3,14.3,0,0,0,3.32-.33c.83-.21,1.25-.58,1.25-1.13a1,1,0,0,0-.68-.89,1.93,1.93,0,0,1-.52-.34,1,1,0,0,1-.22-.46,34.29,34.29,0,0,1-.19-4.85,20.77,20.77,0,0,1,.15-3.12A1.31,1.31,0,0,1,127.66,20.06Z"/><path class="cls-1" d="M145,18a8,8,0,0,0-2.15-.19,10.22,10.22,0,0,0-1.68.1c-.78.17-1.18.54-1.18,1.11a.94.94,0,0,0,.17.57,1.46,1.46,0,0,0,.56.42,1.18,1.18,0,0,1,.65.7,6.86,6.86,0,0,1,.15,1.77c0,.76-.18,1.13-.53,1.13a2,2,0,0,1-1-.62l-5.11-4.47a2.73,2.73,0,0,0-.88-.58,3.88,3.88,0,0,0-1.2-.13,17.88,17.88,0,0,0-2,.08c-1.12.17-1.69.59-1.69,1.24a.81.81,0,0,0,.18.53,2,2,0,0,0,.64.44,1.63,1.63,0,0,1,.58.41,1.73,1.73,0,0,1,.28.65A17,17,0,0,1,131,25a32.69,32.69,0,0,1-.17,3.8,1.32,1.32,0,0,1-.59,1,2.59,2.59,0,0,0-.64.47.79.79,0,0,0-.15.52,1.13,1.13,0,0,0,.77,1,5,5,0,0,0,2.14.37c2,0,3.07-.48,3.07-1.43,0-.36-.23-.65-.69-.88a1.25,1.25,0,0,1-.65-.77,8.17,8.17,0,0,1-.16-1.95c0-1.15.21-1.73.63-1.73a1.82,1.82,0,0,1,1.06.57l6.08,5.45a4.84,4.84,0,0,0,.76.61,1.07,1.07,0,0,0,.55.14c.48,0,.82-.33,1-1a10.18,10.18,0,0,0,.22-2.6c0-.89,0-1.59,0-2.1V23.17a7.94,7.94,0,0,1,.28-2.56,1,1,0,0,1,.2-.31,2.36,2.36,0,0,1,.42-.23,1.09,1.09,0,0,0,.77-1C145.93,18.53,145.62,18.17,145,18Z"/><path class="cls-4" d="M86,26c-.36,0-.59.22-.69.67a2.81,2.81,0,0,1-1,1.6,3,3,0,0,1-1.84.51,1.58,1.58,0,0,1-1.43-.54,4.92,4.92,0,0,1-.27-2.06v-4.7a9.89,9.89,0,0,1,.1-1.84.82.82,0,0,1,.49-.59,3.49,3.49,0,0,0,.83-.44.7.7,0,0,0,.17-.51c0-.55-.43-.92-1.28-1.1a15.34,15.34,0,0,0-3-.21,9.4,9.4,0,0,0-2.83.34c-.83.26-1.24.64-1.24,1.14a.72.72,0,0,0,.33.58,3.52,3.52,0,0,0,.86.38.85.85,0,0,1,.54.44,3.38,3.38,0,0,1,.13,1.12c0,.57,0,1.43.06,2.56s.05,2.09.05,2.72a13.17,13.17,0,0,1-.13,2.45,1.3,1.3,0,0,1-.75.78,2.44,2.44,0,0,0-.67.4.53.53,0,0,0-.14.42.76.76,0,0,0,.42.71,2.14,2.14,0,0,0,1,.16h7.17l2.28.28a.89.89,0,0,0,.54-.17,2.45,2.45,0,0,0,.52-.63,5,5,0,0,0,.94-2.72,2.11,2.11,0,0,0-.34-1.26A1,1,0,0,0,86,26Z"/><path class="cls-4" d="M100,18.23a7.33,7.33,0,0,0-4.6-1.51,8.73,8.73,0,0,0-3.1.53,7.25,7.25,0,0,0-3.62,10.59,6.77,6.77,0,0,0,3.07,2.7,8.12,8.12,0,0,0,3.39.74,8.75,8.75,0,0,0,2.7-.43,7.57,7.57,0,0,0,3.54-2.33,6.58,6.58,0,0,0,1.6-4.33,7.4,7.4,0,0,0-.82-3.28A7.66,7.66,0,0,0,100,18.23Zm-2.68,9.46a1.56,1.56,0,0,1-1.26.59,1.77,1.77,0,0,1-1-.3,2.59,2.59,0,0,1-.78-.8,12.37,12.37,0,0,1-1.19-2.7,9.4,9.4,0,0,1-.47-2.69A2.36,2.36,0,0,1,93,20.43a1.55,1.55,0,0,1,1.36-.77,2,2,0,0,1,1,.38,3.34,3.34,0,0,1,.9,1,9.41,9.41,0,0,1,1,2.45,10.24,10.24,0,0,1,.4,2.67A2.34,2.34,0,0,1,97.29,27.69Z"/><path class="cls-4" d="M118.78,24.05a10.16,10.16,0,0,0-2.92-.36,9.56,9.56,0,0,0-2.86.39c-.75.24-1.12.64-1.12,1.21a.91.91,0,0,0,.29.71,1,1,0,0,0,.73.29h.59a.41.41,0,0,1,.21.1.81.81,0,0,1,.29.7,1.22,1.22,0,0,1-.35.9,1.14,1.14,0,0,1-.87.36,2.59,2.59,0,0,1-1.3-.38,3.6,3.6,0,0,1-1.13-1,6.87,6.87,0,0,1-1.25-4.17,4.1,4.1,0,0,1,.78-2.63,2.6,2.6,0,0,1,2.12-1,3.28,3.28,0,0,1,2.59,1.38,9.12,9.12,0,0,0,.85,1,2,2,0,0,0,1.17.43,1.46,1.46,0,0,0,1.18-.54,2.24,2.24,0,0,0,.44-1.43,3.82,3.82,0,0,0-.84-2.38,1.42,1.42,0,0,0-1.09-.67,1.37,1.37,0,0,0-.45.07,3.52,3.52,0,0,1-.86.23,3.21,3.21,0,0,1-.73-.17,8.32,8.32,0,0,0-2.53-.38,8.22,8.22,0,0,0-3.81.86,7.15,7.15,0,0,0-3,2.77,6.72,6.72,0,0,0-1,3.53,7.14,7.14,0,0,0,.84,3.41,7.06,7.06,0,0,0,2.93,2.95,8.41,8.41,0,0,0,4.12,1,8.13,8.13,0,0,0,2.62-.42,6.44,6.44,0,0,0,2.13-1.17A5.27,5.27,0,0,0,118.28,27a1.54,1.54,0,0,1,.22-.53.91.91,0,0,1,.47-.15,1.1,1.1,0,0,0,.67-.33.89.89,0,0,0,.25-.64Q119.89,24.4,118.78,24.05Z"/><path class="cls-4" d="M127.66,19.06a2.94,2.94,0,0,0,.7-.44.65.65,0,0,0,.14-.45c0-.6-.47-1-1.4-1.17a11,11,0,0,0-2.2-.21,13.33,13.33,0,0,0-2.6.26,4.94,4.94,0,0,0-1.5.46.81.81,0,0,0-.42.71.71.71,0,0,0,.14.47,2.82,2.82,0,0,0,.56.46,1.53,1.53,0,0,1,.69.76,12.54,12.54,0,0,1,.27,3.36,38.08,38.08,0,0,1-.2,5,1.22,1.22,0,0,1-.59.85c-.44.26-.66.55-.66.86,0,.84,1.12,1.27,3.34,1.27a14.3,14.3,0,0,0,3.32-.33c.83-.21,1.25-.58,1.25-1.13a1,1,0,0,0-.68-.89,1.93,1.93,0,0,1-.52-.34,1,1,0,0,1-.22-.46,34.29,34.29,0,0,1-.19-4.85,20.77,20.77,0,0,1,.15-3.12A1.31,1.31,0,0,1,127.66,19.06Z"/><path class="cls-4" d="M145,17a8,8,0,0,0-2.15-.19,10.22,10.22,0,0,0-1.68.1c-.78.17-1.18.54-1.18,1.11a.94.94,0,0,0,.17.57,1.46,1.46,0,0,0,.56.42,1.18,1.18,0,0,1,.65.7,6.86,6.86,0,0,1,.15,1.77c0,.76-.18,1.13-.53,1.13a2,2,0,0,1-1-.62l-5.11-4.47a2.73,2.73,0,0,0-.88-.58,3.88,3.88,0,0,0-1.2-.13,17.88,17.88,0,0,0-2,.08c-1.12.17-1.69.59-1.69,1.24a.81.81,0,0,0,.18.53,2,2,0,0,0,.64.44,1.63,1.63,0,0,1,.58.41,1.73,1.73,0,0,1,.28.65A17,17,0,0,1,131,24a32.69,32.69,0,0,1-.17,3.8,1.32,1.32,0,0,1-.59,1,2.59,2.59,0,0,0-.64.47.79.79,0,0,0-.15.52,1.13,1.13,0,0,0,.77,1,5,5,0,0,0,2.14.37c2,0,3.07-.48,3.07-1.43,0-.36-.23-.65-.69-.88a1.25,1.25,0,0,1-.65-.77,8.17,8.17,0,0,1-.16-1.95c0-1.15.21-1.73.63-1.73a1.82,1.82,0,0,1,1.06.57l6.08,5.45a4.84,4.84,0,0,0,.76.61,1.07,1.07,0,0,0,.55.14c.48,0,.82-.33,1-1a10.18,10.18,0,0,0,.22-2.6c0-.89,0-1.59,0-2.1V22.17a7.94,7.94,0,0,1,.28-2.56,1,1,0,0,1,.2-.31,2.36,2.36,0,0,1,.42-.23,1.09,1.09,0,0,0,.77-1C145.93,17.53,145.62,17.17,145,17Z"/></svg>