<svg id="Layer_1" data-name="Layer 1" xmlns="http://www.w3.org/2000/svg" xmlns:xlink="http://www.w3.org/1999/xlink" viewBox="0 0 220 48"><defs><style>.cls-1{fill:#b20026;}.cls-2{fill:url(#linear-gradient);}.cls-3{fill:#dd1f51;}.cls-4{fill:#fff;}.cls-5{fill:#910026;}</style><linearGradient id="linear-gradient" x1="110" y1="46" x2="110" y2="2" gradientUnits="userSpaceOnUse"><stop offset="0" stop-color="#c10033"/><stop offset="1" stop-color="#d30d4a"/></linearGradient></defs><title>buttonArtboard 69</title><path class="cls-1" d="M24,48A24,24,0,0,1,24,0H196a24,24,0,0,1,0,48Z"/><rect class="cls-2" x="2" y="2" width="216" height="44" rx="22"/><path class="cls-3" d="M24,40A16,16,0,0,1,24,8H196a16,16,0,0,1,0,32Z"/><ellipse class="cls-4" cx="13.18" cy="12.54" rx="6" ry="2.3" transform="translate(-5.01 12.99) rotate(-45)"/><path class="cls-1" d="M102.85,15.16a6.12,6.12,0,0,0-2.3-.37,8,8,0,0,0-2.94.41,2.87,2.87,0,0,0-.65.34,3.49,3.49,0,0,0-.73-.34,12.68,12.68,0,0,0-3.59-.4,10.4,10.4,0,0,0-4.18.67,4,4,0,0,0-.72-.33,11.58,11.58,0,0,0-3.25-.34,8.28,8.28,0,0,0-4,.78,3,3,0,0,0-2.21-1,3.6,3.6,0,0,0-.9.14,5.27,5.27,0,0,1-1,.2c-.29,0-.9.06-2.15.06H68.92a8.8,8.8,0,0,0-2,.16,2.64,2.64,0,0,0-.47.17,3.71,3.71,0,0,0-.65-.27A9.58,9.58,0,0,0,63,14.79a10.53,10.53,0,0,0-2.09.14,3.16,3.16,0,0,0-2.75,2.68L56.33,16a4.73,4.73,0,0,0-1.56-1,5.81,5.81,0,0,0-1.84-.23,18.12,18.12,0,0,0-2.31.1c-3.15.48-3.39,2.58-3.39,3.22a2.75,2.75,0,0,0,.64,1.8,3.7,3.7,0,0,0,1.13.88,16.19,16.19,0,0,1,.21,3.2,31.37,31.37,0,0,1-.13,3.32,3.43,3.43,0,0,0-.81.7,2.74,2.74,0,0,0-.6,1.8,3.08,3.08,0,0,0,1.9,2.83,6.88,6.88,0,0,0,3,.56c4.57,0,5.06-2.39,5.06-3.42a3.2,3.2,0,0,0,0-.49l3,2.66a7.21,7.21,0,0,0,1.1.86,3,3,0,0,0,1.55.4,2.91,2.91,0,0,0,2.31-1.16,1.85,1.85,0,0,0,.28.28,3.21,3.21,0,0,0,2.06.67h8.64a9.38,9.38,0,0,1,1.48.13,6.61,6.61,0,0,0,.89.08,2.62,2.62,0,0,0,1.61-.53,4.06,4.06,0,0,0,.85-1,9.67,9.67,0,0,0,1-2.07,6.7,6.7,0,0,0,.43-2.19,3.86,3.86,0,0,0-.11-.84c.83,2.1,1.56,4,1.56,4a4.49,4.49,0,0,0,1.27,1.9,3.91,3.91,0,0,0,4.66,0,5.06,5.06,0,0,0,1.3-2l.48-1.19.67,1.59a4,4,0,0,0,1.31,1.74,3.61,3.61,0,0,0,2.16.64,3.5,3.5,0,0,0,1.68-.39A3.35,3.35,0,0,0,99,31.57c.23-.4.46-.85.69-1.36s.73-1.76,1.65-4.05l1.8-4.78c.2-.54.29-.75.31-.78a4.59,4.59,0,0,0,.93-1,2.9,2.9,0,0,0,.46-1.59A3,3,0,0,0,102.85,15.16ZM66.43,26V22.13c0,.55,0,1.25,0,2.14C66.48,24.91,66.46,25.48,66.43,26Zm15.64-.71a2.85,2.85,0,0,0-2.31-1.16,3,3,0,0,0-.67.07c0-.18,0-.37,0-.55s0-.54,0-.8a2.91,2.91,0,0,0,1.8-.79c.35.91.87,2.22,1.39,3.55C82.2,25.51,82.14,25.4,82.07,25.3Z"/><path class="cls-1" d="M172.3,28.28a2.7,2.7,0,0,0-1.12-.94,7.62,7.62,0,0,0-1-2.95,4.44,4.44,0,0,0-.67-.82l.19-.32a5.33,5.33,0,0,0,.73-2.72,5.09,5.09,0,0,0-2.11-4.26,7.91,7.91,0,0,0-4.81-1.44c-.29,0-.79,0-1.53.08-1,.07-1.74.11-2.3.11h-.66c-1.27-.1-1.64-.11-1.84-.11a7.25,7.25,0,0,0-1.7.17,4,4,0,0,0-1.24.57,3,3,0,0,0-2.26-1,3.47,3.47,0,0,0-.9.14,5.27,5.27,0,0,1-1.05.2c-.29,0-.91.06-2.15.06h-5.27a8.69,8.69,0,0,0-2,.16,2.88,2.88,0,0,0-1.29.71,3.19,3.19,0,0,0-2.08-.82,3.08,3.08,0,0,0-1,.18,11.09,11.09,0,0,0-3-.52,8.27,8.27,0,0,0-5.3,1.78,3.13,3.13,0,0,0-1.58-1.28,8.48,8.48,0,0,0-3-.41,8.75,8.75,0,0,0-3.07.41,3.3,3.3,0,0,0-1.44,1,3.45,3.45,0,0,0-2-1.14,15,15,0,0,0-3.25-.3,16.51,16.51,0,0,0-3.07.26,3.87,3.87,0,0,0-1.84.89,2.92,2.92,0,0,0-1,2.2,3.06,3.06,0,0,0,1.36,2.5v.28c0,.25,0,.77,0,1.54,0,1.17,0,2,0,2.52a10.77,10.77,0,0,0,.49,3.62,6,6,0,0,0,2,2.66,10.22,10.22,0,0,0,6.51,2,11.66,11.66,0,0,0,4.07-.68,7.26,7.26,0,0,0,3.72-2.74,4.3,4.3,0,0,0,1.52,2,8.14,8.14,0,0,0,2.77,1,15.14,15.14,0,0,0,3.19.36,9.63,9.63,0,0,0,5.77-1.68,2.87,2.87,0,0,0,.62.73,3.24,3.24,0,0,0,2.06.67h8.64a9.38,9.38,0,0,1,1.48.13,6.75,6.75,0,0,0,.89.08,2.67,2.67,0,0,0,1.62-.53,2.44,2.44,0,0,0,.29-.27,9,9,0,0,0,4.2.79,11.79,11.79,0,0,0,3.52-.38,3.62,3.62,0,0,0,1.33-.76,5.62,5.62,0,0,0,4,1.34,7.56,7.56,0,0,0,3.22-.59,3.82,3.82,0,0,0,1.37-1.11,3,3,0,0,0,.65-1.85A2.8,2.8,0,0,0,172.3,28.28Zm-52.4-3.39a6.59,6.59,0,0,1-.05.93.4.4,0,0,1-.27.31,1.62,1.62,0,0,1-.66.12,1,1,0,0,1-.76-.23c-.08-.08-.33-.31-.31-1.16.06-2,.09-3.31.09-3.91V20.7a2.4,2.4,0,0,0,.43-.29,2.75,2.75,0,0,0,.55-.58l0,0a3.58,3.58,0,0,0,.9.64c0,.39,0,1,.06,2.13Zm32.89-2a2.92,2.92,0,0,0,1.62-.63c0,.84,0,1.52,0,2.08a2.83,2.83,0,0,0-.92-.17,2.93,2.93,0,0,0-.67.07c0-.18,0-.37,0-.55S152.81,23.12,152.79,22.86Z"/><path class="cls-5" d="M65.16,18A8.54,8.54,0,0,0,63,17.79a9.19,9.19,0,0,0-1.68.1c-.79.16-1.18.53-1.18,1.11a.94.94,0,0,0,.16.57,1.65,1.65,0,0,0,.56.41,1.16,1.16,0,0,1,.65.71,6.76,6.76,0,0,1,.15,1.76c0,.76-.17,1.14-.53,1.14a2.12,2.12,0,0,1-1-.63L55,18.49a2.94,2.94,0,0,0-.89-.58,4.27,4.27,0,0,0-1.19-.12,15.51,15.51,0,0,0-2,.08c-1.13.17-1.69.58-1.69,1.24a.78.78,0,0,0,.17.52,1.91,1.91,0,0,0,.65.44,1.82,1.82,0,0,1,.57.41,1.86,1.86,0,0,1,.29.66,17.65,17.65,0,0,1,.3,3.85A30.65,30.65,0,0,1,51,28.8a1.31,1.31,0,0,1-.58,1,2.47,2.47,0,0,0-.65.48.77.77,0,0,0-.14.52,1.13,1.13,0,0,0,.76,1,5.18,5.18,0,0,0,2.15.36c2,0,3.06-.47,3.06-1.42A1,1,0,0,0,55,29.9a1.21,1.21,0,0,1-.65-.77,7.66,7.66,0,0,1-.16-1.95c0-1.16.2-1.73.62-1.73a1.82,1.82,0,0,1,1.06.57l6.08,5.44a5.1,5.1,0,0,0,.76.62,1.09,1.09,0,0,0,.55.13c.49,0,.82-.33,1-1a10.33,10.33,0,0,0,.21-2.61c0-.88,0-1.58,0-2.1V23.17a7.82,7.82,0,0,1,.29-2.56.82.82,0,0,1,.19-.31,1.8,1.8,0,0,1,.42-.24,1.07,1.07,0,0,0,.77-1A1.11,1.11,0,0,0,65.16,18Z"/><path class="cls-5" d="M79.76,27.14a.9.9,0,0,0-.6.2,2.88,2.88,0,0,0-.52.8,2.87,2.87,0,0,1-1.27,1.43,5.2,5.2,0,0,1-2.32.4,5.91,5.91,0,0,1-1.42-.12.62.62,0,0,1-.5-.43,5.61,5.61,0,0,1-.14-1c0-.5-.07-.92-.07-1.24a2.38,2.38,0,0,1,.17-1.08.65.65,0,0,1,.63-.3A1.22,1.22,0,0,1,75.08,27a1.67,1.67,0,0,0,.2.75.56.56,0,0,0,.48.18.88.88,0,0,0,.84-.57,6,6,0,0,0,.5-2.65A8.08,8.08,0,0,0,77,23.08a2.75,2.75,0,0,0-.37-1,.87.87,0,0,0-.72-.4.73.73,0,0,0-.5.19.86.86,0,0,0-.28.38,4.91,4.91,0,0,0-.15.82,1,1,0,0,1-.24.64.91.91,0,0,1-.63.18A2.31,2.31,0,0,1,73,23.69c-.13-.1-.2-.36-.2-.77,0-1,0-1.68,0-1.93a1.39,1.39,0,0,1,.16-.61q.25-.42,1.44-.42a8.06,8.06,0,0,1,2.27.23,2.15,2.15,0,0,1,1.14.92,2.45,2.45,0,0,0,.51.62,1,1,0,0,0,1.3-.25,1.7,1.7,0,0,0,.29-1.05,3.73,3.73,0,0,0-.68-2.25,1.16,1.16,0,0,0-.95-.58,1.29,1.29,0,0,0-.33.06,6.94,6.94,0,0,1-1.43.27C76,18,75.26,18,74.19,18H68.92a8.62,8.62,0,0,0-1.55.09.94.94,0,0,0-.7.93.75.75,0,0,0,.58.78,2.12,2.12,0,0,1,.51.19.7.7,0,0,1,.23.29c.33.69.49,2.35.49,5a20.19,20.19,0,0,1-.34,4.18,1.38,1.38,0,0,1-.23.57,1.15,1.15,0,0,1-.45.33,1.79,1.79,0,0,0-.57.34.61.61,0,0,0-.12.43.77.77,0,0,0,.29.65,1.28,1.28,0,0,0,.81.23h8.69a12.16,12.16,0,0,1,1.76.15,3.69,3.69,0,0,0,.56.06.67.67,0,0,0,.39-.11,2.43,2.43,0,0,0,.39-.47A7.54,7.54,0,0,0,80.44,30a5,5,0,0,0,.32-1.54,1.5,1.5,0,0,0-.29-.94A.83.83,0,0,0,79.76,27.14Z"/><path class="cls-5" d="M102.1,18a4.28,4.28,0,0,0-1.55-.22,6.75,6.75,0,0,0-2.2.26.91.91,0,0,0-.66.88c0,.48.28.8.86,1a.54.54,0,0,1,.43.54,3.14,3.14,0,0,1-.21.92l-.49,1.44a5.42,5.42,0,0,1-.44,1.05.48.48,0,0,1-.4.26.46.46,0,0,1-.38-.23,6.4,6.4,0,0,1-.57-1.08l-.59-1.25a3.33,3.33,0,0,1-.39-1.19.6.6,0,0,1,.26-.45,5.75,5.75,0,0,0,.54-.52A.7.7,0,0,0,96.4,19a.84.84,0,0,0-.21-.55,1.24,1.24,0,0,0-.56-.36,10.8,10.8,0,0,0-3-.31c-2.62,0-3.94.43-3.94,1.31a1.14,1.14,0,0,0,.74,1,1.68,1.68,0,0,1,.69.83l.3.72a.74.74,0,0,1,0,.22.59.59,0,0,1,0,.19L90,23.22c-.28.76-.56,1.14-.82,1.14a.29.29,0,0,1-.26-.13c-.05-.08-.17-.33-.35-.74l-.42-1a7.38,7.38,0,0,1-.69-2.13.82.82,0,0,1,.13-.48,2.69,2.69,0,0,0,.29-.48.94.94,0,0,0,0-.34,1,1,0,0,0-.79-1,9.83,9.83,0,0,0-2.65-.25c-2.39,0-3.59.48-3.59,1.44a.91.91,0,0,0,.52.9,2.47,2.47,0,0,1,.55.36,3.19,3.19,0,0,1,.32.7l3.78,9.65a2.65,2.65,0,0,0,.68,1.09,1.59,1.59,0,0,0,1,.3,1.61,1.61,0,0,0,1.07-.3,3.46,3.46,0,0,0,.75-1.24L91,27.23c.29-.71.48-1.15.58-1.32a.46.46,0,0,1,.37-.26.31.31,0,0,1,.23.1,2.47,2.47,0,0,1,.24.51l2,4.82a2,2,0,0,0,.63.88,1.71,1.71,0,0,0,1,.26,1.66,1.66,0,0,0,.73-.14,1.41,1.41,0,0,0,.51-.52,12.1,12.1,0,0,0,.57-1.14c.18-.42.72-1.75,1.62-4l1.79-4.77a9.44,9.44,0,0,1,.46-1.09,1.83,1.83,0,0,1,.43-.51,3.54,3.54,0,0,0,.56-.57.94.94,0,0,0,.13-.51A1,1,0,0,0,102.1,18Z"/><path class="cls-5" d="M125.56,18.07a10,10,0,0,0-4.66,0,1,1,0,0,0-.73.9.66.66,0,0,0,.2.48,2.62,2.62,0,0,0,.72.43,1,1,0,0,1,.67.7,28.27,28.27,0,0,1,.14,3v2.26a6.83,6.83,0,0,1-.1,1.34,2.29,2.29,0,0,1-.38.89,2.33,2.33,0,0,1-1,.83,3.61,3.61,0,0,1-1.49.3,3,3,0,0,1-2.11-.76,3.34,3.34,0,0,1-1-2.69c.06-2,.09-3.26.09-3.85a5.14,5.14,0,0,1,.11-1.25.79.79,0,0,1,.45-.52c.36-.18.57-.28.62-.32a.84.84,0,0,0,.31-.69c0-.58-.36-1-1.09-1.12a13,13,0,0,0-2.81-.25,13.83,13.83,0,0,0-2.67.22,2,2,0,0,0-.91.42.93.93,0,0,0-.34.71,1.22,1.22,0,0,0,.68,1,1.52,1.52,0,0,1,.56.62,3.91,3.91,0,0,1,.12,1.18c0,.26,0,.79,0,1.6,0,1.14,0,2,0,2.46a9.11,9.11,0,0,0,.37,2.93,4.13,4.13,0,0,0,1.33,1.79,8.29,8.29,0,0,0,5.27,1.57,9.72,9.72,0,0,0,3.39-.56,4.89,4.89,0,0,0,3.2-2.88,10.78,10.78,0,0,0,.34-3.21v-2.5a23.77,23.77,0,0,1,.09-2.63,1.1,1.1,0,0,1,.62-.66,3.17,3.17,0,0,0,.65-.44.7.7,0,0,0,.12-.44A1,1,0,0,0,125.56,18.07Z"/><path class="cls-5" d="M137.07,23.55a22.12,22.12,0,0,0-2.72-.91c-1-.3-1.57-.75-1.57-1.35a.9.9,0,0,1,.35-.73,1.44,1.44,0,0,1,.92-.27,3.6,3.6,0,0,1,2.42,1.15,11.78,11.78,0,0,0,1.12,1,1.23,1.23,0,0,0,.67.16,1.08,1.08,0,0,0,.84-.39,1.47,1.47,0,0,0,.34-1,3.68,3.68,0,0,0-.76-2.07c-.51-.72-1-1.09-1.46-1.09a.93.93,0,0,0-.34.06,2.91,2.91,0,0,1-.62.19,1.29,1.29,0,0,1-.33-.06,10,10,0,0,0-2.77-.53,6.34,6.34,0,0,0-4.2,1.45,4.45,4.45,0,0,0-1.19,1.48,4,4,0,0,0-.42,1.76A4.27,4.27,0,0,0,129,25.66a6.62,6.62,0,0,0,1.44,1,15.43,15.43,0,0,0,2.23.85,3.76,3.76,0,0,1,1.2.55.87.87,0,0,1,.37.71.84.84,0,0,1-.47.72,2.38,2.38,0,0,1-1.23.28,4,4,0,0,1-1.71-.38,2.75,2.75,0,0,1-1.2-.95c-.54-.81-.88-1.3-1-1.45a1,1,0,0,0-.75-.4.77.77,0,0,0-.64.33,1.19,1.19,0,0,0-.21.76,6.22,6.22,0,0,0,.4,2.15,2.85,2.85,0,0,0,.88,1.43,6.63,6.63,0,0,0,2.1.73,13.17,13.17,0,0,0,2.77.32,7.6,7.6,0,0,0,4.77-1.42,4.32,4.32,0,0,0,1.79-3.57A4,4,0,0,0,137.07,23.55Z"/><path class="cls-5" d="M153.48,27.14a.89.89,0,0,0-.6.2,2.67,2.67,0,0,0-.52.8,2.92,2.92,0,0,1-1.27,1.43,5.22,5.22,0,0,1-2.32.4,5.85,5.85,0,0,1-1.42-.12.66.66,0,0,1-.51-.43,6.75,6.75,0,0,1-.14-1c0-.5-.06-.92-.06-1.24a2.25,2.25,0,0,1,.17-1.08.65.65,0,0,1,.63-.3A1.21,1.21,0,0,1,148.79,27a1.79,1.79,0,0,0,.21.75.54.54,0,0,0,.48.18.9.9,0,0,0,.84-.57,6.14,6.14,0,0,0,.5-2.65,8.07,8.07,0,0,0-.15-1.58,3,3,0,0,0-.36-1,.87.87,0,0,0-.72-.4.71.71,0,0,0-.5.19.79.79,0,0,0-.28.38,3.43,3.43,0,0,0-.15.82,1.06,1.06,0,0,1-.25.64.91.91,0,0,1-.63.18,2.26,2.26,0,0,1-1.07-.15c-.14-.1-.21-.36-.21-.77,0-1,0-1.68,0-1.93a1.39,1.39,0,0,1,.16-.61c.17-.28.65-.42,1.43-.42a8.14,8.14,0,0,1,2.28.23,2.15,2.15,0,0,1,1.14.92,2.45,2.45,0,0,0,.51.62.87.87,0,0,0,.52.14.91.91,0,0,0,.78-.39,1.7,1.7,0,0,0,.28-1.05,3.73,3.73,0,0,0-.68-2.25,1.15,1.15,0,0,0-.94-.58,1.35,1.35,0,0,0-.34.06,6.82,6.82,0,0,1-1.43.27c-.49.05-1.27.07-2.33.07h-5.27a8.54,8.54,0,0,0-1.55.09,1,1,0,0,0-.71.93.75.75,0,0,0,.59.78,2.12,2.12,0,0,1,.51.19.69.69,0,0,1,.22.29c.33.69.5,2.35.5,5a20.91,20.91,0,0,1-.34,4.18,1.53,1.53,0,0,1-.23.57,1.12,1.12,0,0,1-.46.33,1.83,1.83,0,0,0-.56.34.57.57,0,0,0-.13.43.8.8,0,0,0,.29.65,1.28,1.28,0,0,0,.81.23h8.7a12,12,0,0,1,1.75.15,3.82,3.82,0,0,0,.56.06.67.67,0,0,0,.39-.11,1.87,1.87,0,0,0,.39-.47,7.54,7.54,0,0,0,.78-1.64,5,5,0,0,0,.32-1.54,1.5,1.5,0,0,0-.28-.94A.86.86,0,0,0,153.48,27.14Z"/><path class="cls-5" d="M170.64,30.4a.63.63,0,0,0-.33-.26,1.89,1.89,0,0,1-.81-.38,2,2,0,0,1-.26-.88,6.33,6.33,0,0,0-.72-2.42,3,3,0,0,0-1.58-1.18c-.34-.12-.5-.28-.5-.48s.11-.28.33-.39A3,3,0,0,0,168,23.25a3.37,3.37,0,0,0,.45-1.72,3.12,3.12,0,0,0-1.29-2.65,6,6,0,0,0-3.63-1.05c-.26,0-.72,0-1.37.07q-1.53.12-2.46.12c-.37,0-.64,0-.81,0-.9-.07-1.46-.1-1.69-.1A5.41,5.41,0,0,0,156,18a1.82,1.82,0,0,0-.82.42.91.91,0,0,0-.29.66.63.63,0,0,0,.16.46,1.79,1.79,0,0,0,.6.4,1.19,1.19,0,0,1,.62.75,9,9,0,0,1,.14,1.94c0,3,0,4.73,0,5.22a5.22,5.22,0,0,1-.22,1.39,1.52,1.52,0,0,1-.61.71,2.15,2.15,0,0,0-.51.41.62.62,0,0,0-.12.4c0,.95,1.27,1.43,3.8,1.43a10.23,10.23,0,0,0,2.89-.28c.57-.19.86-.51.86-1a1,1,0,0,0-.62-.89,1.64,1.64,0,0,1-.39-.28.75.75,0,0,1-.15-.31,9.81,9.81,0,0,1-.16-2,3.5,3.5,0,0,1,.1-1.1.5.5,0,0,1,.5-.24,1.45,1.45,0,0,1,1,.43,3.32,3.32,0,0,1,.6,1.38,22.08,22.08,0,0,0,.64,2.23,4.06,4.06,0,0,0,.66,1.19,3.48,3.48,0,0,0,2.86,1.06,5.8,5.8,0,0,0,2.36-.4,1.69,1.69,0,0,0,.64-.51,1.06,1.06,0,0,0,.24-.64A.81.81,0,0,0,170.64,30.4Zm-7.76-6.89a1.66,1.66,0,0,1-1.31.47.59.59,0,0,1-.44-.12.83.83,0,0,1-.11-.5v-.09l.12-2.39a1,1,0,0,1,.18-.65.7.7,0,0,1,.56-.19q1.41,0,1.41,2A2.23,2.23,0,0,1,162.88,23.51Z"/><path class="cls-4" d="M65.16,17A8.54,8.54,0,0,0,63,16.79a9.19,9.19,0,0,0-1.68.1c-.79.16-1.18.53-1.18,1.11a.94.94,0,0,0,.16.57,1.65,1.65,0,0,0,.56.41,1.16,1.16,0,0,1,.65.71,6.76,6.76,0,0,1,.15,1.76c0,.76-.17,1.14-.53,1.14a2.12,2.12,0,0,1-1-.63L55,17.49a2.94,2.94,0,0,0-.89-.58,4.27,4.27,0,0,0-1.19-.12,15.51,15.51,0,0,0-2,.08c-1.13.17-1.69.58-1.69,1.24a.78.78,0,0,0,.17.52,1.91,1.91,0,0,0,.65.44,1.82,1.82,0,0,1,.57.41,1.86,1.86,0,0,1,.29.66,17.65,17.65,0,0,1,.3,3.85A30.65,30.65,0,0,1,51,27.8a1.31,1.31,0,0,1-.58,1,2.47,2.47,0,0,0-.65.48.77.77,0,0,0-.14.52,1.13,1.13,0,0,0,.76,1,5.18,5.18,0,0,0,2.15.36c2,0,3.06-.47,3.06-1.42A1,1,0,0,0,55,28.9a1.21,1.21,0,0,1-.65-.77,7.66,7.66,0,0,1-.16-1.95c0-1.16.2-1.73.62-1.73a1.82,1.82,0,0,1,1.06.57l6.08,5.44a5.1,5.1,0,0,0,.76.62,1.09,1.09,0,0,0,.55.13c.49,0,.82-.33,1-1a10.33,10.33,0,0,0,.21-2.61c0-.88,0-1.58,0-2.1V22.17a7.82,7.82,0,0,1,.29-2.56.82.82,0,0,1,.19-.31,1.8,1.8,0,0,1,.42-.24,1.07,1.07,0,0,0,.77-1A1.11,1.11,0,0,0,65.16,17Z"/><path class="cls-4" d="M79.76,26.14a.9.9,0,0,0-.6.2,2.88,2.88,0,0,0-.52.8,2.87,2.87,0,0,1-1.27,1.43,5.2,5.2,0,0,1-2.32.4,5.91,5.91,0,0,1-1.42-.12.62.62,0,0,1-.5-.43,5.61,5.61,0,0,1-.14-1c0-.5-.07-.92-.07-1.24a2.38,2.38,0,0,1,.17-1.08.65.65,0,0,1,.63-.3A1.22,1.22,0,0,1,75.08,26a1.67,1.67,0,0,0,.2.75.56.56,0,0,0,.48.18.88.88,0,0,0,.84-.57,6,6,0,0,0,.5-2.65A8.08,8.08,0,0,0,77,22.08a2.75,2.75,0,0,0-.37-1,.87.87,0,0,0-.72-.4.73.73,0,0,0-.5.19.86.86,0,0,0-.28.38,4.91,4.91,0,0,0-.15.82,1,1,0,0,1-.24.64.91.91,0,0,1-.63.18A2.31,2.31,0,0,1,73,22.69c-.13-.1-.2-.36-.2-.77,0-1,0-1.68,0-1.93a1.39,1.39,0,0,1,.16-.61q.25-.42,1.44-.42a8.06,8.06,0,0,1,2.27.23,2.15,2.15,0,0,1,1.14.92,2.45,2.45,0,0,0,.51.62,1,1,0,0,0,1.3-.25,1.7,1.7,0,0,0,.29-1.05,3.73,3.73,0,0,0-.68-2.25,1.16,1.16,0,0,0-.95-.58,1.29,1.29,0,0,0-.33.06,6.94,6.94,0,0,1-1.43.27C76,17,75.26,17,74.19,17H68.92a8.62,8.62,0,0,0-1.55.09.94.94,0,0,0-.7.93.75.75,0,0,0,.58.78,2.12,2.12,0,0,1,.51.19.7.7,0,0,1,.23.29c.33.69.49,2.35.49,5a20.19,20.19,0,0,1-.34,4.18,1.38,1.38,0,0,1-.23.57,1.15,1.15,0,0,1-.45.33,1.79,1.79,0,0,0-.57.34.61.61,0,0,0-.12.43.77.77,0,0,0,.29.65,1.28,1.28,0,0,0,.81.23h8.69a12.16,12.16,0,0,1,1.76.15,3.69,3.69,0,0,0,.56.06.67.67,0,0,0,.39-.11,2.43,2.43,0,0,0,.39-.47A7.54,7.54,0,0,0,80.44,29a5,5,0,0,0,.32-1.54,1.5,1.5,0,0,0-.29-.94A.83.83,0,0,0,79.76,26.14Z"/><path class="cls-4" d="M102.1,17a4.28,4.28,0,0,0-1.55-.22,6.75,6.75,0,0,0-2.2.26.91.91,0,0,0-.66.88c0,.48.28.8.86,1a.54.54,0,0,1,.43.54,3.14,3.14,0,0,1-.21.92l-.49,1.44a5.42,5.42,0,0,1-.44,1.05.48.48,0,0,1-.4.26.46.46,0,0,1-.38-.23,6.4,6.4,0,0,1-.57-1.08l-.59-1.25a3.33,3.33,0,0,1-.39-1.19.6.6,0,0,1,.26-.45,5.75,5.75,0,0,0,.54-.52A.7.7,0,0,0,96.4,18a.84.84,0,0,0-.21-.55,1.24,1.24,0,0,0-.56-.36,10.8,10.8,0,0,0-3-.31c-2.62,0-3.94.43-3.94,1.31a1.14,1.14,0,0,0,.74,1,1.68,1.68,0,0,1,.69.83l.3.72a.74.74,0,0,1,0,.22.59.59,0,0,1,0,.19L90,22.22c-.28.76-.56,1.14-.82,1.14a.29.29,0,0,1-.26-.13c-.05-.08-.17-.33-.35-.74l-.42-1a7.38,7.38,0,0,1-.69-2.13.82.82,0,0,1,.13-.48,2.69,2.69,0,0,0,.29-.48.94.94,0,0,0,0-.34,1,1,0,0,0-.79-1,9.83,9.83,0,0,0-2.65-.25c-2.39,0-3.59.48-3.59,1.44a.91.91,0,0,0,.52.9,2.47,2.47,0,0,1,.55.36,3.19,3.19,0,0,1,.32.7l3.78,9.65a2.65,2.65,0,0,0,.68,1.09,1.59,1.59,0,0,0,1,.3,1.61,1.61,0,0,0,1.07-.3,3.46,3.46,0,0,0,.75-1.24L91,26.23c.29-.71.48-1.15.58-1.32a.46.46,0,0,1,.37-.26.31.31,0,0,1,.23.1,2.47,2.47,0,0,1,.24.51l2,4.82a2,2,0,0,0,.63.88,1.71,1.71,0,0,0,1,.26,1.66,1.66,0,0,0,.73-.14,1.41,1.41,0,0,0,.51-.52,12.1,12.1,0,0,0,.57-1.14c.18-.42.72-1.75,1.62-4l1.79-4.77a9.44,9.44,0,0,1,.46-1.09,1.83,1.83,0,0,1,.43-.51,3.54,3.54,0,0,0,.56-.57.94.94,0,0,0,.13-.51A1,1,0,0,0,102.1,17Z"/><path class="cls-4" d="M125.56,17.07a10,10,0,0,0-4.66,0,1,1,0,0,0-.73.9.66.66,0,0,0,.2.48,2.62,2.62,0,0,0,.72.43,1,1,0,0,1,.67.7,28.27,28.27,0,0,1,.14,3v2.26a6.83,6.83,0,0,1-.1,1.34,2.29,2.29,0,0,1-.38.89,2.33,2.33,0,0,1-1,.83,3.61,3.61,0,0,1-1.49.3,3,3,0,0,1-2.11-.76,3.34,3.34,0,0,1-1-2.69c.06-2,.09-3.26.09-3.85a5.14,5.14,0,0,1,.11-1.25.79.79,0,0,1,.45-.52c.36-.18.57-.28.62-.32a.84.84,0,0,0,.31-.69c0-.58-.36-1-1.09-1.12a13,13,0,0,0-2.81-.25,13.83,13.83,0,0,0-2.67.22,2,2,0,0,0-.91.42.93.93,0,0,0-.34.71,1.22,1.22,0,0,0,.68,1,1.52,1.52,0,0,1,.56.62,3.91,3.91,0,0,1,.12,1.18c0,.26,0,.79,0,1.6,0,1.14,0,2,0,2.46a9.11,9.11,0,0,0,.37,2.93,4.13,4.13,0,0,0,1.33,1.79,8.29,8.29,0,0,0,5.27,1.57,9.72,9.72,0,0,0,3.39-.56,4.89,4.89,0,0,0,3.2-2.88,10.78,10.78,0,0,0,.34-3.21v-2.5a23.77,23.77,0,0,1,.09-2.63,1.1,1.1,0,0,1,.62-.66,3.17,3.17,0,0,0,.65-.44.7.7,0,0,0,.12-.44A1,1,0,0,0,125.56,17.07Z"/><path class="cls-4" d="M137.07,22.55a22.12,22.12,0,0,0-2.72-.91c-1-.3-1.57-.75-1.57-1.35a.9.9,0,0,1,.35-.73,1.44,1.44,0,0,1,.92-.27,3.6,3.6,0,0,1,2.42,1.15,11.78,11.78,0,0,0,1.12,1,1.23,1.23,0,0,0,.67.16,1.08,1.08,0,0,0,.84-.39,1.47,1.47,0,0,0,.34-1,3.68,3.68,0,0,0-.76-2.07c-.51-.72-1-1.09-1.46-1.09a.93.93,0,0,0-.34.06,2.91,2.91,0,0,1-.62.19,1.29,1.29,0,0,1-.33-.06,10,10,0,0,0-2.77-.53,6.34,6.34,0,0,0-4.2,1.45,4.45,4.45,0,0,0-1.19,1.48,4,4,0,0,0-.42,1.76A4.27,4.27,0,0,0,129,24.66a6.62,6.62,0,0,0,1.44,1,15.43,15.43,0,0,0,2.23.85,3.76,3.76,0,0,1,1.2.55.87.87,0,0,1,.37.71.84.84,0,0,1-.47.72,2.38,2.38,0,0,1-1.23.28,4,4,0,0,1-1.71-.38,2.75,2.75,0,0,1-1.2-.95c-.54-.81-.88-1.3-1-1.45a1,1,0,0,0-.75-.4.77.77,0,0,0-.64.33,1.19,1.19,0,0,0-.21.76,6.22,6.22,0,0,0,.4,2.15,2.85,2.85,0,0,0,.88,1.43,6.63,6.63,0,0,0,2.1.73,13.17,13.17,0,0,0,2.77.32,7.6,7.6,0,0,0,4.77-1.42,4.32,4.32,0,0,0,1.79-3.57A4,4,0,0,0,137.07,22.55Z"/><path class="cls-4" d="M153.48,26.14a.89.89,0,0,0-.6.2,2.67,2.67,0,0,0-.52.8,2.92,2.92,0,0,1-1.27,1.43,5.22,5.22,0,0,1-2.32.4,5.85,5.85,0,0,1-1.42-.12.66.66,0,0,1-.51-.43,6.75,6.75,0,0,1-.14-1c0-.5-.06-.92-.06-1.24a2.25,2.25,0,0,1,.17-1.08.65.65,0,0,1,.63-.3A1.21,1.21,0,0,1,148.79,26a1.79,1.79,0,0,0,.21.75.54.54,0,0,0,.48.18.9.9,0,0,0,.84-.57,6.14,6.14,0,0,0,.5-2.65,8.07,8.07,0,0,0-.15-1.58,3,3,0,0,0-.36-1,.87.87,0,0,0-.72-.4.71.71,0,0,0-.5.19.79.79,0,0,0-.28.38,3.43,3.43,0,0,0-.15.82,1.06,1.06,0,0,1-.25.64.91.91,0,0,1-.63.18,2.26,2.26,0,0,1-1.07-.15c-.14-.1-.21-.36-.21-.77,0-1,0-1.68,0-1.93a1.39,1.39,0,0,1,.16-.61c.17-.28.65-.42,1.43-.42a8.14,8.14,0,0,1,2.28.23,2.15,2.15,0,0,1,1.14.92,2.45,2.45,0,0,0,.51.62.87.87,0,0,0,.52.14.91.91,0,0,0,.78-.39,1.7,1.7,0,0,0,.28-1.05,3.73,3.73,0,0,0-.68-2.25,1.15,1.15,0,0,0-.94-.58,1.35,1.35,0,0,0-.34.06,6.82,6.82,0,0,1-1.43.27c-.49.05-1.27.07-2.33.07h-5.27a8.54,8.54,0,0,0-1.55.09,1,1,0,0,0-.71.93.75.75,0,0,0,.59.78,2.12,2.12,0,0,1,.51.19.69.69,0,0,1,.22.29c.33.69.5,2.35.5,5a20.91,20.91,0,0,1-.34,4.18,1.53,1.53,0,0,1-.23.57,1.12,1.12,0,0,1-.46.33,1.83,1.83,0,0,0-.56.34.57.57,0,0,0-.13.43.8.8,0,0,0,.29.65,1.28,1.28,0,0,0,.81.23h8.7a12,12,0,0,1,1.75.15,3.82,3.82,0,0,0,.56.06.67.67,0,0,0,.39-.11,1.87,1.87,0,0,0,.39-.47,7.54,7.54,0,0,0,.78-1.64,5,5,0,0,0,.32-1.54,1.5,1.5,0,0,0-.28-.94A.86.86,0,0,0,153.48,26.14Z"/><path class="cls-4" d="M170.64,29.4a.63.63,0,0,0-.33-.26,1.89,1.89,0,0,1-.81-.38,2,2,0,0,1-.26-.88,6.33,6.33,0,0,0-.72-2.42,3,3,0,0,0-1.58-1.18c-.34-.12-.5-.28-.5-.48s.11-.28.33-.39A3,3,0,0,0,168,22.25a3.37,3.37,0,0,0,.45-1.72,3.12,3.12,0,0,0-1.29-2.65,6,6,0,0,0-3.63-1.05c-.26,0-.72,0-1.37.07q-1.53.12-2.46.12c-.37,0-.64,0-.81,0-.9-.07-1.46-.1-1.69-.1A5.41,5.41,0,0,0,156,17a1.82,1.82,0,0,0-.82.42.91.91,0,0,0-.29.66.63.63,0,0,0,.16.46,1.79,1.79,0,0,0,.6.4,1.19,1.19,0,0,1,.62.75,9,9,0,0,1,.14,1.94c0,3,0,4.73,0,5.22a5.22,5.22,0,0,1-.22,1.39,1.52,1.52,0,0,1-.61.71,2.15,2.15,0,0,0-.51.41.62.62,0,0,0-.12.4c0,.95,1.27,1.43,3.8,1.43a10.23,10.23,0,0,0,2.89-.28c.57-.19.86-.51.86-1a1,1,0,0,0-.62-.89,1.64,1.64,0,0,1-.39-.28.75.75,0,0,1-.15-.31,9.81,9.81,0,0,1-.16-2,3.5,3.5,0,0,1,.1-1.1.5.5,0,0,1,.5-.24,1.45,1.45,0,0,1,1,.43,3.32,3.32,0,0,1,.6,1.38,22.08,22.08,0,0,0,.64,2.23,4.06,4.06,0,0,0,.66,1.19,3.48,3.48,0,0,0,2.86,1.06,5.8,5.8,0,0,0,2.36-.4,1.69,1.69,0,0,0,.64-.51,1.06,1.06,0,0,0,.24-.64A.81.81,0,0,0,170.64,29.4Zm-7.76-6.89a1.66,1.66,0,0,1-1.31.47.59.59,0,0,1-.44-.12.83.83,0,0,1-.11-.5v-.09l.12-2.39a1,1,0,0,1,.18-.65.7.7,0,0,1,.56-.19q1.41,0,1.41,2A2.23,2.23,0,0,1,162.88,22.51Z"/></svg>