<svg id="Layer_1" data-name="Layer 1" xmlns="http://www.w3.org/2000/svg" xmlns:xlink="http://www.w3.org/1999/xlink" viewBox="0 0 220 48"><defs><style>.cls-1{fill:#17608e;}.cls-2{fill:url(#linear-gradient);}.cls-3{fill:#5fddec;}.cls-4{fill:#fff;}.cls-5{fill:#33b5d4;}</style><linearGradient id="linear-gradient" x1="110" y1="46" x2="110" y2="2" gradientUnits="userSpaceOnUse"><stop offset="0" stop-color="#046bae"/><stop offset="1" stop-color="#0fe1ee"/></linearGradient></defs><title>buttonArtboard 67</title><path class="cls-1" d="M24,48A24,24,0,0,1,24,0H196a24,24,0,0,1,0,48Z"/><rect class="cls-2" x="2" y="2" width="216" height="44" rx="22"/><path class="cls-3" d="M24,40A16,16,0,0,1,24,8H196a16,16,0,0,1,0,32Z"/><ellipse class="cls-4" cx="13.18" cy="12.54" rx="6" ry="2.3" transform="translate(-5.01 12.99) rotate(-45)"/><path class="cls-5" d="M155.31,27a2.48,2.48,0,0,0-.83-.78,5.91,5.91,0,0,0-.77-2.19,4.25,4.25,0,0,0-.31-.43,4.6,4.6,0,0,0,.58-2.25,4.33,4.33,0,0,0-1.8-3.63,6.54,6.54,0,0,0-4-1.19c-.23,0-.62,0-1.2.06s-1.3.08-1.72.08h-.46c-.77-.05-1.25-.08-1.44-.08a5.72,5.72,0,0,0-1.42.15,3.72,3.72,0,0,0-.77.29,2.71,2.71,0,0,0-1.77-.67,2.9,2.9,0,0,0-.83.13,3.94,3.94,0,0,1-.7.14c-.22,0-.66,0-1.6,0h-4a7.32,7.32,0,0,0-1.68.13,2.86,2.86,0,0,0-.41.15,3,3,0,0,0-1.66-.52,3.48,3.48,0,0,0-1,.14,3,3,0,0,1-.66.1h-4.12l-.39,0-.47-.08a3.38,3.38,0,0,0-.81-.1,3.21,3.21,0,0,0-2.26,1,2.89,2.89,0,0,0-1.91-.77,2.85,2.85,0,0,0-.79.11,8.76,8.76,0,0,0-2.3-.37,6.84,6.84,0,0,0-4,1.23,3.46,3.46,0,0,0-1.91-1,10.54,10.54,0,0,0-2.07-.2,12.24,12.24,0,0,0-2.35.23,5.39,5.39,0,0,0-1.82.62c-.1.07-.18.15-.28.23a2.86,2.86,0,0,0-2.11-.94,3.1,3.1,0,0,0-1,.17,8.73,8.73,0,0,0-6.28.51,8,8,0,0,0-1.68,1.16,4.27,4.27,0,0,0-.46-.84,2.76,2.76,0,0,0-3.17-1.15,4.25,4.25,0,0,1-.71.14c-.21,0-.66,0-1.6,0h-4a7.47,7.47,0,0,0-1.69.13,2.71,2.71,0,0,0-1.47,1,1.37,1.37,0,0,0-.13.2l-.32-.26a6.5,6.5,0,0,0-4-1.19c-.22,0-.62,0-1.19.06-.73,0-1.31.08-1.72.08h-.47c-.76-.05-1.25-.08-1.44-.08a5.63,5.63,0,0,0-1.41.15,3.33,3.33,0,0,0-1.52.81,2.68,2.68,0,0,0-.83,1.95,2.53,2.53,0,0,0,.6,1.66,3.18,3.18,0,0,0,.54.48c0,.14,0,.32,0,.56,0,2.92,0,3.66,0,3.85s0,.19,0,.26a3,3,0,0,0-.6.57,2.48,2.48,0,0,0-.49,1.51c0,1.42.84,3.1,4.89,3.1A9.17,9.17,0,0,0,72,31.17a3.28,3.28,0,0,0,.86-.42,5,5,0,0,0,3,.89,6.24,6.24,0,0,0,2.63-.49,3.07,3.07,0,0,0,1.07.18h6.57a9,9,0,0,1,1.07.09,4.33,4.33,0,0,0,.75.08,2.49,2.49,0,0,0,1.51-.5,3.42,3.42,0,0,0,.77-.87c.1-.16.19-.34.29-.51a6.74,6.74,0,0,0,1.26.88,8.57,8.57,0,0,0,6.74.62,7,7,0,0,0,2.28-1.27l.08-.07c.46.88,1.6,1.71,4.24,1.71a12.58,12.58,0,0,0,3-.31,3.94,3.94,0,0,0,1.27-.55,7.65,7.65,0,0,0,1.9.63,11.88,11.88,0,0,0,2.53.28,7.7,7.7,0,0,0,4.86-1.5,5.18,5.18,0,0,0,.73-.67,3.08,3.08,0,0,0,1.93,1.7,11.1,11.1,0,0,0,3.52.43,8.91,8.91,0,0,0,3-.4,3.43,3.43,0,0,0,1.3-.81,2.38,2.38,0,0,0,.42.42,2.87,2.87,0,0,0,1.87.62h6.57a8.75,8.75,0,0,1,1.06.09,4.42,4.42,0,0,0,.76.08,2.51,2.51,0,0,0,1.51-.5l0,0a7.77,7.77,0,0,0,3.11.52,9.17,9.17,0,0,0,2.83-.32,3.13,3.13,0,0,0,.86-.42,5,5,0,0,0,3,.89,6.19,6.19,0,0,0,2.66-.5,3.33,3.33,0,0,0,1.22-1,2.79,2.79,0,0,0,.59-1.7A2.65,2.65,0,0,0,155.31,27ZM78,23.61a.36.36,0,0,0,0-.09.76.76,0,0,1,0,.15Zm42.74,1.22c0-.12,0-.24-.07-.35h.09C120.76,24.59,120.76,24.71,120.75,24.83Zm7.84-.37a3.36,3.36,0,0,0,.63.06,3.75,3.75,0,0,0,.75-.09,15.25,15.25,0,0,1-.14,2.1l-.36.27c-.06-.08-.11-.16-.18-.24a3.66,3.66,0,0,0-.7-.53Zm12-.83h0v-.1l.26-.08v.21A1.6,1.6,0,0,0,140.56,23.63Z"/><path class="cls-1" d="M78,28.92a1.47,1.47,0,0,1-.62-.29,1.39,1.39,0,0,1-.2-.67,4.62,4.62,0,0,0-.55-1.85,2.3,2.3,0,0,0-1.2-.9q-.39-.13-.39-.36c0-.12.09-.22.25-.3a2.15,2.15,0,0,0,1-.89,2.52,2.52,0,0,0,.34-1.3,2.35,2.35,0,0,0-1-2,4.52,4.52,0,0,0-2.77-.8c-.19,0-.54,0-1,.05-.78.06-1.4.09-1.87.09h-.62c-.68-.05-1.11-.08-1.29-.08a3.74,3.74,0,0,0-.92.09,1.34,1.34,0,0,0-.62.31.68.68,0,0,0-.22.51.51.51,0,0,0,.12.35,1.38,1.38,0,0,0,.46.3.85.85,0,0,1,.46.57,6.13,6.13,0,0,1,.11,1.48c0,2.28,0,3.61,0,4a4.25,4.25,0,0,1-.17,1.06,1.15,1.15,0,0,1-.47.54,2,2,0,0,0-.39.31.48.48,0,0,0-.08.3c0,.73,1,1.1,2.89,1.1a7.54,7.54,0,0,0,2.2-.22c.44-.14.66-.38.66-.73a.78.78,0,0,0-.47-.68,1.06,1.06,0,0,1-.3-.21.67.67,0,0,1-.12-.24A7.76,7.76,0,0,1,71,26.86a2.71,2.71,0,0,1,.08-.83c0-.12.18-.18.38-.18a1,1,0,0,1,.79.33,2.35,2.35,0,0,1,.46,1,16.51,16.51,0,0,0,.49,1.71,3,3,0,0,0,.5.9,2.66,2.66,0,0,0,2.18.81,4.25,4.25,0,0,0,1.8-.31,1.21,1.21,0,0,0,.48-.38.8.8,0,0,0,.19-.49.57.57,0,0,0-.1-.34A.48.48,0,0,0,78,28.92Zm-5.67-5.05a1.28,1.28,0,0,1-1,.35.47.47,0,0,1-.33-.09.65.65,0,0,1-.08-.38v-.07L71,21.86a.78.78,0,0,1,.14-.5.55.55,0,0,1,.43-.14c.71,0,1.07.51,1.07,1.51A1.71,1.71,0,0,1,72.34,23.87Z"/><path class="cls-1" d="M88.66,26.63a.65.65,0,0,0-.46.16,2,2,0,0,0-.4.6,2.22,2.22,0,0,1-1,1.09,4.07,4.07,0,0,1-1.77.31A5.11,5.11,0,0,1,84,28.7a.48.48,0,0,1-.39-.33,5.4,5.4,0,0,1-.1-.77,9.15,9.15,0,0,1,0-1,1.92,1.92,0,0,1,.12-.82.51.51,0,0,1,.48-.22.93.93,0,0,1,1,.88,1.23,1.23,0,0,0,.15.56.41.41,0,0,0,.37.14.67.67,0,0,0,.64-.43,4.7,4.7,0,0,0,.38-2,6.61,6.61,0,0,0-.11-1.2,2.24,2.24,0,0,0-.28-.8.67.67,0,0,0-.54-.31.6.6,0,0,0-.39.14.69.69,0,0,0-.21.3,3.51,3.51,0,0,0-.12.62.74.74,0,0,1-.18.49.71.71,0,0,1-.48.13A1.7,1.7,0,0,1,83.5,24c-.1-.08-.16-.27-.16-.58,0-.79,0-1.29,0-1.48a1.28,1.28,0,0,1,.12-.46c.13-.21.5-.32,1.1-.32a5.9,5.9,0,0,1,1.73.18,1.63,1.63,0,0,1,.87.7,1.92,1.92,0,0,0,.39.47.66.66,0,0,0,.4.1.67.67,0,0,0,.59-.29,1.33,1.33,0,0,0,.21-.8,2.87,2.87,0,0,0-.51-1.72.9.9,0,0,0-.72-.44,1.14,1.14,0,0,0-.26.05,6.56,6.56,0,0,1-1.09.21c-.37,0-1,.05-1.78.05h-4a6.08,6.08,0,0,0-1.18.07.7.7,0,0,0-.39.26.69.69,0,0,0-.15.44.57.57,0,0,0,.45.6,1.76,1.76,0,0,1,.39.14.67.67,0,0,1,.17.22,11.55,11.55,0,0,1,.37,3.81,15,15,0,0,1-.26,3.18,1.1,1.1,0,0,1-.17.43.79.79,0,0,1-.35.25,1.65,1.65,0,0,0-.43.26.5.5,0,0,0-.09.33.61.61,0,0,0,.22.5,1,1,0,0,0,.61.17h6.63a9.68,9.68,0,0,1,1.33.12,3.32,3.32,0,0,0,.43.05.49.49,0,0,0,.3-.09,1.54,1.54,0,0,0,.3-.36,5.79,5.79,0,0,0,.59-1.25,3.79,3.79,0,0,0,.24-1.17,1.18,1.18,0,0,0-.21-.72A.64.64,0,0,0,88.66,26.63Z"/><path class="cls-1" d="M101.22,25A7.45,7.45,0,0,0,99,24.76a7.23,7.23,0,0,0-2.18.3c-.57.18-.86.49-.86.92a.74.74,0,0,0,.22.54.76.76,0,0,0,.56.22h.45a.43.43,0,0,1,.16.07.62.62,0,0,1,.22.54,1,1,0,0,1-.26.69.9.9,0,0,1-.67.27,2,2,0,0,1-1-.29,2.83,2.83,0,0,1-.86-.76,5.25,5.25,0,0,1-1-3.18,3.13,3.13,0,0,1,.59-2,2,2,0,0,1,1.62-.74,2.5,2.5,0,0,1,2,1,8.09,8.09,0,0,0,.65.74,1.45,1.45,0,0,0,.89.32,1.1,1.1,0,0,0,.9-.41A1.71,1.71,0,0,0,100.8,22a2.94,2.94,0,0,0-.64-1.81,1.11,1.11,0,0,0-.84-.51,1.33,1.33,0,0,0-.34.05,2.58,2.58,0,0,1-.65.18,2.12,2.12,0,0,1-.56-.13,6.34,6.34,0,0,0-1.93-.29,6.2,6.2,0,0,0-2.9.66,5.45,5.45,0,0,0-2.28,2.1,5.15,5.15,0,0,0-.76,2.69,5.41,5.41,0,0,0,.64,2.6,5.32,5.32,0,0,0,2.23,2.25,6.37,6.37,0,0,0,3.14.79,6,6,0,0,0,2-.32,4.87,4.87,0,0,0,1.62-.89,4.06,4.06,0,0,0,1.31-2.08,1.21,1.21,0,0,1,.17-.4.77.77,0,0,1,.36-.12.83.83,0,0,0,.51-.25.71.71,0,0,0,.19-.48C102.07,25.53,101.79,25.21,101.22,25Z"/><path class="cls-1" d="M108,21.23a2.67,2.67,0,0,0,.54-.33.5.5,0,0,0,.11-.34c0-.46-.36-.76-1.07-.9a8.87,8.87,0,0,0-1.68-.16,10.05,10.05,0,0,0-2,.2,3.74,3.74,0,0,0-1.15.35.63.63,0,0,0-.32.54.52.52,0,0,0,.11.36,1.77,1.77,0,0,0,.43.35,1.17,1.17,0,0,1,.52.58,9.52,9.52,0,0,1,.2,2.56,29,29,0,0,1-.15,3.78.87.87,0,0,1-.45.64c-.33.21-.5.43-.5.66,0,.65.85,1,2.55,1a10.72,10.72,0,0,0,2.52-.25c.64-.16,1-.44,1-.86a.75.75,0,0,0-.52-.68,1.45,1.45,0,0,1-.4-.26.76.76,0,0,1-.16-.35,25.68,25.68,0,0,1-.15-3.7,16.85,16.85,0,0,1,.11-2.37A1,1,0,0,1,108,21.23Z"/><path class="cls-1" d="M116.85,23.89a19.36,19.36,0,0,0-2.07-.69c-.8-.23-1.19-.57-1.19-1a.67.67,0,0,1,.26-.56,1.06,1.06,0,0,1,.7-.21,2.72,2.72,0,0,1,1.84.88,9.72,9.72,0,0,0,.86.74,1,1,0,0,0,.51.12.8.8,0,0,0,.63-.3,1.05,1.05,0,0,0,.27-.74,2.75,2.75,0,0,0-.59-1.57c-.38-.56-.75-.83-1.1-.83a.84.84,0,0,0-.27,0,1.84,1.84,0,0,1-.47.14,1,1,0,0,1-.25,0,7.46,7.46,0,0,0-2.1-.4,4.85,4.85,0,0,0-3.21,1.1,3.36,3.36,0,0,0-.9,1.13,2.9,2.9,0,0,0-.32,1.34,3.25,3.25,0,0,0,1.23,2.48,4.88,4.88,0,0,0,1.09.74,12.09,12.09,0,0,0,1.71.65,2.88,2.88,0,0,1,.91.42.66.66,0,0,1,.28.54.64.64,0,0,1-.36.55,1.83,1.83,0,0,1-.93.21,3,3,0,0,1-1.31-.29,2.12,2.12,0,0,1-.91-.72,10.77,10.77,0,0,0-.78-1.1.75.75,0,0,0-.57-.31.58.58,0,0,0-.49.25.93.93,0,0,0-.16.58,4.87,4.87,0,0,0,.3,1.64,2.26,2.26,0,0,0,.68,1.09,4.93,4.93,0,0,0,1.6.55,10,10,0,0,0,2.11.24,5.72,5.72,0,0,0,3.63-1.08,3.26,3.26,0,0,0,1.36-2.71A3.07,3.07,0,0,0,116.85,23.89Z"/><path class="cls-1" d="M128.55,19.43a1.69,1.69,0,0,0-.41.06,5.5,5.5,0,0,1-1.21.18h-4.12a5.72,5.72,0,0,1-.62,0q-.27,0-.69-.12a1.72,1.72,0,0,0-.36-.05,1.58,1.58,0,0,0-1.17.8,4.48,4.48,0,0,0-.59,1.07,3.24,3.24,0,0,0-.22,1.07,1.16,1.16,0,0,0,.28.81.87.87,0,0,0,.69.32,1.34,1.34,0,0,0,.78-.31,4.65,4.65,0,0,0,.86-1.05c.19-.3.39-.44.59-.44a.38.38,0,0,1,.36.3,3.25,3.25,0,0,1,.11,1c0,.66,0,1.45-.06,2.36s-.07,1.56-.11,2a3.2,3.2,0,0,1-.19.93.61.61,0,0,1-.41.33,3.86,3.86,0,0,0-.55.19.55.55,0,0,0-.28.5c0,.39.26.68.79.86a9.61,9.61,0,0,0,2.87.32,7.18,7.18,0,0,0,2.34-.28c.51-.18.76-.46.76-.83a.6.6,0,0,0-.15-.44,1.72,1.72,0,0,0-.57-.34,1,1,0,0,1-.54-.47,2.6,2.6,0,0,1-.14-1V22.79a1.9,1.9,0,0,1,.13-.8.42.42,0,0,1,.41-.24.52.52,0,0,1,.36.14,2.82,2.82,0,0,1,.41.64,2.51,2.51,0,0,0,.6.76,1.17,1.17,0,0,0,.72.23,1.26,1.26,0,0,0,.75-.23,1.16,1.16,0,0,0,.41-1,3.62,3.62,0,0,0-.59-1.93C129.39,19.74,129,19.43,128.55,19.43Z"/><path class="cls-1" d="M140.56,26.63a.62.62,0,0,0-.45.16,2,2,0,0,0-.4.6,2.19,2.19,0,0,1-1,1.09,4,4,0,0,1-1.76.31,5.22,5.22,0,0,1-1.09-.09.48.48,0,0,1-.38-.33,4.94,4.94,0,0,1-.11-.77c0-.39-.05-.7-.05-1a1.74,1.74,0,0,1,.13-.82.51.51,0,0,1,.48-.22.92.92,0,0,1,1,.88,1.34,1.34,0,0,0,.16.56.41.41,0,0,0,.37.14.68.68,0,0,0,.64-.43,4.7,4.7,0,0,0,.38-2,6.61,6.61,0,0,0-.11-1.2,2.24,2.24,0,0,0-.28-.8.67.67,0,0,0-.55-.31.59.59,0,0,0-.38.14.64.64,0,0,0-.22.3,3.79,3.79,0,0,0-.11.62.8.8,0,0,1-.19.49.68.68,0,0,1-.47.13,1.67,1.67,0,0,1-.82-.11c-.11-.08-.16-.27-.16-.58,0-.79,0-1.29,0-1.48a1,1,0,0,1,.12-.46c.13-.21.5-.32,1.09-.32a5.85,5.85,0,0,1,1.73.18,1.62,1.62,0,0,1,.88.7,2.22,2.22,0,0,0,.38.47.69.69,0,0,0,.41.1.66.66,0,0,0,.58-.29,1.27,1.27,0,0,0,.22-.8,2.81,2.81,0,0,0-.52-1.72.87.87,0,0,0-.71-.44,1.05,1.05,0,0,0-.26.05,6.77,6.77,0,0,1-1.09.21c-.37,0-1,.05-1.78.05h-4a6,6,0,0,0-1.17.07.69.69,0,0,0-.4.26.74.74,0,0,0-.14.44.57.57,0,0,0,.44.6,1.43,1.43,0,0,1,.39.14.67.67,0,0,1,.17.22,11.45,11.45,0,0,1,.38,3.81,15.7,15.7,0,0,1-.26,3.18,1.1,1.1,0,0,1-.17.43.85.85,0,0,1-.35.25,1.48,1.48,0,0,0-.43.26.5.5,0,0,0-.1.33.64.64,0,0,0,.22.5,1,1,0,0,0,.62.17h6.63a9.84,9.84,0,0,1,1.33.12,3.14,3.14,0,0,0,.43.05.49.49,0,0,0,.3-.09,1.56,1.56,0,0,0,.29-.36,5.37,5.37,0,0,0,.6-1.25,3.79,3.79,0,0,0,.24-1.17,1.18,1.18,0,0,0-.21-.72A.67.67,0,0,0,140.56,26.63Z"/><path class="cls-1" d="M153.64,29.12a.48.48,0,0,0-.25-.2,1.54,1.54,0,0,1-.62-.29,1.51,1.51,0,0,1-.2-.67,4.62,4.62,0,0,0-.55-1.85,2.26,2.26,0,0,0-1.2-.9c-.25-.09-.38-.21-.38-.36s.08-.22.25-.3a2.18,2.18,0,0,0,.94-.89,2.53,2.53,0,0,0,.35-1.3,2.36,2.36,0,0,0-1-2,4.51,4.51,0,0,0-2.76-.8c-.2,0-.55,0-1,.05-.78.06-1.41.09-1.88.09h-.61c-.69-.05-1.12-.08-1.29-.08a3.83,3.83,0,0,0-.93.09,1.34,1.34,0,0,0-.62.31.68.68,0,0,0-.22.51.51.51,0,0,0,.12.35,1.5,1.5,0,0,0,.46.3.9.9,0,0,1,.47.57,6.72,6.72,0,0,1,.11,1.48c0,2.28,0,3.61,0,4a3.82,3.82,0,0,1-.17,1.06,1.18,1.18,0,0,1-.46.54,1.83,1.83,0,0,0-.4.31.56.56,0,0,0-.08.3c0,.73,1,1.1,2.89,1.1a7.62,7.62,0,0,0,2.21-.22c.43-.14.65-.38.65-.73a.78.78,0,0,0-.47-.68,1.06,1.06,0,0,1-.3-.21.53.53,0,0,1-.11-.24,7,7,0,0,1-.13-1.55,2.71,2.71,0,0,1,.08-.83.38.38,0,0,1,.38-.18,1,1,0,0,1,.79.33,2.35,2.35,0,0,1,.46,1,16.51,16.51,0,0,0,.49,1.71,3.47,3.47,0,0,0,.5.9,2.66,2.66,0,0,0,2.18.81,4.25,4.25,0,0,0,1.8-.31,1.21,1.21,0,0,0,.48-.38.8.8,0,0,0,.19-.49A.57.57,0,0,0,153.64,29.12Zm-5.91-5.25a1.3,1.3,0,0,1-1,.35.48.48,0,0,1-.34-.09.65.65,0,0,1-.08-.38v-.07l.09-1.82a.85.85,0,0,1,.14-.5.57.57,0,0,1,.43-.14c.71,0,1.07.51,1.07,1.51A1.76,1.76,0,0,1,147.73,23.87Z"/><path class="cls-4" d="M78,27.92a1.47,1.47,0,0,1-.62-.29,1.39,1.39,0,0,1-.2-.67,4.62,4.62,0,0,0-.55-1.85,2.3,2.3,0,0,0-1.2-.9q-.39-.13-.39-.36c0-.12.09-.22.25-.3a2.15,2.15,0,0,0,1-.89,2.52,2.52,0,0,0,.34-1.3,2.35,2.35,0,0,0-1-2,4.52,4.52,0,0,0-2.77-.8c-.19,0-.54,0-1,.05-.78.06-1.4.09-1.87.09h-.62c-.68-.05-1.11-.08-1.29-.08a3.74,3.74,0,0,0-.92.09,1.34,1.34,0,0,0-.62.31.68.68,0,0,0-.22.51.51.51,0,0,0,.12.35,1.38,1.38,0,0,0,.46.3.85.85,0,0,1,.46.57,6.13,6.13,0,0,1,.11,1.48c0,2.28,0,3.61,0,4a4.25,4.25,0,0,1-.17,1.06,1.15,1.15,0,0,1-.47.54,2,2,0,0,0-.39.31.48.48,0,0,0-.08.3c0,.73,1,1.1,2.89,1.1a7.54,7.54,0,0,0,2.2-.22c.44-.14.66-.38.66-.73a.78.78,0,0,0-.47-.68,1.06,1.06,0,0,1-.3-.21.67.67,0,0,1-.12-.24A7.76,7.76,0,0,1,71,25.86a2.71,2.71,0,0,1,.08-.83c0-.12.18-.18.38-.18a1,1,0,0,1,.79.33,2.35,2.35,0,0,1,.46,1,16.51,16.51,0,0,0,.49,1.71,3,3,0,0,0,.5.9,2.66,2.66,0,0,0,2.18.81,4.25,4.25,0,0,0,1.8-.31,1.21,1.21,0,0,0,.48-.38.8.8,0,0,0,.19-.49.57.57,0,0,0-.1-.34A.48.48,0,0,0,78,27.92Zm-5.67-5.05a1.28,1.28,0,0,1-1,.35.47.47,0,0,1-.33-.09.65.65,0,0,1-.08-.38v-.07L71,20.86a.78.78,0,0,1,.14-.5.55.55,0,0,1,.43-.14c.71,0,1.07.51,1.07,1.51A1.71,1.71,0,0,1,72.34,22.87Z"/><path class="cls-4" d="M88.66,25.63a.65.65,0,0,0-.46.16,2,2,0,0,0-.4.6,2.22,2.22,0,0,1-1,1.09,4.07,4.07,0,0,1-1.77.31A5.11,5.11,0,0,1,84,27.7a.48.48,0,0,1-.39-.33,5.4,5.4,0,0,1-.1-.77,9.15,9.15,0,0,1,0-1,1.92,1.92,0,0,1,.12-.82.51.51,0,0,1,.48-.22.93.93,0,0,1,1,.88,1.23,1.23,0,0,0,.15.56.41.41,0,0,0,.37.14.67.67,0,0,0,.64-.43,4.7,4.7,0,0,0,.38-2,6.61,6.61,0,0,0-.11-1.2,2.24,2.24,0,0,0-.28-.8.67.67,0,0,0-.54-.31.6.6,0,0,0-.39.14.69.69,0,0,0-.21.3,3.51,3.51,0,0,0-.12.62.74.74,0,0,1-.18.49.71.71,0,0,1-.48.13A1.7,1.7,0,0,1,83.5,23c-.1-.08-.16-.27-.16-.58,0-.79,0-1.29,0-1.48a1.28,1.28,0,0,1,.12-.46c.13-.21.5-.32,1.1-.32a5.9,5.9,0,0,1,1.73.18,1.63,1.63,0,0,1,.87.7,1.92,1.92,0,0,0,.39.47.66.66,0,0,0,.4.1.67.67,0,0,0,.59-.29,1.33,1.33,0,0,0,.21-.8,2.87,2.87,0,0,0-.51-1.72.9.9,0,0,0-.72-.44,1.14,1.14,0,0,0-.26.05,6.56,6.56,0,0,1-1.09.21c-.37,0-1,.05-1.78.05h-4a6.08,6.08,0,0,0-1.18.07.7.7,0,0,0-.39.26.69.69,0,0,0-.15.44.57.57,0,0,0,.45.6,1.76,1.76,0,0,1,.39.14.67.67,0,0,1,.17.22,11.55,11.55,0,0,1,.37,3.81,15,15,0,0,1-.26,3.18,1.1,1.1,0,0,1-.17.43.79.79,0,0,1-.35.25,1.65,1.65,0,0,0-.43.26.5.5,0,0,0-.09.33.61.61,0,0,0,.22.5,1,1,0,0,0,.61.17h6.63a9.68,9.68,0,0,1,1.33.12,3.32,3.32,0,0,0,.43.05.49.49,0,0,0,.3-.09,1.54,1.54,0,0,0,.3-.36,5.79,5.79,0,0,0,.59-1.25,3.79,3.79,0,0,0,.24-1.17,1.18,1.18,0,0,0-.21-.72A.64.64,0,0,0,88.66,25.63Z"/><path class="cls-4" d="M101.22,24A7.45,7.45,0,0,0,99,23.76a7.23,7.23,0,0,0-2.18.3c-.57.18-.86.49-.86.92a.74.74,0,0,0,.22.54.76.76,0,0,0,.56.22h.45a.43.43,0,0,1,.16.07.62.62,0,0,1,.22.54,1,1,0,0,1-.26.69.9.9,0,0,1-.67.27,2,2,0,0,1-1-.29,2.83,2.83,0,0,1-.86-.76,5.25,5.25,0,0,1-1-3.18,3.13,3.13,0,0,1,.59-2,2,2,0,0,1,1.62-.74,2.5,2.5,0,0,1,2,1,8.09,8.09,0,0,0,.65.74,1.45,1.45,0,0,0,.89.32,1.1,1.1,0,0,0,.9-.41A1.71,1.71,0,0,0,100.8,21a2.94,2.94,0,0,0-.64-1.81,1.11,1.11,0,0,0-.84-.51,1.33,1.33,0,0,0-.34.05,2.58,2.58,0,0,1-.65.18,2.12,2.12,0,0,1-.56-.13,6.34,6.34,0,0,0-1.93-.29,6.2,6.2,0,0,0-2.9.66,5.45,5.45,0,0,0-2.28,2.1,5.15,5.15,0,0,0-.76,2.69,5.41,5.41,0,0,0,.64,2.6,5.32,5.32,0,0,0,2.23,2.25,6.37,6.37,0,0,0,3.14.79,6,6,0,0,0,2-.32,4.87,4.87,0,0,0,1.62-.89,4.06,4.06,0,0,0,1.31-2.08,1.21,1.21,0,0,1,.17-.4.77.77,0,0,1,.36-.12.83.83,0,0,0,.51-.25.71.71,0,0,0,.19-.48C102.07,24.53,101.79,24.21,101.22,24Z"/><path class="cls-4" d="M108,20.23a2.67,2.67,0,0,0,.54-.33.5.5,0,0,0,.11-.34c0-.46-.36-.76-1.07-.9a8.87,8.87,0,0,0-1.68-.16,10.05,10.05,0,0,0-2,.2,3.74,3.74,0,0,0-1.15.35.63.63,0,0,0-.32.54.52.52,0,0,0,.11.36,1.77,1.77,0,0,0,.43.35,1.17,1.17,0,0,1,.52.58,9.52,9.52,0,0,1,.2,2.56,29,29,0,0,1-.15,3.78.87.87,0,0,1-.45.64c-.33.21-.5.43-.5.66,0,.65.85,1,2.55,1a10.72,10.72,0,0,0,2.52-.25c.64-.16,1-.44,1-.86a.75.75,0,0,0-.52-.68,1.45,1.45,0,0,1-.4-.26.76.76,0,0,1-.16-.35,25.68,25.68,0,0,1-.15-3.7,16.85,16.85,0,0,1,.11-2.37A1,1,0,0,1,108,20.23Z"/><path class="cls-4" d="M116.85,22.89a19.36,19.36,0,0,0-2.07-.69c-.8-.23-1.19-.57-1.19-1a.67.67,0,0,1,.26-.56,1.06,1.06,0,0,1,.7-.21,2.72,2.72,0,0,1,1.84.88,9.72,9.72,0,0,0,.86.74,1,1,0,0,0,.51.12.8.8,0,0,0,.63-.3,1.05,1.05,0,0,0,.27-.74,2.75,2.75,0,0,0-.59-1.57c-.38-.56-.75-.83-1.1-.83a.84.84,0,0,0-.27,0,1.84,1.84,0,0,1-.47.14,1,1,0,0,1-.25,0,7.46,7.46,0,0,0-2.1-.4,4.85,4.85,0,0,0-3.21,1.1,3.36,3.36,0,0,0-.9,1.13,2.9,2.9,0,0,0-.32,1.34,3.25,3.25,0,0,0,1.23,2.48,4.88,4.88,0,0,0,1.09.74,12.09,12.09,0,0,0,1.71.65,2.88,2.88,0,0,1,.91.42.66.66,0,0,1,.28.54.64.64,0,0,1-.36.55,1.83,1.83,0,0,1-.93.21,3,3,0,0,1-1.31-.29,2.12,2.12,0,0,1-.91-.72,10.77,10.77,0,0,0-.78-1.1.75.75,0,0,0-.57-.31.58.58,0,0,0-.49.25.93.93,0,0,0-.16.58,4.87,4.87,0,0,0,.3,1.64,2.26,2.26,0,0,0,.68,1.09,4.93,4.93,0,0,0,1.6.55,10,10,0,0,0,2.11.24,5.72,5.72,0,0,0,3.63-1.08,3.26,3.26,0,0,0,1.36-2.71A3.07,3.07,0,0,0,116.85,22.89Z"/><path class="cls-4" d="M128.55,18.43a1.69,1.69,0,0,0-.41.06,5.5,5.5,0,0,1-1.21.18h-4.12a5.72,5.72,0,0,1-.62,0q-.27,0-.69-.12a1.72,1.72,0,0,0-.36-.05,1.58,1.58,0,0,0-1.17.8,4.48,4.48,0,0,0-.59,1.07,3.24,3.24,0,0,0-.22,1.07,1.16,1.16,0,0,0,.28.81.87.87,0,0,0,.69.32,1.34,1.34,0,0,0,.78-.31,4.65,4.65,0,0,0,.86-1.05c.19-.3.39-.44.59-.44a.38.38,0,0,1,.36.3,3.25,3.25,0,0,1,.11,1c0,.66,0,1.45-.06,2.36s-.07,1.56-.11,2a3.2,3.2,0,0,1-.19.93.61.61,0,0,1-.41.33,3.86,3.86,0,0,0-.55.19.55.55,0,0,0-.28.5c0,.39.26.68.79.86a9.61,9.61,0,0,0,2.87.32,7.18,7.18,0,0,0,2.34-.28c.51-.18.76-.46.76-.83a.6.6,0,0,0-.15-.44,1.72,1.72,0,0,0-.57-.34,1,1,0,0,1-.54-.47,2.6,2.6,0,0,1-.14-1V21.79a1.9,1.9,0,0,1,.13-.8.42.42,0,0,1,.41-.24.52.52,0,0,1,.36.14,2.82,2.82,0,0,1,.41.64,2.51,2.51,0,0,0,.6.76,1.17,1.17,0,0,0,.72.23,1.26,1.26,0,0,0,.75-.23,1.16,1.16,0,0,0,.41-1,3.62,3.62,0,0,0-.59-1.93C129.39,18.74,129,18.43,128.55,18.43Z"/><path class="cls-4" d="M140.56,25.63a.62.62,0,0,0-.45.16,2,2,0,0,0-.4.6,2.19,2.19,0,0,1-1,1.09,4,4,0,0,1-1.76.31,5.22,5.22,0,0,1-1.09-.09.48.48,0,0,1-.38-.33,4.94,4.94,0,0,1-.11-.77c0-.39-.05-.7-.05-1a1.74,1.74,0,0,1,.13-.82.51.51,0,0,1,.48-.22.92.92,0,0,1,1,.88,1.34,1.34,0,0,0,.16.56.41.41,0,0,0,.37.14.68.68,0,0,0,.64-.43,4.7,4.7,0,0,0,.38-2,6.61,6.61,0,0,0-.11-1.2,2.24,2.24,0,0,0-.28-.8.67.67,0,0,0-.55-.31.59.59,0,0,0-.38.14.64.64,0,0,0-.22.3,3.79,3.79,0,0,0-.11.62.8.8,0,0,1-.19.49.68.68,0,0,1-.47.13,1.67,1.67,0,0,1-.82-.11c-.11-.08-.16-.27-.16-.58,0-.79,0-1.29,0-1.48a1,1,0,0,1,.12-.46c.13-.21.5-.32,1.09-.32a5.85,5.85,0,0,1,1.73.18,1.62,1.62,0,0,1,.88.7,2.22,2.22,0,0,0,.38.47.69.69,0,0,0,.41.1.66.66,0,0,0,.58-.29,1.27,1.27,0,0,0,.22-.8,2.81,2.81,0,0,0-.52-1.72.87.87,0,0,0-.71-.44,1.05,1.05,0,0,0-.26.05,6.77,6.77,0,0,1-1.09.21c-.37,0-1,.05-1.78.05h-4a6,6,0,0,0-1.17.07.69.69,0,0,0-.4.26.74.74,0,0,0-.14.44.57.57,0,0,0,.44.6,1.43,1.43,0,0,1,.39.14.67.67,0,0,1,.17.22,11.45,11.45,0,0,1,.38,3.81,15.7,15.7,0,0,1-.26,3.18,1.1,1.1,0,0,1-.17.43.85.85,0,0,1-.35.25,1.48,1.48,0,0,0-.43.26.5.5,0,0,0-.1.33.64.64,0,0,0,.22.5,1,1,0,0,0,.62.17h6.63a9.84,9.84,0,0,1,1.33.12,3.14,3.14,0,0,0,.43.05.49.49,0,0,0,.3-.09,1.56,1.56,0,0,0,.29-.36,5.37,5.37,0,0,0,.6-1.25,3.79,3.79,0,0,0,.24-1.17,1.18,1.18,0,0,0-.21-.72A.67.67,0,0,0,140.56,25.63Z"/><path class="cls-4" d="M153.64,28.12a.48.48,0,0,0-.25-.2,1.54,1.54,0,0,1-.62-.29,1.51,1.51,0,0,1-.2-.67,4.62,4.62,0,0,0-.55-1.85,2.26,2.26,0,0,0-1.2-.9c-.25-.09-.38-.21-.38-.36s.08-.22.25-.3a2.18,2.18,0,0,0,.94-.89,2.53,2.53,0,0,0,.35-1.3,2.36,2.36,0,0,0-1-2,4.51,4.51,0,0,0-2.76-.8c-.2,0-.55,0-1,.05-.78.06-1.41.09-1.88.09h-.61c-.69-.05-1.12-.08-1.29-.08a3.83,3.83,0,0,0-.93.09,1.34,1.34,0,0,0-.62.31.68.68,0,0,0-.22.51.51.51,0,0,0,.12.35,1.5,1.5,0,0,0,.46.3.9.9,0,0,1,.47.57,6.72,6.72,0,0,1,.11,1.48c0,2.28,0,3.61,0,4a3.82,3.82,0,0,1-.17,1.06,1.18,1.18,0,0,1-.46.54,1.83,1.83,0,0,0-.4.31.56.56,0,0,0-.08.3c0,.73,1,1.1,2.89,1.1a7.62,7.62,0,0,0,2.21-.22c.43-.14.65-.38.65-.73a.78.78,0,0,0-.47-.68,1.06,1.06,0,0,1-.3-.21.53.53,0,0,1-.11-.24,7,7,0,0,1-.13-1.55,2.71,2.71,0,0,1,.08-.83.38.38,0,0,1,.38-.18,1,1,0,0,1,.79.33,2.35,2.35,0,0,1,.46,1,16.51,16.51,0,0,0,.49,1.71,3.47,3.47,0,0,0,.5.9,2.66,2.66,0,0,0,2.18.81,4.25,4.25,0,0,0,1.8-.31,1.21,1.21,0,0,0,.48-.38.8.8,0,0,0,.19-.49A.57.57,0,0,0,153.64,28.12Zm-5.91-5.25a1.3,1.3,0,0,1-1,.35.48.48,0,0,1-.34-.09.65.65,0,0,1-.08-.38v-.07l.09-1.82a.85.85,0,0,1,.14-.5.57.57,0,0,1,.43-.14c.71,0,1.07.51,1.07,1.51A1.76,1.76,0,0,1,147.73,22.87Z"/></svg>