<svg xmlns="http://www.w3.org/2000/svg" viewBox="0 0 72 26"><defs><style>.cls-1{isolation:isolate;}.cls-2,.cls-4{fill:#08231a;}.cls-2{opacity:0.44;mix-blend-mode:multiply;}.cls-3{fill:#09634b;}.cls-5{fill:#6dc079;}</style></defs><title>buttonArtboard 102</title><g class="cls-1"><g id="Layer_1" data-name="Layer 1"><rect class="cls-2" y="2" width="72" height="24" rx="12"/><rect class="cls-3" width="72" height="24" rx="12"/><path class="cls-4" d="M12,22A10,10,0,0,1,12,2H60a10,10,0,0,1,0,20Z"/><path class="cls-3" d="M65.29,9.33H62.62V6.67A2.67,2.67,0,0,0,60,4h0a2.66,2.66,0,0,0-2.66,2.67V9.33H54.62a2.67,2.67,0,1,0,0,5.34h2.67v2.66A2.66,2.66,0,0,0,60,20h0a2.67,2.67,0,0,0,2.67-2.67V14.67h2.67a2.67,2.67,0,0,0,0-5.34Z"/><path class="cls-5" d="M60,19.56a2.23,2.23,0,0,1-2.22-2.23V14.22H54.62a2.22,2.22,0,1,1,0-4.44h3.11V6.67a2.22,2.22,0,1,1,4.44,0V9.78h3.11a2.22,2.22,0,1,1,0,4.44H62.17v3.11A2.22,2.22,0,0,1,60,19.56Z"/></g></g></svg>