<svg xmlns="http://www.w3.org/2000/svg" viewBox="0 0 48 50"><defs><style>.cls-1{isolation:isolate;}.cls-2{fill:#202324;opacity:0.5;mix-blend-mode:multiply;}.cls-3{fill:#fe9853;}.cls-4{fill:#f7c77d;}.cls-5{fill:#b1482a;}.cls-6{fill:#fbe3be;}.cls-7{fill:#bc5534;}.cls-8{fill:#ffec98;}.cls-9{fill:#fff6c7;}.cls-10{fill:#fefbf6;}</style></defs><title>buttonArtboard 91</title><g class="cls-1"><g id="Layer_1" data-name="Layer 1"><path class="cls-2" d="M39.27,5.48A19.86,19.86,0,0,0,28,2H20A20,20,0,0,0,0,22v8A20,20,0,0,0,20,50h8A20,20,0,0,0,48,30V22A20,20,0,0,0,39.27,5.48Z"/><path class="cls-3" d="M39.27,3.48A19.86,19.86,0,0,0,28,0H20A20,20,0,0,0,0,20v8A20,20,0,0,0,20,48h8A20,20,0,0,0,48,28V20A20,20,0,0,0,39.27,3.48Z"/><path class="cls-3" d="M27,48h1A20,20,0,0,0,48,28V27A21,21,0,0,1,27,48Z"/><path class="cls-4" d="M39.27,3.48A19.86,19.86,0,0,0,28,0H20A20,20,0,0,0,0,20v8A20,20,0,0,0,20,48h1.49A19,19,0,0,1,2.55,29.06V23.55a21,21,0,0,1,21-21h5.51A19,19,0,0,1,48,21.49V20A20,20,0,0,0,39.27,3.48Z"/><path class="cls-5" d="M28,44.6H20a20,20,0,0,1-20-20V28A20,20,0,0,0,20,48h8A20,20,0,0,0,48,28V24.6A20,20,0,0,1,28,44.6Z"/><rect class="cls-6" x="3.66" y="5.28" width="8" height="4" rx="2" transform="translate(-2.91 7.55) rotate(-45)"/><path class="cls-7" d="M34.66,20.77H22.19V16.62a2.68,2.68,0,0,0-4.56-1.85L9.3,22.92a4.3,4.3,0,0,0,0,6.16l8.33,8.15a2.68,2.68,0,0,0,4.56-1.85V31.23H34.66A5.28,5.28,0,0,0,40,26h0A5.28,5.28,0,0,0,34.66,20.77Z"/><path class="cls-8" d="M34.66,18.77H22.19V14.62a2.68,2.68,0,0,0-4.56-1.85L9.3,20.92a4.3,4.3,0,0,0,0,6.16l8.33,8.15a2.68,2.68,0,0,0,4.56-1.85V29.23H34.66A5.28,5.28,0,0,0,40,24h0A5.28,5.28,0,0,0,34.66,18.77Z"/><path class="cls-9" d="M9.3,22.42l8.33-8.15a2.68,2.68,0,0,1,4.56,1.85v-1.5a2.68,2.68,0,0,0-4.56-1.85L9.3,20.92a4.3,4.3,0,0,0-1.23,3.83A4.39,4.39,0,0,1,9.3,22.42Z"/><path class="cls-9" d="M22.19,20.27H34.66a5.29,5.29,0,0,1,5.26,4.48A4.65,4.65,0,0,0,40,24a5.28,5.28,0,0,0-5.34-5.23H22.19Z"/><ellipse class="cls-10" cx="16.11" cy="15.73" rx="2.81" ry="1.04" transform="translate(-6.41 16) rotate(-45)"/></g></g></svg>