<svg xmlns="http://www.w3.org/2000/svg" viewBox="0 0 48 50"><defs><style>.cls-1{isolation:isolate;}.cls-2{fill:#202324;opacity:0.5;mix-blend-mode:multiply;}.cls-3{fill:#fe9853;}.cls-4{fill:#f7c77d;}.cls-5{fill:#b1482a;}.cls-6{fill:#fbe3be;}.cls-7{fill:#bc5534;}.cls-8{fill:#ffec98;}.cls-9{fill:#fff6c7;}</style></defs><title>buttonArtboard 93</title><g class="cls-1"><g id="Layer_1" data-name="Layer 1"><path class="cls-2" d="M39.27,5.48A19.86,19.86,0,0,0,28,2H20A20,20,0,0,0,0,22v8A20,20,0,0,0,20,50h8A20,20,0,0,0,48,30V22A20,20,0,0,0,39.27,5.48Z"/><path class="cls-3" d="M39.27,3.48A19.86,19.86,0,0,0,28,0H20A20,20,0,0,0,0,20v8A20,20,0,0,0,20,48h8A20,20,0,0,0,48,28V20A20,20,0,0,0,39.27,3.48Z"/><path class="cls-3" d="M27,48h1A20,20,0,0,0,48,28V27A21,21,0,0,1,27,48Z"/><path class="cls-4" d="M39.27,3.48A19.86,19.86,0,0,0,28,0H20A20,20,0,0,0,0,20v8A20,20,0,0,0,20,48h1.49A19,19,0,0,1,2.55,29.06V23.55a21,21,0,0,1,21-21h5.51A19,19,0,0,1,48,21.49V20A20,20,0,0,0,39.27,3.48Z"/><path class="cls-5" d="M28,44.6H20a20,20,0,0,1-20-20V28A20,20,0,0,0,20,48h8A20,20,0,0,0,48,28V24.6A20,20,0,0,1,28,44.6Z"/><rect class="cls-6" x="3.66" y="5.28" width="8" height="4" rx="2" transform="translate(-2.91 7.55) rotate(-45)"/><path class="cls-7" d="M31.53,25.34,35,21.83a5,5,0,0,0,0-7h0a5,5,0,0,0-7,0L24.5,18.32,21,14.8a5,5,0,0,0-7,0h0a5,5,0,0,0,0,7l3.52,3.51L14,28.86a5,5,0,0,0,7,7l3.52-3.52L28,35.89a5,5,0,0,0,7-7Z"/><path class="cls-8" d="M31.53,23.34,35,19.83a5,5,0,0,0,0-7h0a5,5,0,0,0-7,0L24.5,16.32,21,12.8a5,5,0,0,0-7,0h0a5,5,0,0,0,0,7l3.52,3.51L14,26.86a5,5,0,0,0,7,7l3.52-3.52L28,33.89a5,5,0,0,0,7-7Z"/><path class="cls-9" d="M14,27.86l3.52-3.52-.5-.5-3,3a4.91,4.91,0,0,0-1.4,4A4.9,4.9,0,0,1,14,27.86Z"/><path class="cls-9" d="M14,13.8h0a5,5,0,0,1,7,0l3.52,3.52L28,13.8a5,5,0,0,1,7,0h0a4.94,4.94,0,0,1,1.41,3,5,5,0,0,0-1.41-4h0a5,5,0,0,0-7,0L24.5,16.32,21,12.8a5,5,0,0,0-7,0h0a4.92,4.92,0,0,0-1.4,4A4.93,4.93,0,0,1,14,13.8Z"/><path class="cls-9" d="M32,23.84l-.5.5L35,27.86a4.92,4.92,0,0,1,1.41,3,5,5,0,0,0-1.41-4Z"/></g></g></svg>