<svg id="Layer_1" data-name="Layer 1" xmlns="http://www.w3.org/2000/svg" viewBox="0 0 50 48"><defs><style>.cls-1{fill:#0052b4;}.cls-2{fill:#e1d4c1;}.cls-3{fill:#d1c5b4;}.cls-4{fill:#d80027;}.cls-5{fill:#f0f9ff;}</style></defs><title>buttonArtboard 103</title><path class="cls-1" d="M29.75,47.67,3.93,36.84A6.39,6.39,0,0,1,.19,29.39l1.33-5.3L21.24,9l27.68,9.49a1.6,1.6,0,0,1,.85,2.33L35.08,45.89A4.26,4.26,0,0,1,29.75,47.67Z"/><path class="cls-2" d="M29.58,44.33,4.31,33.72A3.2,3.2,0,0,1,2.44,30l.17-.74a9.7,9.7,0,0,1,1.83-3.76L20.17,5.75l25.55,4.74a3,3,0,0,1,2.45,2.95v3.72a4.05,4.05,0,0,1-.55,2L33.52,43A3.19,3.19,0,0,1,29.58,44.33Z"/><path class="cls-1" d="M48.39,10.33a1.7,1.7,0,0,1-.21.61l-1.2,2L35.44,32.29,34,34.66l-1,1.7a2.77,2.77,0,0,1-.59.72,3.11,3.11,0,0,1-2,.84,3.18,3.18,0,0,1-1.39-.23L3.11,27.21a2.59,2.59,0,0,1-1.45-1.42,2.7,2.7,0,0,1,.05-2.24A2.84,2.84,0,0,1,2,23.16l1.82-2.47h0l2.05-2.8L17.55,2l.08-.1A4.71,4.71,0,0,1,19.39.45,4.8,4.8,0,0,1,21.7,0,4.91,4.91,0,0,1,23,.26L24.2.68,43.37,7.26l3.54,1.21.41.14A1.6,1.6,0,0,1,48.39,10.33Z"/><rect class="cls-3" x="6.2" y="32.27" width="8.91" height="1.45" rx="0.73" transform="translate(12.14 -1.65) rotate(20.34)"/><path class="cls-4" d="M10,41.93,8.64,38.78a.18.18,0,0,0-.26-.1l-3.2,1.47c-.21.09-.36-.15-.25-.43l2.76-7.46c.07-.2.24-.31.36-.27l5.11,1.89c.12,0,.17.25.1.44L10.5,41.77C10.39,42.05,10.12,42.14,10,41.93Z"/><polygon class="cls-5" points="12.51 31.01 29.95 2.65 37.49 5.24 19.82 33.96 12.51 31.01"/><path class="cls-5" d="M35.44,32.29,33,36.36a3.18,3.18,0,0,1-2.55,1.56L17.63,1.86A4.79,4.79,0,0,1,23,.26L24.2.68Z"/><polygon class="cls-5" points="8.79 13.88 13.69 7.21 44.13 17.72 39.99 24.65 8.79 13.88"/><path class="cls-5" d="M48.18,10.94l-1.2,2L1.66,25.79A2.64,2.64,0,0,1,2,23.16l3.87-5.27L43.37,7.26l4,1.35A1.6,1.6,0,0,1,48.18,10.94Z"/><polygon class="cls-4" points="32.02 3.36 14.51 31.82 17.82 33.15 35.42 4.53 32.02 3.36"/><polygon class="cls-4" points="10.11 12.08 12.37 9.01 43.01 19.59 41.11 22.78 10.11 12.08"/><path class="cls-4" d="M34,34.66l-1,1.7a2.77,2.77,0,0,1-.59.72L19.39.45A4.8,4.8,0,0,1,21.7,0Z"/><path class="cls-4" d="M48.39,10.33,27.47,16.26l-2.24.63L1.71,23.55A2.84,2.84,0,0,1,2,23.16l1.82-2.47h0l20.71-5.87,2.24-.64L46.91,8.47l.41.14A1.6,1.6,0,0,1,48.39,10.33Z"/></svg>