<svg xmlns="http://www.w3.org/2000/svg" viewBox="0 0 48 52"><defs><style>.cls-1{isolation:isolate;}.cls-2{fill:#fe9853;}.cls-3{fill:#f7c77d;}.cls-4{fill:#202324;opacity:0.5;mix-blend-mode:multiply;}.cls-5{fill:#b1482a;}.cls-6{fill:#fbe3be;}.cls-7{fill:#bc5534;}.cls-8{fill:#fff6c7;}.cls-9{fill:#ffec98;}.cls-10{fill:#fefbf6;}</style></defs><title>logoutArtboard 162</title><g class="cls-1"><g id="Layer_1" data-name="Layer 1"><path class="cls-2" d="M39.27,4.28A19.86,19.86,0,0,0,28,.8H20a20,20,0,0,0-20,20v8a20,20,0,0,0,20,20h8a20,20,0,0,0,20-20v-8A20,20,0,0,0,39.27,4.28Z"/><path class="cls-2" d="M27,48.8h1a20,20,0,0,0,20-20v-1A21,21,0,0,1,27,48.8Z"/><path class="cls-3" d="M39.27,4.28A19.86,19.86,0,0,0,28,.8H20a20,20,0,0,0-20,20v8a20,20,0,0,0,20,20h1.49A19,19,0,0,1,2.55,29.86V24.35a21,21,0,0,1,21-21h5.51A19,19,0,0,1,48,22.29V20.8A20,20,0,0,0,39.27,4.28Z"/><path class="cls-4" d="M28,47.8H20a20,20,0,0,1-20-20v3.4a20,20,0,0,0,20,20h8a20,20,0,0,0,20-20V27.8A20,20,0,0,1,28,47.8Z"/><path class="cls-5" d="M28,45.39H20a20,20,0,0,1-20-20V28.8a20,20,0,0,0,20,20h8a20,20,0,0,0,20-20V25.39A20,20,0,0,1,28,45.39Z"/><rect class="cls-6" x="3.66" y="6.08" width="8" height="4" rx="2" transform="translate(-3.47 7.78) rotate(-45)"/><path class="cls-7" d="M32.5,18.63l-.18.3a2.91,2.91,0,0,0-.16,2.69,9.09,9.09,0,0,1,.68,5.53A9,9,0,0,1,15,25.42a9.1,9.1,0,0,1,.8-3.72A2.86,2.86,0,0,0,15.73,19l-.23-.4a2.81,2.81,0,0,0-5,.17A14.94,14.94,0,0,0,9,25.48a15,15,0,0,0,30-.06,14.85,14.85,0,0,0-1.59-6.72A2.8,2.8,0,0,0,32.5,18.63Z"/><rect class="cls-7" x="21" y="12.42" width="6" height="13" rx="3"/><path class="cls-8" d="M39,23.42c0,.34,0,.67,0,1a14.79,14.79,0,0,0-1.55-5.73,2.81,2.81,0,0,0-4.91-.07l-.18.31a3.32,3.32,0,0,0-.23.51,2.89,2.89,0,0,1,.23-2.51l.18-.31a2.81,2.81,0,0,1,4.91.07A14.93,14.93,0,0,1,39,23.42Z"/><path class="cls-8" d="M15.91,19.42a1.7,1.7,0,0,0-.18-.39l-.23-.4a2.81,2.81,0,0,0-5,.16A14.83,14.83,0,0,0,9,24.42c0-.32,0-.63,0-1a15,15,0,0,1,1.54-6.68,2.81,2.81,0,0,1,5-.16l.23.4A2.79,2.79,0,0,1,15.91,19.42Z"/><path class="cls-8" d="M32.84,27.15A9,9,0,0,1,15,25.42a8.47,8.47,0,0,1,.06-1,9,9,0,0,0,17.78.75c0-.24.08-.47.1-.71A9.21,9.21,0,0,1,32.84,27.15Z"/><path class="cls-9" d="M39,24.42A15,15,0,0,1,9,24.42a14.83,14.83,0,0,1,1.5-5.63,2.81,2.81,0,0,1,5-.16l.23.4a1.7,1.7,0,0,1,.18.39,2.33,2.33,0,0,1-.11.28,9,9,0,0,0-.8,3.72,7.93,7.93,0,0,0,.06,1,8.47,8.47,0,0,0-.06,1,9,9,0,0,0,17.84,1.73,9.21,9.21,0,0,0,.1-2.71,0,0,0,0,0,0,0,9,9,0,0,0-.78-4.81.87.87,0,0,1-.07-.17,3.32,3.32,0,0,1,.23-.51l.18-.31a2.81,2.81,0,0,1,4.91.07A14.79,14.79,0,0,1,39,24.42Z"/><path class="cls-8" d="M27,13.42v2a3,3,0,0,0-6,0v-2a3,3,0,0,1,6,0Z"/><path class="cls-9" d="M27,15.42v5a3,3,0,0,1-3,3,3,3,0,0,1-2.12-.88A3,3,0,0,1,21,20.42v-5a3,3,0,0,1,6,0Z"/><ellipse class="cls-10" cx="11.84" cy="17.41" rx="2.81" ry="1.04" transform="translate(-8.84 13.47) rotate(-45)"/></g></g></svg>