<svg xmlns="http://www.w3.org/2000/svg" viewBox="0 0 48 50"><defs><style>.cls-1{isolation:isolate;}.cls-2{fill:#202324;opacity:0.5;mix-blend-mode:multiply;}.cls-3{fill:#fe9853;}.cls-4{fill:#f7c77d;}.cls-5{fill:#b1482a;}.cls-6{fill:#fbe3be;}.cls-7{fill:#bc5534;}.cls-8{fill:#fff6c7;}.cls-9{fill:#ffec98;}</style></defs><title>buttonArtboard 98</title><g class="cls-1"><g id="Layer_1" data-name="Layer 1"><path class="cls-2" d="M39.27,5.48A19.86,19.86,0,0,0,28,2H20A20,20,0,0,0,0,22v8A20,20,0,0,0,20,50h8A20,20,0,0,0,48,30V22A20,20,0,0,0,39.27,5.48Z"/><path class="cls-3" d="M39.27,3.48A19.86,19.86,0,0,0,28,0H20A20,20,0,0,0,0,20v8A20,20,0,0,0,20,48h8A20,20,0,0,0,48,28V20A20,20,0,0,0,39.27,3.48Z"/><path class="cls-3" d="M27,48h1A20,20,0,0,0,48,28V27A21,21,0,0,1,27,48Z"/><path class="cls-4" d="M39.27,3.48A19.86,19.86,0,0,0,28,0H20A20,20,0,0,0,0,20v8A20,20,0,0,0,20,48h1.49A19,19,0,0,1,2.55,29.06V23.55a21,21,0,0,1,21-21h5.51A19,19,0,0,1,48,21.49V20A20,20,0,0,0,39.27,3.48Z"/><path class="cls-5" d="M28,44.6H20a20,20,0,0,1-20-20V28A20,20,0,0,0,20,48h8A20,20,0,0,0,48,28V24.6A20,20,0,0,1,28,44.6Z"/><rect class="cls-6" x="3.66" y="5.28" width="8" height="4" rx="2" transform="translate(-2.91 7.55) rotate(-45)"/><rect class="cls-7" x="12" y="29.62" width="24" height="4" rx="2"/><rect class="cls-7" x="12" y="23.62" width="24" height="4" rx="2"/><rect class="cls-7" x="12" y="17.62" width="24" height="4" rx="2"/><path class="cls-8" d="M36,29.62c0,.1,0,.2,0,.3a2,2,0,0,0-2-1.71H14a2,2,0,0,0-1.42.59A2,2,0,0,0,12,29.92c0-.1,0-.2,0-.3a2,2,0,0,1,2-2H34A2,2,0,0,1,36,29.62Z"/><path class="cls-8" d="M36,23.62c0,.1,0,.2,0,.3a2,2,0,0,0-2-1.71H14a2,2,0,0,0-1.42.59A2,2,0,0,0,12,23.92c0-.1,0-.2,0-.3a2,2,0,0,1,2-2H34A2,2,0,0,1,36,23.62Z"/><path class="cls-8" d="M36,17.62c0,.1,0,.2,0,.3a2,2,0,0,0-2-1.71H14a2,2,0,0,0-1.42.59A2,2,0,0,0,12,17.92c0-.1,0-.2,0-.3a2,2,0,0,1,2-2H34A2,2,0,0,1,36,17.62Z"/><path class="cls-9" d="M36,30.21a2,2,0,0,1-2,2H14a2,2,0,0,1-2-2,2.64,2.64,0,0,1,0-.29,2,2,0,0,1,.56-1.12A2,2,0,0,1,14,28.21H34a2,2,0,0,1,2,1.71A2.64,2.64,0,0,1,36,30.21Z"/><path class="cls-9" d="M36,24.21a2,2,0,0,1-2,2H14a2,2,0,0,1-2-2,2.64,2.64,0,0,1,0-.29,2,2,0,0,1,.56-1.12A2,2,0,0,1,14,22.21H34a2,2,0,0,1,2,1.71A2.64,2.64,0,0,1,36,24.21Z"/><path class="cls-9" d="M36,18.21a2,2,0,0,1-2,2H14a2,2,0,0,1-2-2,2.64,2.64,0,0,1,0-.29,2,2,0,0,1,.56-1.12A2,2,0,0,1,14,16.21H34a2,2,0,0,1,2,1.71A2.64,2.64,0,0,1,36,18.21Z"/></g></g></svg>