<svg xmlns="http://www.w3.org/2000/svg" viewBox="0 0 48 50"><defs><style>.cls-1{isolation:isolate;}.cls-2{fill:#202324;opacity:0.5;mix-blend-mode:multiply;}.cls-3{fill:#fe9853;}.cls-4{fill:#f7c77d;}.cls-5{fill:#b1482a;}.cls-6{fill:#fbe3be;}.cls-7{fill:#bc5534;}.cls-8{fill:#fff6c7;}.cls-9{fill:#ffec98;}</style></defs><title>buttonArtboard 97</title><g class="cls-1"><g id="Layer_1" data-name="Layer 1"><path class="cls-2" d="M39.27,5.48A19.86,19.86,0,0,0,28,2H20A20,20,0,0,0,0,22v8A20,20,0,0,0,20,50h8A20,20,0,0,0,48,30V22A20,20,0,0,0,39.27,5.48Z"/><path class="cls-3" d="M39.27,3.48A19.86,19.86,0,0,0,28,0H20A20,20,0,0,0,0,20v8A20,20,0,0,0,20,48h8A20,20,0,0,0,48,28V20A20,20,0,0,0,39.27,3.48Z"/><path class="cls-3" d="M27,48h1A20,20,0,0,0,48,28V27A21,21,0,0,1,27,48Z"/><path class="cls-4" d="M39.27,3.48A19.86,19.86,0,0,0,28,0H20A20,20,0,0,0,0,20v8A20,20,0,0,0,20,48h1.49A19,19,0,0,1,2.55,29.06V23.55a21,21,0,0,1,21-21h5.51A19,19,0,0,1,48,21.49V20A20,20,0,0,0,39.27,3.48Z"/><path class="cls-5" d="M28,44.6H20a20,20,0,0,1-20-20V28A20,20,0,0,0,20,48h8A20,20,0,0,0,48,28V24.6A20,20,0,0,1,28,44.6Z"/><rect class="cls-6" x="3.66" y="5.28" width="8" height="4" rx="2" transform="translate(-2.91 7.55) rotate(-45)"/><path class="cls-7" d="M32.77,12.6,21.66,16a3.49,3.49,0,0,0-2.43,3.13V30.85a4,4,0,0,0-2.6-.29c-2.63.38-4.77,2.4-4.77,4.52s2.14,3.42,4.77,3,4.57-2.33,4.57-4.45v-10c0-.94,1.13-1.34,1.13-1.34l9.82-3.08s1.09-.36,1.09.64v8h0a4.8,4.8,0,0,0-2.8-.36c-2.63.32-4.77,2.3-4.77,4.42s2.14,3.46,4.77,3.14,4.77-2.3,4.77-4.42V14.34A1.77,1.77,0,0,0,32.77,12.6Z"/><path class="cls-8" d="M35.21,12.34v1a1.78,1.78,0,0,0-2.43-1.75L21.67,15a3.49,3.49,0,0,0-2.44,3.14v-1A3.49,3.49,0,0,1,21.67,14l11.11-3.4A1.78,1.78,0,0,1,35.21,12.34Z"/><path class="cls-8" d="M19.23,28.85v1a3.86,3.86,0,0,0-2.6-.29c-2.42.34-4.42,2.07-4.72,4a1.86,1.86,0,0,1-.05-.48c0-2.12,2.14-4.14,4.77-4.51A3.86,3.86,0,0,1,19.23,28.85Z"/><path class="cls-8" d="M33.24,25.91v1a4.3,4.3,0,0,0-2-.4,5.86,5.86,0,0,0-.81,0c-2.42.29-4.41,2-4.72,3.9a2.63,2.63,0,0,1,0-.49c0-2.12,2.13-4.09,4.76-4.41a5.86,5.86,0,0,1,.81,0A4.3,4.3,0,0,1,33.24,25.91Z"/><path class="cls-9" d="M35.21,13.34V28.7c0,2.12-2.13,4.1-4.77,4.42-2.42.29-4.42-.83-4.72-2.66.31-1.92,2.3-3.61,4.72-3.9a5.86,5.86,0,0,1,.81,0,4.3,4.3,0,0,1,2,.4v-9c0-1-1.09-.64-1.09-.64l-9.82,3.08s-1.13.4-1.13,1.34v10c0,2.13-1.93,4.08-4.57,4.46-2.43.34-4.43-.74-4.72-2.57.3-1.92,2.3-3.65,4.72-4a3.86,3.86,0,0,1,2.6.29V18.13A3.49,3.49,0,0,1,21.67,15l11.11-3.4A1.78,1.78,0,0,1,35.21,13.34Z"/></g></g></svg>