<svg xmlns="http://www.w3.org/2000/svg" viewBox="0 0 48 50"><defs><style>.cls-1{isolation:isolate;}.cls-2{fill:#202324;opacity:0.5;mix-blend-mode:multiply;}.cls-3{fill:#fe9853;}.cls-4{fill:#f7c77d;}.cls-5{fill:#b1482a;}.cls-6{fill:#fbe3be;}.cls-7{fill:#bc5534;}.cls-8{fill:#ffec98;}.cls-9{fill:#fff6c7;}</style></defs><title>buttonArtboard 96</title><g class="cls-1"><g id="Layer_1" data-name="Layer 1"><path class="cls-2" d="M39.27,5.48A19.86,19.86,0,0,0,28,2H20A20,20,0,0,0,0,22v8A20,20,0,0,0,20,50h8A20,20,0,0,0,48,30V22A20,20,0,0,0,39.27,5.48Z"/><path class="cls-3" d="M39.27,3.48A19.86,19.86,0,0,0,28,0H20A20,20,0,0,0,0,20v8A20,20,0,0,0,20,48h8A20,20,0,0,0,48,28V20A20,20,0,0,0,39.27,3.48Z"/><path class="cls-3" d="M27,48h1A20,20,0,0,0,48,28V27A21,21,0,0,1,27,48Z"/><path class="cls-4" d="M39.27,3.48A19.86,19.86,0,0,0,28,0H20A20,20,0,0,0,0,20v8A20,20,0,0,0,20,48h1.49A19,19,0,0,1,2.55,29.06V23.55a21,21,0,0,1,21-21h5.51A19,19,0,0,1,48,21.49V20A20,20,0,0,0,39.27,3.48Z"/><path class="cls-5" d="M28,44.6H20a20,20,0,0,1-20-20V28A20,20,0,0,0,20,48h8A20,20,0,0,0,48,28V24.6A20,20,0,0,1,28,44.6Z"/><rect class="cls-6" x="3.66" y="5.28" width="8" height="4" rx="2" transform="translate(-2.91 7.55) rotate(-45)"/><path class="cls-7" d="M37.09,23.89a2,2,0,0,0-2.73-1.7,1,1,0,0,1-1.25-.58A10.37,10.37,0,0,0,32.18,20a1,1,0,0,1,.14-1.4,2.13,2.13,0,0,0-.08-3.28,12.25,12.25,0,0,0-2.69-1.6,2.06,2.06,0,0,0-.81-.17,2,2,0,0,0-2,1.73,1,1,0,0,1-1.12.83,8.18,8.18,0,0,0-1.85,0,1,1,0,0,1-1.12-.83,2,2,0,0,0-2-1.73,2.06,2.06,0,0,0-.81.17,12.25,12.25,0,0,0-2.69,1.6,2.12,2.12,0,0,0-.08,3.28,1,1,0,0,1,.14,1.4,9.66,9.66,0,0,0-.93,1.66,1,1,0,0,1-1.26.57,2.17,2.17,0,0,0-.71-.13,2.07,2.07,0,0,0-2,1.84,14.35,14.35,0,0,0-.1,1.61,12.32,12.32,0,0,0,.11,1.61A2,2,0,0,0,15,28.81a1,1,0,0,1,1.25.58,9.66,9.66,0,0,0,.93,1.66,1,1,0,0,1-.14,1.4,2.12,2.12,0,0,0,.08,3.28,12.25,12.25,0,0,0,2.69,1.6,2.06,2.06,0,0,0,.81.17,2,2,0,0,0,2-1.73,1,1,0,0,1,1.12-.83,8.18,8.18,0,0,0,1.85,0,1,1,0,0,1,1.12.83,2,2,0,0,0,2,1.73,2.06,2.06,0,0,0,.81-.17,12.25,12.25,0,0,0,2.69-1.6,2.11,2.11,0,0,0,.81-1.63,2.08,2.08,0,0,0-.73-1.65,1,1,0,0,1-.14-1.4,9.66,9.66,0,0,0,.93-1.66,1,1,0,0,1,1.26-.57,1.94,1.94,0,0,0,.71.13,2.06,2.06,0,0,0,2-1.84,13,13,0,0,0,0-3.22Zm-12.4,5.89a4.28,4.28,0,1,1,4.17-4.28A4.23,4.23,0,0,1,24.69,29.78Z"/><path class="cls-8" d="M37.09,21.89a2,2,0,0,0-2.73-1.7,1,1,0,0,1-1.25-.58A10.37,10.37,0,0,0,32.18,18a1,1,0,0,1,.14-1.4,2.13,2.13,0,0,0-.08-3.28,12.25,12.25,0,0,0-2.69-1.6,2.06,2.06,0,0,0-.81-.17,2,2,0,0,0-2,1.73,1,1,0,0,1-1.12.83,8.18,8.18,0,0,0-1.85,0,1,1,0,0,1-1.12-.83,2,2,0,0,0-2-1.73,2.06,2.06,0,0,0-.81.17,12.25,12.25,0,0,0-2.69,1.6,2.12,2.12,0,0,0-.08,3.28,1,1,0,0,1,.14,1.4,9.66,9.66,0,0,0-.93,1.66,1,1,0,0,1-1.26.57,2.17,2.17,0,0,0-.71-.13,2.07,2.07,0,0,0-2,1.84,14.35,14.35,0,0,0-.1,1.61,12.32,12.32,0,0,0,.11,1.61A2,2,0,0,0,15,26.81a1,1,0,0,1,1.25.58,9.66,9.66,0,0,0,.93,1.66,1,1,0,0,1-.14,1.4,2.12,2.12,0,0,0,.08,3.28,12.25,12.25,0,0,0,2.69,1.6,2.06,2.06,0,0,0,.81.17,2,2,0,0,0,2-1.73,1,1,0,0,1,1.12-.83,8.18,8.18,0,0,0,1.85,0,1,1,0,0,1,1.12.83,2,2,0,0,0,2,1.73,2.06,2.06,0,0,0,.81-.17,12.25,12.25,0,0,0,2.69-1.6,2.11,2.11,0,0,0,.81-1.63,2.08,2.08,0,0,0-.73-1.65,1,1,0,0,1-.14-1.4,9.66,9.66,0,0,0,.93-1.66,1,1,0,0,1,1.26-.57,1.94,1.94,0,0,0,.71.13,2.06,2.06,0,0,0,2-1.84,13,13,0,0,0,0-3.22Zm-12.4,5.89a4.28,4.28,0,1,1,4.17-4.28A4.23,4.23,0,0,1,24.69,27.78Z"/><path class="cls-9" d="M17.28,30.19a.89.89,0,0,1-.21.26,2.11,2.11,0,0,0-.74,1.64,2.53,2.53,0,0,0,.07.48,2.06,2.06,0,0,1,.67-1.12A1,1,0,0,0,17.28,30.19Z"/><path class="cls-9" d="M32.11,17.81A1.07,1.07,0,0,0,32.18,19a10.37,10.37,0,0,1,.93,1.66,1,1,0,0,0,1.25.58,2,2,0,0,1,2.73,1.7A10.34,10.34,0,0,1,37.16,24c0-.16,0-.33,0-.5a12.54,12.54,0,0,0-.1-1.61,2,2,0,0,0-2.73-1.7,1,1,0,0,1-1.25-.58A10.37,10.37,0,0,0,32.18,18S32.14,17.86,32.11,17.81Z"/><path class="cls-9" d="M17.15,14.27a12,12,0,0,1,2.69-1.6,2.06,2.06,0,0,1,.81-.17,2,2,0,0,1,2,1.73,1,1,0,0,0,1.12.83,8.18,8.18,0,0,1,1.85,0,1,1,0,0,0,1.12-.83,2,2,0,0,1,2-1.73,2.06,2.06,0,0,1,.81.17,12.25,12.25,0,0,1,2.69,1.6A2.05,2.05,0,0,1,33,15.43a1.81,1.81,0,0,0,.06-.52,2.08,2.08,0,0,0-.81-1.64,12.25,12.25,0,0,0-2.69-1.6,2.06,2.06,0,0,0-.81-.17,2,2,0,0,0-2,1.73,1,1,0,0,1-1.12.83,8.18,8.18,0,0,0-1.85,0,1,1,0,0,1-1.12-.83,2,2,0,0,0-2-1.73,2.06,2.06,0,0,0-.81.17,12,12,0,0,0-2.69,1.6,2.12,2.12,0,0,0-.82,1.64,2.25,2.25,0,0,0,.07.52A2.05,2.05,0,0,1,17.15,14.27Z"/><path class="cls-9" d="M32.11,30.19a1,1,0,0,0,.21,1.26A2.06,2.06,0,0,1,33,32.57a1.91,1.91,0,0,0,.06-.48,2.07,2.07,0,0,0-.73-1.64A.89.89,0,0,1,32.11,30.19Z"/><path class="cls-9" d="M24.69,28.78A4.12,4.12,0,0,0,28.81,24a4.13,4.13,0,0,1-8.23,0,4.12,4.12,0,0,0,4.11,4.78Z"/><path class="cls-9" d="M12.29,22.89a2.07,2.07,0,0,1,2-1.84,2.17,2.17,0,0,1,.71.13,1,1,0,0,0,1.26-.57A9.66,9.66,0,0,1,17.21,19a1.07,1.07,0,0,0,.07-1.14c0,.05,0,.1-.07.14a9.66,9.66,0,0,0-.93,1.66,1,1,0,0,1-1.26.57,2.17,2.17,0,0,0-.71-.13,2.07,2.07,0,0,0-2,1.84,14.35,14.35,0,0,0-.1,1.61c0,.17,0,.33,0,.5C12.24,23.63,12.25,23.26,12.29,22.89Z"/></g></g></svg>