<svg id="Layer_1" data-name="Layer 1" xmlns="http://www.w3.org/2000/svg" viewBox="0 0 50 48"><defs><style>.cls-1{fill:#e9415b;}.cls-2{fill:#e1d4c1;}.cls-3{fill:#eed561;}.cls-4{fill:#d1c5b4;}.cls-5{fill:#71adbd;}</style></defs><title>buttonArtboard 104</title><path class="cls-1" d="M29.75,47.67,3.93,36.84A6.39,6.39,0,0,1,.19,29.39l1.33-5.3L21.24,9l27.68,9.49a1.6,1.6,0,0,1,.85,2.33L35.08,45.89A4.26,4.26,0,0,1,29.75,47.67Z"/><path class="cls-2" d="M29.58,44.33,4.31,33.72A3.2,3.2,0,0,1,2.44,30l.17-.74a9.7,9.7,0,0,1,1.83-3.76L20.17,5.75l25.55,4.74a3,3,0,0,1,2.45,2.95v3.72a4.05,4.05,0,0,1-.55,2L33.52,43A3.19,3.19,0,0,1,29.58,44.33Z"/><path class="cls-1" d="M29.06,37.69,3.11,27.21A2.66,2.66,0,0,1,2,23.16L17.56,2A4.8,4.8,0,0,1,23,.26L47.32,8.61a1.59,1.59,0,0,1,.85,2.33L33,36.37A3.2,3.2,0,0,1,29.06,37.69Z"/><polygon class="cls-3" points="31.55 7.86 30.77 14.54 38.81 17.31 30.34 20.61 29.3 28.49 23.27 21.33 13.88 22.84 20.29 17.41 17.37 9.91 25.51 12.72 31.55 7.86"/><rect class="cls-4" x="6.2" y="32.27" width="8.91" height="1.45" rx="0.73" transform="translate(12.14 -1.65) rotate(20.34)"/><path class="cls-5" d="M10,41.93,8.64,38.78a.18.18,0,0,0-.26-.1l-3.2,1.47c-.21.09-.36-.15-.25-.43l2.76-7.46c.07-.2.24-.32.36-.27l5.11,1.89c.12,0,.17.25.1.44L10.5,41.77C10.39,42.05,10.12,42.14,10,41.93Z"/></svg>